<svg width="20" height="16" viewBox="0 0 20 16" fill="none" xmlns="http://www.w3.org/2000/svg">
<path d="M14.6626 8.92882C14.6626 8.42215 14.2504 8.00996 13.7437 8.00996C13.5023 8.00996 13.2822 8.10356 13.1181 8.25641C12.9539 8.10356 12.7339 8.00996 12.4925 8.00996C12.251 8.00996 12.031 8.10356 11.8669 8.25641C11.7027 8.10356 11.4827 8.00996 11.2413 8.00996C11.1241 8.00996 11.012 8.03201 10.9089 8.07217V7.45445C11.6652 7.10086 12.1601 6.3352 12.1601 5.48796C12.1601 4.29136 11.1866 3.31787 9.99004 3.31787C8.79344 3.31787 7.81995 4.29136 7.81995 5.48796C7.81995 6.01719 8.01264 6.52698 8.36255 6.92346L8.80228 6.53535C8.54703 6.24616 8.40646 5.87416 8.40646 5.48796C8.40646 4.61476 9.11684 3.90438 9.99004 3.90438C10.8632 3.90438 11.5736 4.61476 11.5736 5.48796C11.5736 6.00788 11.3183 6.48573 10.9089 6.77801V6.11357C10.9089 5.60691 10.4967 5.19471 9.99004 5.19471C9.48337 5.19471 9.07117 5.60691 9.07117 6.11357V8.17054C8.25886 7.89226 7.62367 7.25731 7.33119 6.46857V6.44593H7.3229C7.21416 6.14485 7.15524 5.8218 7.15524 5.48796C7.15524 3.92483 8.42691 2.65316 9.99004 2.65316C11.5532 2.65316 12.8248 3.92483 12.8248 5.48796C12.8248 6.1072 12.6288 6.69543 12.258 7.18896L12.7269 7.54126C12.8484 7.37954 12.9544 7.20945 13.0443 7.03244H16.5785V8.99635C16.2152 9.11901 15.9529 9.46305 15.9529 9.86724C15.9529 10.3739 16.3651 10.7861 16.8718 10.7861C17.3784 10.7861 17.7906 10.3739 17.7906 9.86724C17.7906 9.46305 17.5283 9.11901 17.165 8.99635V6.44593H13.2761C13.3655 6.13817 13.4113 5.81668 13.4113 5.48796C13.4113 4.75502 13.1797 4.07521 12.7857 3.51783V2.02755H14.124C14.2467 2.39087 14.5907 2.65316 14.9949 2.65316C15.5016 2.65316 15.9138 2.24096 15.9138 1.7343C15.9138 1.22763 15.5016 0.81543 14.9949 0.81543C14.5907 0.81543 14.2467 1.07772 14.124 1.44104H12.1992V2.87748C11.6027 2.37191 10.8314 2.06665 9.99004 2.06665C8.10351 2.06665 6.56873 3.60143 6.56873 5.48796C6.56873 5.81852 6.61663 6.14036 6.70633 6.44593H3.97921C3.85655 6.0826 3.5125 5.82032 3.10832 5.82032C2.60165 5.82032 2.18945 6.23252 2.18945 6.73918C2.18945 7.24585 2.60165 7.65805 3.10832 7.65805C3.5125 7.65805 3.85655 7.39576 3.97921 7.03244H6.93921C7.30132 7.74497 7.90676 8.32116 8.65616 8.63924C8.18808 8.6812 7.81995 9.07561 7.81995 9.55443V11.1185C7.81995 12.1549 8.27403 13.1106 9.07117 13.7635V15.1849H9.65768V13.4745L9.54054 13.3865C8.81983 12.8451 8.40646 12.0184 8.40646 11.1185V9.55443C8.40646 9.37117 8.55555 9.22208 8.73882 9.22208C8.92208 9.22208 9.07117 9.37117 9.07117 9.55443V10.4928H9.65768V6.11357C9.65768 5.93031 9.80677 5.78122 9.99004 5.78122C10.1733 5.78122 10.3224 5.93031 10.3224 6.11357V9.55443H10.9089V8.92882C10.9089 8.74556 11.058 8.59647 11.2413 8.59647C11.4245 8.59647 11.5736 8.74556 11.5736 8.92882V9.55443H12.1601V8.92882C12.1601 8.74556 12.3092 8.59647 12.4925 8.59647C12.6757 8.59647 12.8248 8.74556 12.8248 8.92882V9.55443H13.4113V8.92882C13.4113 8.74556 13.5604 8.59647 13.7437 8.59647C13.927 8.59647 14.0761 8.74556 14.0761 8.92882V11.1185C14.0761 12.0184 13.6627 12.8451 12.942 13.3865L12.8248 13.4745V15.1849H13.4113V13.7635C14.2085 13.1106 14.6626 12.1549 14.6626 11.1185V8.92882ZM16.8718 10.1996C16.6885 10.1996 16.5394 10.0505 16.5394 9.86724C16.5394 9.68397 16.6885 9.53488 16.8718 9.53488C17.055 9.53488 17.2041 9.68397 17.2041 9.86724C17.2041 10.0505 17.055 10.1996 16.8718 10.1996ZM14.9949 1.40194C15.1782 1.40194 15.3273 1.55103 15.3273 1.7343C15.3273 1.91756 15.1782 2.06665 14.9949 2.06665C14.8117 2.06665 14.6626 1.91756 14.6626 1.7343C14.6626 1.55103 14.8117 1.40194 14.9949 1.40194ZM3.10832 7.07154C2.92505 7.07154 2.77596 6.92245 2.77596 6.73918C2.77596 6.55592 2.92505 6.40683 3.10832 6.40683C3.29158 6.40683 3.44068 6.55592 3.44068 6.73918C3.44068 6.92245 3.29158 7.07154 3.10832 7.07154Z" fill="#043752"/>
<path d="M19.3548 14.5776V12.6826H18.7683V14.5776H18.1036V11.7441H17.5171V14.5776H16.8524V13.3082H16.2659V14.5776H15.7421L14.8895 13.7263L14.4751 14.1413L15.4993 15.1641H20V14.5776H19.3548Z" fill="#043752"/>
<path d="M11.4502 13.9531H12.0237V14.5396H11.4502V13.9531Z" fill="#043752"/>
<path d="M10.3032 13.9531H10.8767V14.5396H10.3032V13.9531Z" fill="#043752"/>
<path d="M5.92375 5.15561V4.5691H1.21212V2.60519C1.57544 2.48253 1.83773 2.13848 1.83773 1.7343C1.83773 1.22763 1.42553 0.81543 0.918866 0.81543C0.412199 0.81543 0 1.22763 0 1.7343C0 2.13848 0.262287 2.48253 0.625611 2.60519V5.15561H5.92375ZM0.918866 1.40194C1.10213 1.40194 1.25122 1.55103 1.25122 1.7343C1.25122 1.91756 1.10213 2.06665 0.918866 2.06665C0.735601 2.06665 0.58651 1.91756 0.58651 1.7343C0.58651 1.55103 0.735601 1.40194 0.918866 1.40194Z" fill="#043752"/>
<path d="M5.63044 8.3229H2.18958V10.2477C1.82625 10.3704 1.56396 10.7144 1.56396 11.1186C1.56396 11.6253 1.97616 12.0375 2.48283 12.0375C2.9895 12.0375 3.4017 11.6253 3.4017 11.1186C3.4017 10.7144 3.13941 10.3704 2.77609 10.2477V8.90941H6.21695V7.67773H5.63044V8.3229ZM2.48283 11.451C2.29957 11.451 2.15048 11.3019 2.15048 11.1186C2.15048 10.9353 2.29957 10.7862 2.48283 10.7862C2.6661 10.7862 2.81519 10.9353 2.81519 11.1186C2.81519 11.3019 2.6661 11.451 2.48283 11.451Z" fill="#043752"/>
<path d="M14.0566 5.78122H16.5395V3.90438H19.3548V2.60519C19.7181 2.48253 19.9804 2.13848 19.9804 1.7343C19.9804 1.22763 19.5682 0.81543 19.0615 0.81543C18.5549 0.81543 18.1427 1.22763 18.1427 1.7343C18.1427 2.13848 18.4049 2.48253 18.7683 2.60519V3.31787H15.953V5.19471H14.0566V5.78122ZM19.0615 1.40194C19.2448 1.40194 19.3939 1.55103 19.3939 1.7343C19.3939 1.91756 19.2448 2.06665 19.0615 2.06665C18.8783 2.06665 18.7292 1.91756 18.7292 1.7343C18.7292 1.55103 18.8783 1.40194 19.0615 1.40194Z" fill="#043752"/>
<path d="M7.59341 2.25426L8.0078 1.83924L6.98355 0.816406H2.48291V1.40292H6.74082L7.59341 2.25426Z" fill="#043752"/>
<path d="M3.1084 2.06641H3.73401V2.65292H3.1084V2.06641Z" fill="#043752"/>
<path d="M4.35986 2.06641H4.98547V2.65292H4.35986V2.06641Z" fill="#043752"/>
<path d="M3.73389 3.31836H4.3595V3.90487H3.73389V3.31836Z" fill="#043752"/>
<path d="M4.98535 3.31836H5.61096V3.90487H4.98535V3.31836Z" fill="#043752"/>
<path d="M5.61084 2.06641H6.23645V2.65292H5.61084V2.06641Z" fill="#043752"/>
</svg>
