<svg width="20" height="24" viewBox="0 0 20 24" fill="none" xmlns="http://www.w3.org/2000/svg">
<path d="M19.1011 12.4949H12.3596C12.0866 12.4949 11.8283 12.3707 11.6577 12.1574L10.246 10.3929L7.11552 14.8121C6.95418 15.04 6.6961 15.1799 6.41731 15.1908C6.13782 15.202 5.87008 15.0825 5.69154 14.8681L3.71383 12.4949H1.79775V17.0791C1.79775 18.0704 2.60428 18.8769 3.59551 18.8769H11.4607C12.4519 18.8769 13.2584 18.0704 13.2584 17.0791V15.2364C13.2584 14.7399 13.6608 14.3376 14.1573 14.3376C14.6538 14.3376 15.0562 14.7399 15.0562 15.2364V17.0791C15.0562 18.735 13.9305 20.1323 12.4045 20.5481V22.1128C12.4045 22.6093 12.0021 23.0117 11.5056 23.0117C11.0091 23.0117 10.6067 22.6093 10.6067 22.1128V20.6746H4.49438V22.1128C4.49438 22.6093 4.09199 23.0117 3.59551 23.0117C3.09902 23.0117 2.69663 22.6093 2.69663 22.1128V20.5609C1.14765 20.1608 0 18.7515 0 17.0791V5.97801C0 4.30561 1.14765 2.89637 2.69663 2.49627V0.899359C2.69663 0.40287 3.09902 0.000482559 3.59551 0.000482559C4.09199 0.000482559 4.49438 0.40287 4.49438 0.899359V2.38251H10.6067V0.899359C10.6067 0.40287 11.0091 0.000482559 11.5056 0.000482559C12.0021 0.000482559 12.4045 0.40287 12.4045 0.899359V2.50908C13.9305 2.92482 15.0562 4.32194 15.0562 5.97801V7.95554C15.0562 8.45203 14.6538 8.85441 14.1573 8.85441C13.6608 8.85441 13.2584 8.45203 13.2584 7.95554V5.97801C13.2584 4.98679 12.4519 4.18026 11.4607 4.18026H3.59551C2.60428 4.18026 1.79775 4.98679 1.79775 5.97801V10.6971H4.13483C4.40169 10.6971 4.65449 10.8156 4.82532 11.0205L6.32426 12.8191L9.46875 8.3797C9.63185 8.14936 9.89379 8.00909 10.1759 8.00083C10.1847 8.00066 10.1935 8.00048 10.2022 8.00048C10.4749 8.00048 10.7333 8.12425 10.9041 8.33774L12.7916 10.6971H19.1011C19.5976 10.6971 20 11.0995 20 11.596C20 12.0925 19.5976 12.4949 19.1011 12.4949Z" fill="#043752"/>
</svg>
