<svg width="21" height="21" viewBox="0 0 21 21" fill="none" xmlns="http://www.w3.org/2000/svg">
<path d="M10.3093 0.686523C7.58529 0.718402 4.98214 1.7822 3.05585 3.6507C1.12957 5.5192 0.032864 8.04426 0 10.6865C0.032864 13.3288 1.12957 15.8538 3.05585 17.7223C4.98214 19.5908 7.58529 20.6546 10.3093 20.6865C13.0332 20.6546 15.6364 19.5908 17.5627 17.7223C19.489 15.8538 20.5857 13.3288 20.6185 10.6865C20.5857 8.04426 19.489 5.5192 17.5627 3.6507C15.6364 1.7822 13.0332 0.718402 10.3093 0.686523ZM16.2003 11.4008H11.0456V16.4008H9.57289V11.4008H4.41826V9.97224H9.57289V4.97224H11.0456V9.97224H16.2003V11.4008Z" fill="#043752"/>
<path d="M16.2005 11.4012H11.0458V16.4012H9.57309V11.4012H4.41846V9.97266H9.57309V4.97266H11.0458V9.97266H16.2005V11.4012Z" fill="white"/>
</svg>
