<svg width="20" height="18" viewBox="0 0 20 18" fill="none" xmlns="http://www.w3.org/2000/svg">
<path d="M18.125 0H1.875C1.37789 0.000543448 0.901288 0.198262 0.549775 0.549775C0.198262 0.901288 0.000543448 1.37789 0 1.875L0 15.625C0.000543448 16.1221 0.198262 16.5987 0.549775 16.9502C0.901288 17.3017 1.37789 17.4995 1.875 17.5H18.125C18.6221 17.4995 19.0987 17.3017 19.4502 16.9502C19.8017 16.5987 19.9995 16.1221 20 15.625V1.875C19.9995 1.37789 19.8017 0.901288 19.4502 0.549775C19.0987 0.198262 18.6221 0.000543448 18.125 0ZM19.375 15.625C19.3746 15.9564 19.2428 16.2741 19.0085 16.5085C18.7741 16.7428 18.4564 16.8746 18.125 16.875H1.875C1.54359 16.8746 1.22585 16.7428 0.991507 16.5085C0.757163 16.2741 0.625353 15.9564 0.625 15.625V5H5.9375C6.29754 4.99953 6.64641 4.87495 6.9253 4.64725C7.2042 4.41955 7.39607 4.10266 7.46857 3.75H19.375V15.625ZM19.375 3.125H7.1875C7.14646 3.12499 7.10582 3.13306 7.0679 3.14877C7.02998 3.16447 6.99553 3.18748 6.96651 3.21651C6.93748 3.24553 6.91447 3.27998 6.89877 3.3179C6.88307 3.35582 6.87499 3.39646 6.875 3.4375C6.87473 3.68606 6.77587 3.92436 6.60011 4.10011C6.42436 4.27587 6.18606 4.37473 5.9375 4.375H0.625V1.875C0.625353 1.54359 0.757163 1.22585 0.991507 0.991507C1.22585 0.757163 1.54359 0.625353 1.875 0.625H18.125C18.4564 0.625353 18.7741 0.757163 19.0085 0.991507C19.2428 1.22585 19.3746 1.54359 19.375 1.875V3.125Z" fill="#043752"/>
<path d="M5.9375 3.125H5.3125C5.22962 3.125 5.15013 3.15792 5.09153 3.21653C5.03292 3.27513 5 3.35462 5 3.4375C5 3.52038 5.03292 3.59987 5.09153 3.65847C5.15013 3.71708 5.22962 3.75 5.3125 3.75H5.9375C6.02038 3.75 6.09987 3.71708 6.15847 3.65847C6.21708 3.59987 6.25 3.52038 6.25 3.4375C6.25 3.35462 6.21708 3.27513 6.15847 3.21653C6.09987 3.15792 6.02038 3.125 5.9375 3.125Z" fill="#043752"/>
<path d="M4.0625 3.125H3.4375C3.35462 3.125 3.27513 3.15792 3.21653 3.21653C3.15792 3.27513 3.125 3.35462 3.125 3.4375C3.125 3.52038 3.15792 3.59987 3.21653 3.65847C3.27513 3.71708 3.35462 3.75 3.4375 3.75H4.0625C4.14538 3.75 4.22487 3.71708 4.28347 3.65847C4.34208 3.59987 4.375 3.52038 4.375 3.4375C4.375 3.35462 4.34208 3.27513 4.28347 3.21653C4.22487 3.15792 4.14538 3.125 4.0625 3.125Z" fill="#043752"/>
<path d="M2.1875 3.125H1.5625C1.47962 3.125 1.40013 3.15792 1.34153 3.21653C1.28292 3.27513 1.25 3.35462 1.25 3.4375C1.25 3.52038 1.28292 3.59987 1.34153 3.65847C1.40013 3.71708 1.47962 3.75 1.5625 3.75H2.1875C2.27038 3.75 2.34987 3.71708 2.40847 3.65847C2.46708 3.59987 2.5 3.52038 2.5 3.4375C2.5 3.35462 2.46708 3.27513 2.40847 3.21653C2.34987 3.15792 2.27038 3.125 2.1875 3.125Z" fill="#043752"/>
<path d="M18.125 1.5625H10C9.91712 1.5625 9.83763 1.59542 9.77903 1.65403C9.72042 1.71263 9.6875 1.79212 9.6875 1.875C9.6875 1.95788 9.72042 2.03737 9.77903 2.09597C9.83763 2.15458 9.91712 2.1875 10 2.1875H18.125C18.2079 2.1875 18.2874 2.15458 18.346 2.09597C18.4046 2.03737 18.4375 1.95788 18.4375 1.875C18.4375 1.79212 18.4046 1.71263 18.346 1.65403C18.2874 1.59542 18.2079 1.5625 18.125 1.5625Z" fill="#043752"/>
<path d="M18.125 15.3125H1.875C1.79212 15.3125 1.71263 15.3454 1.65403 15.404C1.59542 15.4626 1.5625 15.5421 1.5625 15.625C1.5625 15.7079 1.59542 15.7874 1.65403 15.846C1.71263 15.9046 1.79212 15.9375 1.875 15.9375H18.125C18.2079 15.9375 18.2874 15.9046 18.346 15.846C18.4046 15.7874 18.4375 15.7079 18.4375 15.625C18.4375 15.5421 18.4046 15.4626 18.346 15.404C18.2874 15.3454 18.2079 15.3125 18.125 15.3125Z" fill="#043752"/>
<path d="M18.125 13.75H7.8125C7.72962 13.75 7.65013 13.7829 7.59153 13.8415C7.53292 13.9001 7.5 13.9796 7.5 14.0625C7.5 14.1454 7.53292 14.2249 7.59153 14.2835C7.65013 14.3421 7.72962 14.375 7.8125 14.375H18.125C18.2079 14.375 18.2874 14.3421 18.346 14.2835C18.4046 14.2249 18.4375 14.1454 18.4375 14.0625C18.4375 13.9796 18.4046 13.9001 18.346 13.8415C18.2874 13.7829 18.2079 13.75 18.125 13.75Z" fill="#043752"/>
<path d="M18.125 12.1875H9.0625C8.97962 12.1875 8.90013 12.2204 8.84153 12.279C8.78292 12.3376 8.75 12.4171 8.75 12.5C8.75 12.5829 8.78292 12.6624 8.84153 12.721C8.90013 12.7796 8.97962 12.8125 9.0625 12.8125H18.125C18.2079 12.8125 18.2874 12.7796 18.346 12.721C18.4046 12.6624 18.4375 12.5829 18.4375 12.5C18.4375 12.4171 18.4046 12.3376 18.346 12.279C18.2874 12.2204 18.2079 12.1875 18.125 12.1875Z" fill="#043752"/>
<path d="M18.125 10.625H9.0625C8.97962 10.625 8.90013 10.6579 8.84153 10.7165C8.78292 10.7751 8.75 10.8546 8.75 10.9375C8.75 11.0204 8.78292 11.0999 8.84153 11.1585C8.90013 11.2171 8.97962 11.25 9.0625 11.25H18.125C18.2079 11.25 18.2874 11.2171 18.346 11.1585C18.4046 11.0999 18.4375 11.0204 18.4375 10.9375C18.4375 10.8546 18.4046 10.7751 18.346 10.7165C18.2874 10.6579 18.2079 10.625 18.125 10.625Z" fill="#043752"/>
<path d="M11.5625 9.6875H18.125C18.2079 9.6875 18.2874 9.65458 18.346 9.59597C18.4046 9.53737 18.4375 9.45788 18.4375 9.375C18.4375 9.29212 18.4046 9.21263 18.346 9.15403C18.2874 9.09542 18.2079 9.0625 18.125 9.0625H11.5625C11.4796 9.0625 11.4001 9.09542 11.3415 9.15403C11.2829 9.21263 11.25 9.29212 11.25 9.375C11.25 9.45788 11.2829 9.53737 11.3415 9.59597C11.4001 9.65458 11.4796 9.6875 11.5625 9.6875Z" fill="#043752"/>
<path d="M11.5625 8.125H18.125C18.2079 8.125 18.2874 8.09208 18.346 8.03347C18.4046 7.97487 18.4375 7.89538 18.4375 7.8125C18.4375 7.72962 18.4046 7.65013 18.346 7.59153C18.2874 7.53292 18.2079 7.5 18.125 7.5H11.5625C11.4796 7.5 11.4001 7.53292 11.3415 7.59153C11.2829 7.65013 11.25 7.72962 11.25 7.8125C11.25 7.89538 11.2829 7.97487 11.3415 8.03347C11.4001 8.09208 11.4796 8.125 11.5625 8.125Z" fill="#043752"/>
<path d="M11.5625 6.5625H18.125C18.2079 6.5625 18.2874 6.52958 18.346 6.47097C18.4046 6.41237 18.4375 6.33288 18.4375 6.25C18.4375 6.16712 18.4046 6.08763 18.346 6.02903C18.2874 5.97042 18.2079 5.9375 18.125 5.9375H11.5625C11.4796 5.9375 11.4001 5.97042 11.3415 6.02903C11.2829 6.08763 11.25 6.16712 11.25 6.25C11.25 6.33288 11.2829 6.41237 11.3415 6.47097C11.4001 6.52958 11.4796 6.5625 11.5625 6.5625Z" fill="#043752"/>
<path d="M3.34966 12.6686C3.38264 12.6686 3.41573 12.6657 3.44879 12.6638L5.01165 13.8887C5.18202 14.0223 5.39847 14.0827 5.61337 14.0566C5.82828 14.0306 6.02404 13.9203 6.15758 13.7499C6.29113 13.5795 6.35153 13.3631 6.32549 13.1482C6.29945 12.9333 6.1891 12.7375 6.01873 12.6039L5.33485 12.068C5.82241 11.9202 6.33359 11.8664 6.84123 11.9093C7.06605 11.9797 7.30943 11.9595 7.51958 11.8531C8.23034 11.4733 8.20104 10.1291 7.45153 8.72654C6.70232 7.32395 5.60247 6.55079 4.89049 6.9318C4.68732 7.04799 4.53639 7.23761 4.46872 7.46166C4.1076 8.22689 3.09484 8.99961 2.38225 9.46186C2.06796 9.66894 1.82892 9.97196 1.70071 10.3258C1.5725 10.6797 1.56196 11.0655 1.67066 11.4258C1.77937 11.7862 2.00151 12.1018 2.30403 12.3257C2.60655 12.5497 2.97328 12.6699 3.34966 12.6686ZM5.63329 13.0959C5.65826 13.1155 5.67795 13.1411 5.69057 13.1703C5.7032 13.1994 5.70837 13.2313 5.70561 13.2629C5.70285 13.2946 5.69226 13.3251 5.67479 13.3516C5.65731 13.3781 5.63351 13.3999 5.60552 13.415C5.57281 13.4325 5.53571 13.4401 5.49875 13.4369C5.46179 13.4336 5.42657 13.4197 5.39739 13.3968L4.19939 12.4578C4.34335 12.3987 4.48194 12.3445 4.61338 12.2968L5.63329 13.0959ZM5.03713 7.7117C5.0553 7.61936 5.10823 7.53754 5.18499 7.4831C5.49749 7.31641 6.31662 7.92827 6.90038 9.02103C7.52325 10.1865 7.50859 11.1502 7.22509 11.3018C6.94066 11.4542 6.13226 10.9296 5.50939 9.76383C5.03042 8.86717 4.9295 8.0915 5.03713 7.7117ZM4.42891 8.59607C4.52893 9.10786 4.70748 9.60111 4.95824 10.0583C5.19991 10.5215 5.51238 10.944 5.88435 11.3108C5.36727 11.3966 4.86007 11.5339 4.37029 11.7206L3.24971 9.62259C3.67586 9.32037 4.07087 8.9765 4.42891 8.59605V8.59607ZM2.72222 9.98615L2.73197 9.97961L3.78562 11.9522L3.77477 11.9567C3.5172 12.064 3.22886 12.0716 2.96603 11.9778C2.7032 11.8841 2.48474 11.6957 2.35326 11.4496C2.22179 11.2035 2.18674 10.9172 2.25496 10.6466C2.32318 10.376 2.48977 10.1405 2.72222 9.98615Z" fill="#043752"/>
<path d="M7.87188 8.50224C7.89119 8.53843 7.91745 8.57046 7.94915 8.5965C7.98085 8.62253 8.01737 8.64207 8.05662 8.65399C8.09587 8.6659 8.13709 8.66997 8.17791 8.66595C8.21874 8.66193 8.25837 8.64991 8.29455 8.63057L10.2367 7.59313C10.273 7.57386 10.3051 7.54762 10.3312 7.51593C10.3573 7.48423 10.3769 7.44769 10.3889 7.4084C10.4009 7.36912 10.405 7.32785 10.401 7.28697C10.3971 7.24609 10.3851 7.2064 10.3657 7.17016C10.3464 7.13393 10.3201 7.10186 10.2883 7.0758C10.2566 7.04974 10.22 7.0302 10.1807 7.01829C10.1414 7.00639 10.1001 7.00235 10.0592 7.00642C10.0184 7.01048 9.97869 7.02256 9.9425 7.04198L8.00036 8.07942C7.96414 8.09872 7.93207 8.12498 7.90601 8.15668C7.87994 8.18839 7.86038 8.22492 7.84845 8.26419C7.83652 8.30347 7.83244 8.3447 7.83646 8.38555C7.84048 8.4264 7.85252 8.46605 7.87188 8.50224Z" fill="#043752"/>
<path d="M7.42731 7.62332C7.45868 7.64976 7.49495 7.66975 7.53405 7.68216C7.57315 7.69456 7.61431 7.69914 7.65519 7.69562C7.69606 7.69211 7.73583 7.68057 7.77224 7.66167C7.80865 7.64278 7.84098 7.61689 7.86737 7.58548L8.82196 6.45159C8.84848 6.42022 8.86854 6.38393 8.88102 6.3448C8.89349 6.30567 8.89813 6.26446 8.89466 6.22353C8.89119 6.18261 8.87968 6.14277 8.8608 6.10629C8.84192 6.06982 8.81603 6.03742 8.78462 6.01097C8.7532 5.98451 8.71688 5.9645 8.67773 5.95209C8.63857 5.93969 8.59736 5.93512 8.55644 5.93866C8.51552 5.9422 8.4757 5.95377 8.43925 5.97272C8.40281 5.99166 8.37046 6.01761 8.34406 6.04907L7.38947 7.18295C7.363 7.21433 7.34298 7.25063 7.33056 7.28976C7.31813 7.32888 7.31355 7.37008 7.31706 7.41098C7.32058 7.45189 7.33213 7.49169 7.35104 7.52813C7.36996 7.56457 7.39588 7.59692 7.42731 7.62332Z" fill="#043752"/>
<path d="M10.1048 8.85252L8.63142 9.01533C8.59057 9.01976 8.551 9.03219 8.51496 9.05193C8.47892 9.07166 8.44713 9.09831 8.4214 9.13035C8.39567 9.16238 8.37651 9.19917 8.36502 9.23862C8.35352 9.27807 8.34992 9.31939 8.35441 9.36024C8.35891 9.40108 8.37141 9.44063 8.39121 9.47664C8.411 9.51264 8.4377 9.54439 8.46978 9.57006C8.50186 9.59574 8.53868 9.61484 8.57815 9.62627C8.61761 9.63769 8.65895 9.64123 8.69978 9.63667L10.1732 9.47386C10.214 9.46943 10.2536 9.45699 10.2896 9.43726C10.3257 9.41752 10.3575 9.39088 10.3832 9.35884C10.4089 9.32681 10.4281 9.29001 10.4396 9.25056C10.4511 9.21112 10.4547 9.16979 10.4502 9.12895C10.4457 9.08811 10.4332 9.04855 10.4134 9.01255C10.3936 8.97654 10.3669 8.9448 10.3348 8.91912C10.3027 8.89345 10.2659 8.87435 10.2264 8.86292C10.187 8.85149 10.1456 8.84796 10.1048 8.85252Z" fill="#043752"/>
</svg>
