<svg width="38" height="39" viewBox="0 0 38 39" fill="none" xmlns="http://www.w3.org/2000/svg">
<g clip-path="url(#clip0_88_2690)">
<path fill-rule="evenodd" clip-rule="evenodd" d="M29.643 31.3465V3.43559C29.643 1.83598 28.3679 0.527344 26.8094 0.527344C20.0624 0.527344 13.3155 0.527344 6.56866 0.527344C5.14737 0.527344 3.96203 1.61553 3.76416 3.02014H23.7058C25.2644 3.02014 26.5394 4.32901 26.5394 5.92823V33.4889V35.5652C26.5394 35.7061 26.5296 35.8447 26.5103 35.9805H26.8094C28.368 35.9805 29.643 34.6718 29.643 33.0722V31.3465Z" fill="#ECEFF1"/>
<path fill-rule="evenodd" clip-rule="evenodd" d="M26.5394 33.4883V35.5646C26.5394 37.1639 25.2642 38.4727 23.7057 38.4727H3.46495C1.90635 38.4727 0.631348 37.164 0.631348 35.5646V5.92762C0.631348 4.32824 1.90635 3.01953 3.46495 3.01953H23.7057C25.2643 3.01953 26.5394 4.32839 26.5394 5.92762V33.4883Z" fill="#ECEFF1"/>
<path fill-rule="evenodd" clip-rule="evenodd" d="M19.417 7.07553L22.6942 9.34286V3.01953H15.8467V9.39146H16.0699L19.417 7.07553Z" fill="#FFB954"/>
<path fill-rule="evenodd" clip-rule="evenodd" d="M19.1832 18.7692L20.8085 19.3074C21.1878 19.433 21.3982 19.8543 21.2756 20.2435L19.1662 26.9537C19.0438 27.343 18.6333 27.5587 18.254 27.4331L16.6287 26.8949C16.2494 26.7692 16.0392 26.348 16.1616 25.9587L18.271 19.2485C18.3934 18.8593 18.8038 18.6436 19.1832 18.7692Z" fill="#929BA0"/>
<path fill-rule="evenodd" clip-rule="evenodd" d="M21.6764 28.3039C22.163 27.3702 21.2288 26.793 21.2282 26.7861C20.6982 26.4952 20.0327 26.7022 19.7494 27.246L19.0699 28.5497C18.7943 29.0785 18.985 29.794 19.5181 30.0675C20.0476 30.3583 20.7125 30.1517 20.9964 29.6088" fill="#F2C07E"/>
<path fill-rule="evenodd" clip-rule="evenodd" d="M21.5199 28.6045L20.595 30.379C20.3195 30.9078 20.5102 31.6233 21.0433 31.8968C21.5732 32.1877 22.2387 31.9807 22.5221 31.4368L23.4469 29.6622C23.7303 29.1184 23.5287 28.4354 22.9987 28.1445C22.4688 27.8536 21.8034 28.0605 21.5199 28.6045Z" fill="#F2C07E"/>
<path fill-rule="evenodd" clip-rule="evenodd" d="M23.2993 29.9454L22.7019 31.0915C22.4264 31.6203 22.617 32.3358 23.1501 32.6093C23.68 32.9002 24.3455 32.6932 24.629 32.1493L25.2263 31.0032C25.5097 30.4593 25.3081 29.7763 24.7781 29.4854C24.2482 29.1944 23.5828 29.4014 23.2993 29.9454Z" fill="#F2C07E"/>
<path fill-rule="evenodd" clip-rule="evenodd" d="M24.9278 31.5757L24.663 32.0837C24.0912 33.1809 25.7981 34.6613 26.59 33.1415L26.7832 32.7707C27.1659 32.0364 27.2578 31.492 26.4435 31.045C25.9135 30.7542 25.2112 31.0318 24.9278 31.5757Z" fill="#F2C07E"/>
<path fill-rule="evenodd" clip-rule="evenodd" d="M24.7781 29.4852C25.308 29.7761 25.5097 30.4591 25.2262 31.003L24.9276 31.5761C25.2111 31.0322 25.9134 30.7545 26.4434 31.0455C27.2576 31.4925 27.1658 32.0369 26.783 32.7712C26.8301 32.7779 27.0717 32.9145 27.277 33.023C28.3085 33.5681 29.1735 32.0491 28.1391 31.3122C28.0933 31.2796 28.0438 31.2485 27.9903 31.2192L28.4173 31.4536C28.9653 31.7545 29.6536 31.5404 29.9466 30.9779C30.2398 30.4156 30.0312 29.7091 29.4832 29.4085L30.37 29.8953C30.924 30.1994 31.6198 29.983 31.9161 29.4143C32.1982 28.8731 32.0208 28.2002 31.5254 27.8744C31.5002 27.8579 31.4743 27.8422 31.4476 27.8276L32.2906 28.2904C33.401 28.9 34.0033 27.5863 33.5898 26.7131C33.5674 26.666 33.5421 26.6201 33.5137 26.5757C32.9245 25.6567 30.3396 24.5795 29.3398 23.9851C27.6926 22.6475 25.3177 26.1062 23.4666 23.5515C23.6471 23.1 24.5405 22.2786 25.3373 21.4523C25.6753 21.1019 25.997 20.8242 26.3046 20.6058C26.3157 20.5978 26.3268 20.5899 26.338 20.5821C24.2189 19.1147 22.9371 20.5134 21.304 20.1662L20.5333 22.6048L19.518 25.8346C19.3576 26.4551 19.3692 27.0851 19.5297 27.6672L19.7492 27.2459C20.0326 26.7019 20.6981 26.4949 21.228 26.7859C21.2287 26.7928 22.1629 27.37 21.6763 28.3037L21.5198 28.604C21.8032 28.0601 22.4687 27.8531 22.9987 28.144C23.5286 28.4349 23.7302 29.118 23.4468 29.6618L23.2992 29.9451C23.5828 29.4012 24.2481 29.1943 24.7781 29.4852Z" fill="#F2C07E"/>
<path fill-rule="evenodd" clip-rule="evenodd" d="M29.3401 23.9855C30.34 24.5799 32.9247 25.6571 33.5139 26.5761C33.5424 26.6205 33.5677 26.6664 33.5901 26.7136C33.5901 26.7144 34.1599 26.5033 34.2281 26.4786L32.0878 20.5643C30.6817 21.5703 29.1023 18.6506 26.3382 20.5826C26.0207 20.8046 25.6877 21.0896 25.3375 21.4527C24.5407 22.2791 23.6473 23.1004 23.4668 23.552C25.318 26.1065 27.6928 22.6479 29.3401 23.9855Z" fill="#F2C07E"/>
<path fill-rule="evenodd" clip-rule="evenodd" d="M36.8962 26.6812L35.2952 27.2915C34.9216 27.434 34.5024 27.2367 34.3636 26.8532L31.9716 20.2436C31.8329 19.8601 32.0251 19.4299 32.3987 19.2875L33.9997 18.6772C34.3733 18.5347 34.7925 18.732 34.9313 19.1155L37.3233 25.7251C37.462 26.1086 37.2698 26.5389 36.8962 26.6812Z" fill="#929BA0"/>
<path fill-rule="evenodd" clip-rule="evenodd" d="M5.38038 14.0797C5.38038 13.7886 5.61031 13.5527 5.8939 13.5527L21.2766 13.5527C21.5601 13.5527 21.7901 13.7886 21.7901 14.0798C21.7901 14.3709 21.5601 14.6068 21.2766 14.6068L5.89375 14.6067C5.61023 14.6066 5.38038 14.3709 5.38038 14.0797ZM13.7803 17.9972H5.89382C5.61016 17.9972 5.38031 18.2331 5.38031 18.5242C5.38031 18.8154 5.61023 19.0513 5.89382 19.0513L13.7804 19.0512C14.064 19.0512 14.2939 18.8153 14.2939 18.5242C14.2939 18.233 14.064 17.9972 13.7803 17.9972ZM13.7803 22.4415H5.89382C5.61016 22.4415 5.38031 22.6776 5.38031 22.9686C5.38031 23.2595 5.61023 23.4956 5.89382 23.4956H13.7804C14.064 23.4956 14.2939 23.2595 14.2939 22.9686C14.2939 22.6776 14.064 22.4415 13.7803 22.4415ZM13.7803 26.886H5.89382C5.61016 26.886 5.38031 27.1221 5.38031 27.413C5.38031 27.704 5.61023 27.9401 5.89382 27.9401L13.7804 27.94C14.064 27.94 14.2939 27.7039 14.2939 27.413C14.2939 27.1221 14.064 26.886 13.7803 26.886ZM37.7684 26.5127C37.9066 26.2039 37.9192 25.8585 37.8046 25.5411L35.4126 18.9318C35.2976 18.6145 35.0685 18.3615 34.7677 18.2199C34.4669 18.078 34.1305 18.0653 33.8209 18.1828L32.2197 18.793C31.9105 18.9108 31.6641 19.146 31.5261 19.455C31.4131 19.7076 31.3888 19.9838 31.4447 20.2501C31.1897 20.2607 30.8676 20.141 30.3576 19.9221C30.292 19.894 30.225 19.8651 30.1563 19.8361V3.43535C30.1563 1.54119 28.6549 0 26.8092 0H6.56862C5.06666 0 3.75632 1.04752 3.35213 2.49859C1.55893 2.56029 0.117676 4.07291 0.117676 5.92808V35.5646C0.117676 37.459 1.6192 39 3.46479 39H23.7055C25.2345 39 26.5244 37.9411 26.9231 36.5014C28.7159 36.439 30.1565 34.9265 30.1565 33.0716V31.5672C30.2489 31.4639 30.3333 31.3528 30.3992 31.2264C30.5132 31.0074 30.5777 30.7704 30.5908 30.5292C31.2869 30.6682 32.0179 30.3357 32.369 29.6625C32.4885 29.434 32.5508 29.1896 32.5625 28.9467C33.0337 29.0408 33.475 28.8969 33.8023 28.5289C34.0408 28.2606 34.1774 27.9043 34.2167 27.5323C34.3092 27.6176 34.4108 27.6934 34.5273 27.7482C34.6924 27.8261 34.8679 27.865 35.0437 27.865C35.1889 27.865 35.3343 27.8385 35.474 27.7853L37.0748 27.1749C37.3839 27.0569 37.6304 26.8219 37.7684 26.5127ZM29.9612 20.8945C30.4219 21.0924 30.9204 21.3066 31.4263 21.3065C31.5478 21.3065 31.6699 21.289 31.7919 21.2612L33.4003 25.7052C32.7787 25.1871 31.8139 24.675 30.6681 24.0944C30.2656 23.8902 29.8848 23.6974 29.6264 23.5461C28.6857 22.8107 27.624 23.2218 26.685 23.5845C25.5327 24.0296 24.8013 24.258 24.0995 23.5073C24.3369 23.2045 24.7776 22.76 25.1497 22.3851C25.3326 22.2008 25.5198 22.0118 25.7023 21.8227C26.0054 21.5084 26.3086 21.2441 26.6034 21.0349C27.9943 20.0497 28.9942 20.4793 29.9612 20.8945ZM4.43988 2.4928H23.7054C25.5512 2.4928 27.0526 4.03383 27.0526 5.92808V19.6068C27.8311 19.3116 28.5219 19.3382 29.1294 19.4835L29.1293 3.43535C29.1293 2.12238 28.0887 1.05414 26.8092 1.05414H6.56862C5.63161 1.05414 4.80095 1.64181 4.43988 2.4928ZM16.36 8.55547V3.54679H22.1805V8.35232L19.7039 6.63899C19.5301 6.51879 19.3034 6.51879 19.1297 6.63899L16.36 8.55547ZM26.0255 35.5646V34.2754C25.918 34.3025 25.8095 34.3178 25.7016 34.3178C25.4506 34.3178 25.2034 34.2485 24.9838 34.1277C24.6232 33.9301 24.3228 33.5867 24.162 33.1862C24.1516 33.1895 24.1412 33.193 24.1306 33.1962C23.7194 33.3237 23.2851 33.2806 22.9077 33.0733C22.6273 32.9296 22.3969 32.6928 22.2475 32.3952C22.1756 32.43 22.1011 32.4595 22.0238 32.4835C21.6126 32.6112 21.1781 32.568 20.801 32.3607C20.4411 32.1764 20.1643 31.8392 20.0336 31.4175C19.9638 31.1917 19.9413 30.955 19.9651 30.7251C19.7311 30.7151 19.4957 30.6522 19.2757 30.5314C18.9164 30.3477 18.6395 30.0103 18.5088 29.5887C18.3753 29.158 18.4147 28.6886 18.6169 28.3006L18.8016 27.9463C18.6949 27.9765 18.5863 27.9958 18.4764 27.9958C18.3489 27.9958 18.2206 27.9753 18.0959 27.9338L16.471 27.3961C15.8215 27.181 15.4634 26.4633 15.6729 25.7965L17.7823 19.0864C17.8836 18.764 18.1018 18.5013 18.3967 18.3461C18.6915 18.1914 19.0271 18.1634 19.341 18.2671L20.9665 18.8052C21.3834 18.9434 21.6776 19.2892 21.7813 19.6949C22.1582 19.7085 22.5343 19.6322 22.953 19.5468C23.8298 19.3681 24.8085 19.1699 26.0257 19.7869V5.928C26.0257 4.6151 24.985 3.54679 23.7056 3.54679H23.2079V9.34324C23.2079 9.53817 23.1033 9.71702 22.9354 9.80842C22.7675 9.90006 22.565 9.88894 22.4072 9.78001L19.4171 7.71141L16.357 9.82861C16.2722 9.88711 16.1723 9.91864 16.07 9.91864H15.8466C15.563 9.91864 15.3331 9.68274 15.3331 9.39161L15.3332 3.54671H3.46479C2.18563 3.54671 1.14464 4.6151 1.14464 5.92792V35.5646C1.14464 36.8778 2.18563 37.9459 3.46479 37.9459H23.7055C24.9849 37.9459 26.0255 36.8778 26.0255 35.5646ZM27.5449 31.5825L27.8403 31.7453C28.1919 31.9937 28.0837 32.2943 28.0368 32.3861C27.995 32.468 27.8312 32.7226 27.5119 32.5538L27.4597 32.526C27.5581 32.2502 27.6232 31.9175 27.5449 31.5825ZM27.0367 33.4884H26.9842C26.9883 33.4812 26.9927 33.4743 26.9968 33.467L27.0367 33.4884ZM25.381 31.823C25.4589 31.6744 25.5987 31.5543 25.7647 31.4939C25.8558 31.461 26.0345 31.4181 26.201 31.5096C26.5888 31.7228 26.6941 31.8233 26.3301 32.5226C26.3298 32.5229 26.3297 32.5233 26.3297 32.5236L26.1372 32.8931C25.8647 33.4156 25.5659 33.2524 25.4683 33.1981C25.2072 33.0552 24.9467 32.6565 25.1155 32.3321L25.3803 31.824L25.381 31.823ZM24.5356 29.9493C24.8173 30.1039 24.924 30.4649 24.7733 30.7545L24.4748 31.3274C24.4744 31.3274 24.4744 31.3274 24.4744 31.3274C24.474 31.3283 24.4737 31.3293 24.4732 31.3302L24.2117 31.8322C24.2112 31.8329 24.2109 31.8333 24.2106 31.8339L24.176 31.9005C24.1034 32.0394 23.9813 32.1413 23.8326 32.1876C23.684 32.2338 23.5272 32.2183 23.3793 32.1374C23.2148 32.053 23.146 31.8969 23.1193 31.8111C23.0695 31.6505 23.0821 31.4785 23.1544 31.3399V31.3395L23.7509 30.1949C23.7512 30.1945 23.7515 30.194 23.7518 30.1936C23.9028 29.9043 24.2551 29.7955 24.5356 29.9493ZM23.0361 28.9607C23.0812 29.1136 23.0663 29.274 22.9935 29.4131L22.8461 29.6965C22.8459 29.6969 22.8458 29.6974 22.8456 29.6978L22.25 30.8409C22.2497 30.8415 22.2493 30.8418 22.2491 30.8422L22.0693 31.1873C21.9185 31.4756 21.5673 31.5861 21.2726 31.4245C21.1081 31.34 21.039 31.1835 21.0126 31.0978C20.9628 30.9371 20.9754 30.7654 21.0477 30.6264L21.4488 29.8564L21.9715 28.8534C21.9718 28.853 21.9722 28.8525 21.9724 28.8522C22.1232 28.5632 22.4753 28.4535 22.7563 28.6083C22.8917 28.6828 22.9911 28.8077 23.0361 28.9607ZM20.9606 27.2374C21.4591 27.6024 21.2819 27.9424 21.2235 28.0549L21.067 28.3544V28.3548V28.3551L20.5451 29.3564C20.5448 29.3574 20.5439 29.3582 20.5435 29.359C20.3927 29.6478 20.0409 29.7571 19.7477 29.5955C19.5829 29.5111 19.514 29.3546 19.4874 29.2691C19.4376 29.1082 19.4502 28.9364 19.5225 28.7978L19.982 27.9159C19.982 27.9158 19.982 27.9157 19.9821 27.9156L20.2017 27.4942C20.2742 27.3554 20.3959 27.2534 20.545 27.2071C20.6848 27.1637 20.8315 27.1749 20.9606 27.2374ZM20.7869 20.081L19.1028 25.4388C19.0962 25.4541 19.0883 25.468 19.0832 25.4842C19.0685 25.5308 19.0573 25.5781 19.0442 25.625L18.6774 26.7918C18.6546 26.8649 18.6017 26.902 18.5725 26.9174C18.5432 26.9324 18.4833 26.955 18.4116 26.931L16.7862 26.3931C16.6775 26.3571 16.6152 26.2321 16.6503 26.1202L18.7598 19.4101C18.7826 19.3368 18.8355 19.3 18.8647 19.2845C18.8849 19.2738 18.9196 19.2599 18.9623 19.2599C18.9818 19.2599 19.003 19.2628 19.0254 19.2703L20.6507 19.8084C20.7597 19.8445 20.8219 19.9694 20.7869 20.081ZM29.1293 33.0717C29.1293 34.3003 28.218 35.3145 27.0525 35.44V33.4963C27.2684 33.608 27.4934 33.6623 27.7126 33.6623C28.216 33.6623 28.6884 33.3806 28.9462 32.8762C29.0655 32.6432 29.1271 32.3769 29.1181 32.1079C29.1218 32.1074 29.1256 32.106 29.1294 32.1056V33.0717H29.1293ZM33.0848 26.8654C33.2783 27.1665 33.2224 27.6173 33.0442 27.8181C32.997 27.8714 32.8717 28.0104 32.5333 27.8254L31.6903 27.3625C31.682 27.358 31.6734 27.3558 31.665 27.3518L28.952 25.8405C28.7024 25.7025 28.3909 25.7966 28.2556 26.0522C28.1201 26.3081 28.2127 26.6279 28.4618 26.7669L31.2344 28.3112C31.5176 28.4877 31.6221 28.8624 31.4643 29.1652C31.3008 29.4791 30.919 29.5976 30.6127 29.4305L29.7767 28.9713C29.7609 28.9601 29.7462 28.9479 29.729 28.9383L27.71 27.8304C27.4613 27.6924 27.1486 27.7895 27.0153 28.0465C26.8816 28.3032 26.9759 28.6226 27.226 28.7595L29.1935 29.8392C29.2095 29.8505 29.2244 29.8629 29.2419 29.8726L29.2432 29.8732C29.3862 29.9525 29.4915 30.0853 29.5397 30.2472C29.5875 30.41 29.5715 30.5808 29.4943 30.729C29.4173 30.8768 29.2876 30.9853 29.1295 31.0347C28.9707 31.0835 28.8046 31.0674 28.6601 30.9885L28.2349 30.7547C28.2343 30.7543 28.234 30.754 28.2333 30.754C28.2053 30.7386 28.1764 30.727 28.1472 30.7173L26.4437 29.7786C26.2111 29.6517 25.9279 29.7267 25.781 29.9436C25.6544 29.5614 25.3944 29.2249 25.0208 29.0197C24.7162 28.8529 24.3819 28.7966 24.0633 28.8387C24.0523 28.7771 24.0379 28.7157 24.0198 28.6549C23.8954 28.2329 23.619 27.886 23.2419 27.679C22.9423 27.5148 22.6147 27.4582 22.3011 27.4953C22.2218 27.0687 21.9618 26.6701 21.5378 26.3648C21.5167 26.3485 21.4946 26.3338 21.4712 26.3211C21.0938 26.1139 20.6595 26.0692 20.248 26.1983C20.1416 26.2313 20.04 26.2748 19.9447 26.3277C19.9627 26.1935 19.9926 26.0601 20.0287 25.9277L21.6588 20.7424C22.1899 20.7754 22.678 20.6778 23.1537 20.5808C23.9095 20.4267 24.5814 20.2895 25.4126 20.6552C25.2658 20.7877 25.1187 20.9297 24.9726 21.0814C24.7938 21.2667 24.6098 21.452 24.4306 21.6329C23.65 22.4195 23.1629 22.9235 22.992 23.3511C22.9238 23.522 22.9475 23.7172 23.0548 23.8658C24.3269 25.6209 25.8997 25.0145 27.0477 24.571C27.9657 24.2155 28.5524 24.0175 29.0218 24.3984C29.0412 24.4138 29.0616 24.4283 29.083 24.441C29.3708 24.6123 29.7612 24.8102 30.2136 25.0394C31.2169 25.5478 32.7331 26.3167 33.0848 26.8654ZM36.8417 25.9081C36.8677 25.9801 36.8487 26.0426 36.835 26.0734C36.8214 26.1043 36.7876 26.1599 36.717 26.1865L35.1164 26.797C35.0461 26.8233 34.9849 26.8038 34.9552 26.7901C34.9251 26.7761 34.8709 26.7414 34.8448 26.669L32.4528 20.0596C32.4268 19.9875 32.4457 19.925 32.4595 19.8942C32.473 19.8633 32.5069 19.8077 32.5775 19.7809L34.1784 19.1706C34.2038 19.161 34.2279 19.1574 34.25 19.1574C34.2884 19.1574 34.3203 19.1687 34.3393 19.1777C34.3694 19.1917 34.4236 19.2263 34.4496 19.2986L36.8417 25.9081Z" fill="black"/>
</g>
<defs>
<clipPath id="clip0_88_2690">
<rect width="38" height="39" fill="white"/>
</clipPath>
</defs>
</svg>
