<svg width="20" height="21" viewBox="0 0 20 21" fill="none" xmlns="http://www.w3.org/2000/svg">
<path d="M2.99997 14.3359H0.999989C0.447964 14.3365 0.000585931 14.7839 0 15.3359V19.6692C0 19.8533 0.149217 20.0025 0.333317 20.0025H3.6666C3.8507 20.0025 3.99992 19.8533 3.99992 19.6692V15.3359C3.99933 14.7839 3.55199 14.3366 2.99997 14.3359ZM3.33328 19.3359H0.666633V15.3359C0.666868 15.1519 0.815968 15.0028 0.99995 15.0026H2.99993C3.18391 15.0028 3.33301 15.1519 3.33324 15.3359V19.3359H3.33328Z" fill="#043752"/>
<path d="M8.33346 9.66895H6.33349C5.78146 9.66953 5.33408 10.1169 5.3335 10.6689V19.6688C5.3335 19.8529 5.48271 20.0022 5.66681 20.0022H9.0001C9.1842 20.0022 9.33341 19.8529 9.33341 19.6688V10.6689C9.33283 10.1169 8.88549 9.66953 8.33346 9.66895ZM8.66678 19.3355H6.00013V10.6689C6.00036 10.485 6.14946 10.3359 6.33345 10.3356H8.33342C8.51741 10.3359 8.66651 10.485 8.66674 10.6689V19.3355H8.66678Z" fill="#043752"/>
<path d="M13.6665 11.6689H11.6665C11.1145 11.6695 10.6671 12.1169 10.6665 12.6689V19.6689C10.6665 19.853 10.8157 20.0022 10.9998 20.0022H14.3331C14.5172 20.0022 14.6664 19.853 14.6664 19.6689V12.6689C14.6659 12.1169 14.2185 11.6695 13.6665 11.6689ZM13.9998 19.3355H11.3332V12.6689C11.3334 12.485 11.4825 12.3359 11.6665 12.3356H13.6665C13.8505 12.3359 13.9996 12.485 13.9998 12.6689V19.3355H13.9998Z" fill="#043752"/>
<path d="M19 9.00293H17C16.448 9.00352 16.0006 9.45089 16 10.0029V19.6695C16 19.8536 16.1492 20.0028 16.3333 20.0028H19.6666C19.8507 20.0028 19.9999 19.8536 19.9999 19.6695V10.0029C19.9993 9.45089 19.552 9.00352 19 9.00293ZM19.3333 19.3361H16.6666V10.0029C16.6669 9.81894 16.816 9.66984 16.9999 9.6696H18.9999C19.1839 9.66984 19.333 9.81894 19.3332 10.0029V19.3361H19.3333Z" fill="#043752"/>
<path d="M16.5069 3.99566C17.1175 4.683 18.1183 4.86511 18.9319 4.43691C19.7456 4.00871 20.1621 3.08067 19.9413 2.18814C19.7205 1.29561 18.9193 0.668902 17.9998 0.669449C17.3324 0.668941 16.7087 1.00167 16.3375 1.55639C15.9662 2.11111 15.8965 2.81454 16.1515 3.43137L14.1596 4.67648C13.8012 4.27019 13.2926 4.02754 12.7513 4.00449C12.2101 3.98144 11.6828 4.18007 11.2912 4.55445L9.10948 2.91817C9.57072 2.02604 9.29869 0.930188 8.47378 0.357304C7.64887 -0.21558 6.527 -0.0877693 5.85213 0.656012C5.17725 1.39979 5.15874 2.52876 5.80885 3.29426L3.01427 6.61524C2.11818 6.08798 0.967533 6.33529 0.367188 7.18414C-0.233157 8.033 -0.083002 9.20029 0.712692 9.86954C1.50839 10.5388 2.68412 10.4868 3.41758 9.74986C4.15105 9.01295 4.19754 7.83695 3.52454 7.04442L6.31912 3.72344C7.08641 4.17988 8.06398 4.0684 8.70882 3.4509L10.8905 5.08717C10.4659 5.90963 10.6613 6.91602 11.3628 7.51984C12.0643 8.12366 13.0886 8.16702 13.8387 7.62468C14.5887 7.08235 14.8686 6.09611 14.515 5.24069L16.5069 3.99566ZM17.9998 1.33612C18.7362 1.33612 19.3332 1.93307 19.3332 2.66943C19.3323 3.40543 18.7359 4.00191 17.9998 4.00273C17.2635 4.00273 16.6665 3.40579 16.6665 2.66943C16.6665 1.93307 17.2634 1.33612 17.9998 1.33612ZM2.00002 9.66939C1.26366 9.66939 0.666716 9.07244 0.666716 8.33608C0.666716 7.59972 1.26366 7.00278 2.00002 7.00278C2.73638 7.00278 3.33333 7.59972 3.33333 8.33608C3.33247 9.07209 2.73603 9.66853 2.00002 9.66939ZM7.33328 3.3361C6.59692 3.3361 5.99998 2.73915 5.99998 2.00279C5.99998 1.26643 6.59692 0.669488 7.33328 0.669488C8.06964 0.669488 8.66659 1.26643 8.66659 2.00279C8.66577 2.7388 8.06929 3.33528 7.33328 3.3361ZM12.6665 7.33605C11.9302 7.33605 11.3332 6.73911 11.3332 6.00275C11.3332 5.26639 11.9302 4.66944 12.6665 4.66944C13.4029 4.66944 13.9999 5.26639 13.9999 6.00275C13.999 6.73876 13.4026 7.33523 12.6665 7.33605Z" fill="#043752"/>
</svg>
