<svg width="14" height="16" viewBox="0 0 14 16" fill="none" xmlns="http://www.w3.org/2000/svg">
<path d="M13.1175 4.23541C13.1175 3.86099 12.9687 3.5019 12.704 3.23714C12.4392 2.97238 12.0801 2.82364 11.7057 2.82364H9.35278C9.35278 2.19961 9.10488 1.60113 8.66362 1.15986C8.22236 0.718602 7.62388 0.470703 6.99984 0.470703C6.3758 0.470703 5.77732 0.718602 5.33606 1.15986C4.89479 1.60113 4.6469 2.19961 4.6469 2.82364H2.29395C1.96133 2.82301 1.63922 2.94012 1.38466 3.15423C1.13011 3.36834 0.959549 3.66563 0.903184 3.99344C0.84682 4.32126 0.908292 4.65844 1.07671 4.94528C1.24513 5.23211 1.50963 5.45008 1.82337 5.56059V13.3008C1.82399 13.8916 2.05893 14.4581 2.47666 14.8759C2.89439 15.2937 3.46078 15.5288 4.0516 15.5295H9.94807C10.5389 15.5288 11.1053 15.2937 11.523 14.8759C11.9407 14.4581 12.1757 13.8916 12.1763 13.3008V5.56059C12.4506 5.4636 12.6883 5.28424 12.8567 5.04703C13.0252 4.80982 13.1163 4.52635 13.1175 4.23541ZM6.99984 1.41188C7.37426 1.41188 7.73335 1.56062 7.99811 1.82538C8.26286 2.09013 8.4116 2.44922 8.4116 2.82364H5.58807C5.58807 2.44922 5.73681 2.09013 6.00157 1.82538C6.26633 1.56062 6.62541 1.41188 6.99984 1.41188ZM11.2351 13.3008C11.2348 13.6421 11.0991 13.9693 10.8578 14.2107C10.6165 14.452 10.2894 14.5879 9.94807 14.5883H4.0516C3.71032 14.5879 3.38317 14.452 3.1419 14.2107C2.90062 13.9693 2.76492 13.6421 2.76454 13.3008V5.64717H11.2351V13.3008ZM11.7057 4.706H2.29395C2.16915 4.706 2.04945 4.65642 1.9612 4.56816C1.87295 4.47991 1.82337 4.36022 1.82337 4.23541C1.82337 4.1106 1.87295 3.99091 1.9612 3.90265C2.04945 3.8144 2.16915 3.76482 2.29395 3.76482H11.7057C11.8305 3.76482 11.9502 3.8144 12.0385 3.90265C12.1267 3.99091 12.1763 4.1106 12.1763 4.23541C12.1763 4.36022 12.1267 4.47991 12.0385 4.56816C11.9502 4.65642 11.8305 4.706 11.7057 4.706Z" fill="#FF0000"/>
<path d="M6.99989 13.1762C7.12469 13.1762 7.24439 13.1267 7.33264 13.0384C7.42089 12.9502 7.47047 12.8305 7.47047 12.7057V7.52918C7.47047 7.40437 7.42089 7.28468 7.33264 7.19643C7.24439 7.10817 7.12469 7.05859 6.99989 7.05859C6.87508 7.05859 6.75538 7.10817 6.66713 7.19643C6.57888 7.28468 6.5293 7.40437 6.5293 7.52918V12.7057C6.5293 12.8305 6.57888 12.9502 6.66713 13.0384C6.75538 13.1267 6.87508 13.1762 6.99989 13.1762Z" fill="#FF0000"/>
<path d="M8.88221 12.7058C9.00702 12.7058 9.12671 12.6562 9.21497 12.5679C9.30322 12.4797 9.3528 12.36 9.3528 12.2352V7.99989C9.3528 7.87508 9.30322 7.75538 9.21497 7.66713C9.12671 7.57888 9.00702 7.5293 8.88221 7.5293C8.7574 7.5293 8.63771 7.57888 8.54945 7.66713C8.4612 7.75538 8.41162 7.87508 8.41162 7.99989V12.2352C8.41162 12.36 8.4612 12.4797 8.54945 12.5679C8.63771 12.6562 8.7574 12.7058 8.88221 12.7058Z" fill="#FF0000"/>
<path d="M5.11756 12.7058C5.24237 12.7058 5.36206 12.6562 5.45032 12.5679C5.53857 12.4797 5.58815 12.36 5.58815 12.2352V7.99989C5.58815 7.87508 5.53857 7.75538 5.45032 7.66713C5.36206 7.57888 5.24237 7.5293 5.11756 7.5293C4.99275 7.5293 4.87306 7.57888 4.7848 7.66713C4.69655 7.75538 4.64697 7.87508 4.64697 7.99989V12.2352C4.64697 12.36 4.69655 12.4797 4.7848 12.5679C4.87306 12.6562 4.99275 12.7058 5.11756 12.7058Z" fill="#FF0000"/>
</svg>
