<svg width="20" height="20" viewBox="0 0 20 20" fill="none" xmlns="http://www.w3.org/2000/svg">
<path d="M17.1875 19.6875H2.8125C2.72962 19.6875 2.65013 19.6546 2.59153 19.596C2.53292 19.5374 2.5 19.4579 2.5 19.375V8.04375C2.5 7.96087 2.53292 7.88138 2.59153 7.82278C2.65013 7.76417 2.72962 7.73125 2.8125 7.73125C2.89538 7.73125 2.97487 7.76417 3.03347 7.82278C3.09208 7.88138 3.125 7.96087 3.125 8.04375V19.0625H16.875V4.81687L12.9956 0.9375H3.125V2.12812C3.125 2.21101 3.09208 2.29049 3.03347 2.3491C2.97487 2.4077 2.89538 2.44062 2.8125 2.44062C2.72962 2.44062 2.65013 2.4077 2.59153 2.3491C2.53292 2.29049 2.5 2.21101 2.5 2.12812V0.625C2.5 0.54212 2.53292 0.462634 2.59153 0.404029C2.65013 0.345424 2.72962 0.3125 2.8125 0.3125H13.125C13.2079 0.312518 13.2873 0.345453 13.3459 0.404062L17.4084 4.46656C17.467 4.52515 17.5 4.60463 17.5 4.6875V19.375C17.5 19.4579 17.4671 19.5374 17.4085 19.596C17.3499 19.6546 17.2704 19.6875 17.1875 19.6875Z" fill="#043752" fill-opacity="0.7"/>
<path d="M17.1875 4.99993H13.125C13.0421 4.99993 12.9626 4.96701 12.904 4.9084C12.8454 4.8498 12.8125 4.77031 12.8125 4.68743V0.624933C12.8125 0.563136 12.8308 0.502731 12.8652 0.451353C12.8995 0.399975 12.9483 0.359931 13.0054 0.336284C13.0625 0.312637 13.1253 0.306449 13.1859 0.318501C13.2466 0.330553 13.3022 0.360305 13.3459 0.403996L17.4084 4.4665C17.4521 4.5102 17.4819 4.56588 17.4939 4.62649C17.506 4.6871 17.4998 4.74992 17.4761 4.80701C17.4525 4.86411 17.4125 4.91291 17.3611 4.94725C17.3097 4.98159 17.2493 4.99992 17.1875 4.99993ZM13.4375 4.37493H16.4331L13.4375 1.37931V4.37493Z" fill="#043752" fill-opacity="0.7"/>
<path d="M14.375 6.875H7.5C7.41712 6.875 7.33763 6.84208 7.27903 6.78347C7.22042 6.72487 7.1875 6.64538 7.1875 6.5625C7.1875 6.47962 7.22042 6.40013 7.27903 6.34153C7.33763 6.28292 7.41712 6.25 7.5 6.25H14.375C14.4579 6.25 14.5374 6.28292 14.596 6.34153C14.6546 6.40013 14.6875 6.47962 14.6875 6.5625C14.6875 6.64538 14.6546 6.72487 14.596 6.78347C14.5374 6.84208 14.4579 6.875 14.375 6.875Z" fill="#043752" fill-opacity="0.7"/>
<path d="M14.0625 9.0625H5.9375C5.85462 9.0625 5.77513 9.02958 5.71653 8.97097C5.65792 8.91237 5.625 8.83288 5.625 8.75C5.625 8.66712 5.65792 8.58763 5.71653 8.52903C5.77513 8.47042 5.85462 8.4375 5.9375 8.4375H14.0625C14.1454 8.4375 14.2249 8.47042 14.2835 8.52903C14.3421 8.58763 14.375 8.66712 14.375 8.75C14.375 8.83288 14.3421 8.91237 14.2835 8.97097C14.2249 9.02958 14.1454 9.0625 14.0625 9.0625Z" fill="#043752" fill-opacity="0.7"/>
<path d="M14.0625 11.25H5.9375C5.85462 11.25 5.77513 11.2171 5.71653 11.1585C5.65792 11.0999 5.625 11.0204 5.625 10.9375C5.625 10.8546 5.65792 10.7751 5.71653 10.7165C5.77513 10.6579 5.85462 10.625 5.9375 10.625H14.0625C14.1454 10.625 14.2249 10.6579 14.2835 10.7165C14.3421 10.7751 14.375 10.8546 14.375 10.9375C14.375 11.0204 14.3421 11.0999 14.2835 11.1585C14.2249 11.2171 14.1454 11.25 14.0625 11.25Z" fill="#043752" fill-opacity="0.7"/>
<path d="M14.0625 13.4375H5.9375C5.85462 13.4375 5.77513 13.4046 5.71653 13.346C5.65792 13.2874 5.625 13.2079 5.625 13.125C5.625 13.0421 5.65792 12.9626 5.71653 12.904C5.77513 12.8454 5.85462 12.8125 5.9375 12.8125H14.0625C14.1454 12.8125 14.2249 12.8454 14.2835 12.904C14.3421 12.9626 14.375 13.0421 14.375 13.125C14.375 13.2079 14.3421 13.2874 14.2835 13.346C14.2249 13.4046 14.1454 13.4375 14.0625 13.4375Z" fill="#043752" fill-opacity="0.7"/>
<path d="M14.0625 15.625H5.9375C5.85462 15.625 5.77513 15.5921 5.71653 15.5335C5.65792 15.4749 5.625 15.3954 5.625 15.3125C5.625 15.2296 5.65792 15.1501 5.71653 15.0915C5.77513 15.0329 5.85462 15 5.9375 15H14.0625C14.1454 15 14.2249 15.0329 14.2835 15.0915C14.3421 15.1501 14.375 15.2296 14.375 15.3125C14.375 15.3954 14.3421 15.4749 14.2835 15.5335C14.2249 15.5921 14.1454 15.625 14.0625 15.625Z" fill="#043752" fill-opacity="0.7"/>
<path d="M3.28125 8.4375C2.82559 8.43692 2.38875 8.25565 2.06655 7.93345C1.74435 7.61125 1.56308 7.17441 1.5625 6.71875V3.75C1.5625 3.16984 1.79297 2.61344 2.2032 2.2032C2.61344 1.79297 3.16984 1.5625 3.75 1.5625C4.33016 1.5625 4.88656 1.79297 5.2968 2.2032C5.70703 2.61344 5.9375 3.16984 5.9375 3.75V6.25C5.9375 6.33288 5.90458 6.41237 5.84597 6.47097C5.78737 6.52958 5.70788 6.5625 5.625 6.5625C5.54212 6.5625 5.46263 6.52958 5.40403 6.47097C5.34542 6.41237 5.3125 6.33288 5.3125 6.25V3.75C5.3125 3.3356 5.14788 2.93817 4.85485 2.64515C4.56183 2.35212 4.1644 2.1875 3.75 2.1875C3.3356 2.1875 2.93817 2.35212 2.64515 2.64515C2.35212 2.93817 2.1875 3.3356 2.1875 3.75V6.71875C2.1875 7.00883 2.30273 7.28703 2.50785 7.49215C2.71297 7.69727 2.99117 7.8125 3.28125 7.8125C3.57133 7.8125 3.84953 7.69727 4.05465 7.49215C4.25977 7.28703 4.375 7.00883 4.375 6.71875V4.0625C4.375 3.89674 4.30915 3.73777 4.19194 3.62056C4.07473 3.50335 3.91576 3.4375 3.75 3.4375C3.58424 3.4375 3.42527 3.50335 3.30806 3.62056C3.19085 3.73777 3.125 3.89674 3.125 4.0625V6.25C3.125 6.33288 3.09208 6.41237 3.03347 6.47097C2.97487 6.52958 2.89538 6.5625 2.8125 6.5625C2.72962 6.5625 2.65013 6.52958 2.59153 6.47097C2.53292 6.41237 2.5 6.33288 2.5 6.25V4.0625C2.5 3.73098 2.6317 3.41304 2.86612 3.17862C3.10054 2.9442 3.41848 2.8125 3.75 2.8125C4.08152 2.8125 4.39946 2.9442 4.63388 3.17862C4.8683 3.41304 5 3.73098 5 4.0625V6.71875C4.99942 7.17441 4.81815 7.61125 4.49595 7.93345C4.17375 8.25565 3.73691 8.43692 3.28125 8.4375Z" fill="#043752" fill-opacity="0.7"/>
</svg>
