<svg width="40" height="27" viewBox="0 0 40 27" fill="none" xmlns="http://www.w3.org/2000/svg">
<path d="M1.3 26.6467H9.81H9.994C10.27 26.6467 10.454 26.4627 10.454 26.1867C10.454 25.9107 10.27 25.7267 9.994 25.7267H6.038V14.5487C6.038 14.1347 6.36 13.7667 6.82 13.7667H10.04V17.5387C10.04 17.7687 10.178 17.9527 10.362 18.0907C10.592 18.1827 10.822 18.1367 11.006 17.9987L12.524 16.7107L14.042 17.9987C14.134 18.0907 14.272 18.1367 14.41 18.1367C14.502 18.1367 14.594 18.1367 14.64 18.0907C14.824 17.9987 14.962 17.7687 14.962 17.5387V13.7667H18.918V25.7267H12.432H12.34C12.064 25.7267 11.88 25.9107 11.88 26.1867C11.88 26.4627 12.064 26.6467 12.34 26.6467C13.444 26.6467 38.79 26.6467 37.686 26.6467C37.962 26.6467 38.146 26.4627 38.146 26.1867C38.146 25.9107 37.962 25.7267 37.686 25.7267H37.134C38.422 24.8067 39.25 23.3347 39.25 21.6327C39.25 18.6887 36.674 16.3427 33.684 16.6647V14.5487C33.684 13.6287 32.948 12.8927 31.982 12.8927C31.43 12.8927 34.006 12.8927 26.554 12.8927C26.692 12.6627 26.738 12.3867 26.738 12.1107V1.71469C26.738 0.794695 26.002 0.0126953 25.036 0.0126953C21.034 0.0126953 17.906 0.0126953 13.674 0.0126953C12.754 0.0126953 11.972 0.748695 11.972 1.71469V12.1567C11.972 12.4327 12.064 12.7087 12.156 12.9387H10.5H6.82C5.9 12.9387 5.118 13.6747 5.118 14.6407V25.7267H1.3C1.024 25.7267 0.839996 25.9107 0.839996 26.1867C0.839996 26.4627 1.024 26.6467 1.3 26.6467ZM24.76 13.8127H27.842V16.8487L26.646 15.8367C26.416 15.6527 26.094 15.6527 25.864 15.8367L24.76 16.8027V13.8127ZM38.33 21.6787C38.33 23.8867 36.536 25.7267 34.328 25.7727H34.098C33.684 25.7727 33.27 25.6807 32.856 25.5427C31.2 24.9447 30.096 23.4267 30.096 21.6787C30.096 19.7467 31.43 18.0907 33.27 17.6767C33.546 17.6307 33.868 17.5847 34.19 17.5847C36.49 17.5847 38.33 19.4247 38.33 21.6787ZM32.764 14.5487V16.8487C30.648 17.4927 29.222 19.4247 29.222 21.6327C29.222 23.2887 30.004 24.8067 31.338 25.7267H19.884V13.7667H23.84V17.5387C23.84 17.7687 23.978 17.9527 24.162 18.0907C24.392 18.1827 24.622 18.1367 24.806 17.9987L26.324 16.7107L27.842 17.9987C27.934 18.0907 28.072 18.1367 28.21 18.1367C28.532 18.1367 28.808 17.8607 28.808 17.5387V13.7667H32.028C32.396 13.8127 32.764 14.1347 32.764 14.5487ZM20.988 0.932695V3.9687L19.792 2.9567C19.7 2.8647 19.562 2.8187 19.424 2.8187C19.286 2.8187 19.148 2.8647 19.056 2.9567L17.86 3.9687V0.978695H20.988V0.932695ZM12.984 1.71469C12.984 1.30069 13.306 0.932695 13.766 0.932695H16.986V4.70469C16.986 4.93469 17.124 5.11869 17.308 5.25669C17.538 5.34869 17.768 5.30269 17.952 5.16469L19.47 3.87669L20.988 5.16469C21.172 5.30269 21.402 5.34869 21.632 5.25669C21.862 5.16469 21.954 4.93469 21.954 4.70469V0.932695H25.174C25.588 0.932695 25.956 1.25469 25.956 1.71469V12.1567C25.956 12.5707 25.634 12.9387 25.174 12.9387H13.72C13.306 12.9387 12.938 12.6167 12.938 12.1567V1.71469H12.984ZM14.088 13.8127V16.8487L12.892 15.8367C12.8 15.7447 12.662 15.6987 12.524 15.6987C12.386 15.6987 12.248 15.7447 12.156 15.8367L10.96 16.8027V13.8127H14.088Z" fill="#fff"/>
</svg>
