<svg width="14" height="14" viewBox="0 0 14 14" fill="none" xmlns="http://www.w3.org/2000/svg">
<path d="M12.6875 1.68074L9.43466 1.68075V0.871094C9.43466 0.646641 9.25286 0.464844 9.02841 0.464844C8.80395 0.464844 8.62216 0.646641 8.62216 0.871094V1.68055H5.37216V0.871094C5.37216 0.646641 5.19036 0.464844 4.96591 0.464844C4.74145 0.464844 4.55966 0.646641 4.55966 0.871094V1.68055H1.3125C0.863797 1.68055 0.5 2.04434 0.5 2.49305V12.6493C0.5 13.098 0.863797 13.4618 1.3125 13.4618H12.6875C13.1362 13.4618 13.5 13.098 13.5 12.6493V2.49305C13.5 2.04453 13.1362 1.68074 12.6875 1.68074ZM12.6875 12.6493H1.3125V2.49305H4.55966V2.90234C4.55966 3.12678 4.74145 3.30859 4.96591 3.30859C5.19036 3.30859 5.37216 3.12678 5.37216 2.90234V2.49325H8.62216V2.90255C8.62216 3.127 8.80395 3.3088 9.02841 3.3088C9.25286 3.3088 9.43466 3.127 9.43466 2.90255V2.49325H12.6875V12.6493ZM9.84375 6.96199H10.6562C10.8805 6.96199 11.0625 6.77999 11.0625 6.55574V5.74324C11.0625 5.51899 10.8805 5.33699 10.6562 5.33699H9.84375C9.6195 5.33699 9.4375 5.51899 9.4375 5.74324V6.55574C9.4375 6.77999 9.6195 6.96199 9.84375 6.96199ZM9.84375 10.2118H10.6562C10.8805 10.2118 11.0625 10.03 11.0625 9.80554V8.99304C11.0625 8.76879 10.8805 8.58679 10.6562 8.58679H9.84375C9.6195 8.58679 9.4375 8.76879 9.4375 8.99304V9.80554C9.4375 10.0302 9.6195 10.2118 9.84375 10.2118ZM7.40625 8.58679H6.59375C6.3695 8.58679 6.1875 8.76879 6.1875 8.99304V9.80554C6.1875 10.03 6.3695 10.2118 6.59375 10.2118H7.40625C7.6305 10.2118 7.8125 10.03 7.8125 9.80554V8.99304C7.8125 8.76899 7.6305 8.58679 7.40625 8.58679ZM7.40625 5.33699H6.59375C6.3695 5.33699 6.1875 5.51899 6.1875 5.74324V6.55574C6.1875 6.77999 6.3695 6.96199 6.59375 6.96199H7.40625C7.6305 6.96199 7.8125 6.77999 7.8125 6.55574V5.74324C7.8125 5.51878 7.6305 5.33699 7.40625 5.33699ZM4.15625 5.33699H3.34375C3.1195 5.33699 2.9375 5.51899 2.9375 5.74324V6.55574C2.9375 6.77999 3.1195 6.96199 3.34375 6.96199H4.15625C4.3805 6.96199 4.5625 6.77999 4.5625 6.55574V5.74324C4.5625 5.51878 4.3805 5.33699 4.15625 5.33699ZM4.15625 8.58679H3.34375C3.1195 8.58679 2.9375 8.76879 2.9375 8.99304V9.80554C2.9375 10.03 3.1195 10.2118 3.34375 10.2118H4.15625C4.3805 10.2118 4.5625 10.03 4.5625 9.80554V8.99304C4.5625 8.76899 4.3805 8.58679 4.15625 8.58679Z" fill="#043752" fill-opacity="0.8"/>
</svg>
