<svg width="20" height="20" viewBox="0 0 20 20" fill="none" xmlns="http://www.w3.org/2000/svg">
<path d="M9.99992 14.8381C8.87272 14.8393 7.78039 14.4474 6.91111 13.7298C6.04182 13.0122 5.45002 12.0139 5.23764 10.9069C5.02526 9.79988 5.20561 8.65346 5.74762 7.66512C6.28963 6.67678 7.15936 5.90841 8.20698 5.49238C9.2546 5.07635 10.4145 5.03871 11.4869 5.38594C12.5593 5.73317 13.477 6.44354 14.0819 7.39465C14.6869 8.34577 14.9412 9.47809 14.801 10.5965C14.6609 11.715 14.135 12.7496 13.3141 13.522C12.4182 14.3681 11.2323 14.8391 9.99992 14.8381ZM9.99992 5.80587C8.88812 5.80715 7.82222 6.24938 7.03605 7.03555C6.24989 7.82171 5.80766 8.88762 5.80637 9.99942C5.80637 11.1116 6.24819 12.1783 7.03464 12.9647C7.82108 13.7511 8.88773 14.193 9.99992 14.193C11.1121 14.193 12.1788 13.7511 12.9652 12.9647C13.7517 12.1783 14.1935 11.1116 14.1935 9.99942C14.1922 8.88762 13.75 7.82171 12.9638 7.03555C12.1776 6.24938 11.1117 5.80715 9.99992 5.80587Z" fill="#043752"/>
<path d="M13.0936 13.6106C13.0238 13.6107 12.9559 13.5881 12.9001 13.5462C12.8443 13.5044 12.8035 13.4456 12.7839 13.3787C12.6081 12.7764 12.2418 12.2474 11.7399 11.871C11.2379 11.4946 10.6274 11.2911 10 11.2911C9.37264 11.2911 8.76217 11.4946 8.26022 11.871C7.75827 12.2474 7.39193 12.7764 7.21617 13.3787C7.20428 13.4194 7.18451 13.4573 7.15797 13.4903C7.13142 13.5233 7.09864 13.5508 7.06148 13.5712C7.02432 13.5915 6.98352 13.6044 6.9414 13.6089C6.89928 13.6135 6.85667 13.6098 6.816 13.5979C6.77534 13.586 6.73741 13.5662 6.70438 13.5397C6.67136 13.5132 6.64388 13.4804 6.62353 13.4432C6.60318 13.406 6.59034 13.3652 6.58576 13.3231C6.58117 13.281 6.58493 13.2384 6.59681 13.1977C6.81186 12.4616 7.25978 11.8151 7.87337 11.3551C8.48697 10.8951 9.23317 10.6465 10 10.6465C10.7669 10.6465 11.5131 10.8951 12.1267 11.3551C12.7403 11.8151 13.1882 12.4616 13.4033 13.1977C13.4151 13.2384 13.4189 13.281 13.4143 13.3231C13.4096 13.3652 13.3968 13.406 13.3764 13.4432C13.3561 13.4803 13.3286 13.5131 13.2955 13.5396C13.2625 13.5661 13.2246 13.5859 13.1839 13.5977C13.1546 13.6064 13.1242 13.6107 13.0936 13.6106Z" fill="#043752"/>
<path d="M10 11.2896C9.55341 11.2896 9.11683 11.1571 8.7455 10.909C8.37416 10.6609 8.08474 10.3082 7.91383 9.89563C7.74292 9.48302 7.6982 9.029 7.78533 8.59098C7.87246 8.15295 8.08752 7.75061 8.40332 7.43481C8.71911 7.11901 9.12146 6.90395 9.55948 6.81683C9.9975 6.7297 10.4515 6.77442 10.8641 6.94532C11.2767 7.11623 11.6294 7.40565 11.8775 7.77699C12.1256 8.14833 12.2581 8.5849 12.2581 9.0315C12.2573 9.63014 12.0192 10.204 11.5959 10.6273C11.1726 11.0507 10.5986 11.2888 10 11.2896ZM10 7.4186C9.68101 7.4186 9.36917 7.51319 9.10393 7.69042C8.83869 7.86765 8.63196 8.11955 8.50988 8.41427C8.3878 8.70899 8.35586 9.03329 8.4181 9.34617C8.48033 9.65904 8.63395 9.94643 8.85951 10.172C9.08508 10.3976 9.37247 10.5512 9.68535 10.6134C9.99822 10.6756 10.3225 10.6437 10.6172 10.5216C10.912 10.3996 11.1639 10.1928 11.3411 9.92758C11.5183 9.66234 11.6129 9.35051 11.6129 9.0315C11.6124 8.60389 11.4423 8.19394 11.1399 7.89157C10.8376 7.58921 10.4276 7.41911 10 7.4186Z" fill="#043752"/>
<path d="M10 4.51582C9.91445 4.5158 9.83242 4.4818 9.77194 4.4213L8.15903 2.8084C8.10027 2.74756 8.06776 2.66608 8.06849 2.5815C8.06923 2.49692 8.10315 2.41601 8.16296 2.3562C8.22277 2.29639 8.30368 2.26247 8.38826 2.26173C8.47284 2.261 8.55432 2.29351 8.61516 2.35227L10 3.73711L11.3848 2.35227C11.4457 2.29351 11.5272 2.261 11.6117 2.26173C11.6963 2.26247 11.7772 2.29639 11.837 2.3562C11.8968 2.41601 11.9308 2.49692 11.9315 2.5815C11.9322 2.66608 11.8997 2.74756 11.841 2.8084L10.2281 4.4213C10.1676 4.4818 10.0855 4.5158 10 4.51582Z" fill="#043752"/>
<path d="M9.99995 4.51613C9.9144 4.51613 9.83235 4.48214 9.77185 4.42165C9.71135 4.36115 9.67737 4.2791 9.67737 4.19355V0.322581C9.67737 0.237027 9.71135 0.154977 9.77185 0.0944817C9.83235 0.0339861 9.9144 0 9.99995 0C10.0855 0 10.1676 0.0339861 10.228 0.0944817C10.2885 0.154977 10.3225 0.237027 10.3225 0.322581V4.19355C10.3225 4.2791 10.2885 4.36115 10.228 4.42165C10.1676 4.48214 10.0855 4.51613 9.99995 4.51613Z" fill="#043752"/>
<path d="M11.6129 17.7424C11.5274 17.7424 11.4453 17.7084 11.3848 17.6479L10 16.263L8.61516 17.6479C8.55432 17.7066 8.47284 17.7391 8.38826 17.7384C8.30368 17.7377 8.22277 17.7037 8.16296 17.6439C8.10315 17.5841 8.06923 17.5032 8.06849 17.4186C8.06776 17.334 8.10027 17.2526 8.15903 17.1917L9.77194 15.5788C9.83243 15.5183 9.91446 15.4844 10 15.4844C10.0855 15.4844 10.1676 15.5183 10.2281 15.5788L11.841 17.1917C11.8861 17.2368 11.9168 17.2943 11.9292 17.3569C11.9417 17.4194 11.9353 17.4843 11.9109 17.5432C11.8865 17.6022 11.8451 17.6525 11.7921 17.688C11.739 17.7234 11.6767 17.7424 11.6129 17.7424Z" fill="#043752"/>
<path d="M9.99995 20.0005C9.9144 20.0005 9.83235 19.9665 9.77185 19.906C9.71135 19.8455 9.67737 19.7635 9.67737 19.6779V15.807C9.67737 15.7214 9.71135 15.6394 9.77185 15.5789C9.83235 15.5184 9.9144 15.4844 9.99995 15.4844C10.0855 15.4844 10.1676 15.5184 10.228 15.5789C10.2885 15.6394 10.3225 15.7214 10.3225 15.807V19.6779C10.3225 19.7635 10.2885 19.8455 10.228 19.906C10.1676 19.9665 10.0855 20.0005 9.99995 20.0005Z" fill="#043752"/>
<path d="M16.5436 6.12993H14.1936C14.108 6.12993 14.0259 6.09594 13.9655 6.03545C13.905 5.97495 13.871 5.8929 13.871 5.80735V3.45735C13.871 3.37179 13.905 3.28974 13.9655 3.22925C14.0259 3.16875 14.108 3.13477 14.1936 3.13477C14.2791 3.13477 14.3612 3.16875 14.4217 3.22925C14.4821 3.28974 14.5161 3.37179 14.5161 3.45735V5.48477H16.5436C16.6291 5.48477 16.7112 5.51875 16.7717 5.57925C16.8321 5.63974 16.8661 5.72179 16.8661 5.80735C16.8661 5.8929 16.8321 5.97495 16.7717 6.03545C16.7112 6.09594 16.6291 6.12993 16.5436 6.12993Z" fill="#043752"/>
<path d="M14.1936 6.12841C14.1298 6.12839 14.0675 6.10947 14.0144 6.07402C13.9614 6.03857 13.9201 5.9882 13.8956 5.92926C13.8712 5.87033 13.8648 5.80548 13.8773 5.74291C13.8897 5.68035 13.9204 5.62288 13.9655 5.57776L16.8688 2.67454C16.9296 2.61578 17.0111 2.58326 17.0957 2.584C17.1803 2.58473 17.2612 2.61866 17.321 2.67847C17.3808 2.73828 17.4147 2.81918 17.4154 2.90376C17.4162 2.98834 17.3837 3.06983 17.3249 3.13067L14.4217 6.03389C14.3612 6.09439 14.2792 6.12839 14.1936 6.12841Z" fill="#043752"/>
<path d="M5.80648 16.7608C5.72092 16.7608 5.63887 16.7268 5.57838 16.6663C5.51788 16.6058 5.4839 16.5237 5.4839 16.4382V14.5163H3.56196C3.47641 14.5163 3.39436 14.4823 3.33386 14.4218C3.27337 14.3613 3.23938 14.2792 3.23938 14.1937C3.23938 14.1081 3.27337 14.0261 3.33386 13.9656C3.39436 13.9051 3.47641 13.8711 3.56196 13.8711H5.80648C5.89203 13.8711 5.97408 13.9051 6.03458 13.9656C6.09507 14.0261 6.12906 14.1081 6.12906 14.1937V16.4382C6.12906 16.5237 6.09507 16.6058 6.03458 16.6663C5.97408 16.7268 5.89203 16.7608 5.80648 16.7608Z" fill="#043752"/>
<path d="M2.9032 17.4194C2.83941 17.4194 2.77706 17.4005 2.72402 17.365C2.67098 17.3296 2.62965 17.2792 2.60524 17.2203C2.58083 17.1613 2.57444 17.0965 2.58688 17.0339C2.59932 16.9714 2.63004 16.9139 2.67514 16.8688L5.57836 13.9656C5.6392 13.9068 5.72069 13.8743 5.80527 13.875C5.88984 13.8757 5.97075 13.9097 6.03056 13.9695C6.09037 14.0293 6.1243 14.1102 6.12503 14.1948C6.12577 14.2794 6.09325 14.3608 6.03449 14.4217L3.13126 17.3249C3.07078 17.3854 2.98875 17.4194 2.9032 17.4194Z" fill="#043752"/>
<path d="M14.1936 16.8663C14.108 16.8663 14.0259 16.8323 13.9655 16.7718C13.905 16.7113 13.871 16.6292 13.871 16.5437V14.1937C13.871 14.1081 13.905 14.0261 13.9655 13.9656C14.0259 13.9051 14.108 13.8711 14.1936 13.8711H16.5436C16.6291 13.8711 16.7112 13.9051 16.7717 13.9656C16.8321 14.0261 16.8661 14.1081 16.8661 14.1937C16.8661 14.2792 16.8321 14.3613 16.7717 14.4218C16.7112 14.4823 16.6291 14.5163 16.5436 14.5163H14.5161V16.5437C14.5161 16.6292 14.4821 16.7113 14.4217 16.7718C14.3612 16.8323 14.2791 16.8663 14.1936 16.8663Z" fill="#043752"/>
<path d="M17.0967 17.4194C17.0112 17.4194 16.9291 17.3854 16.8687 17.3249L13.9654 14.4217C13.9067 14.3608 13.8742 14.2794 13.8749 14.1948C13.8756 14.1102 13.9096 14.0293 13.9694 13.9695C14.0292 13.9097 14.1101 13.8757 14.1947 13.875C14.2792 13.8743 14.3607 13.9068 14.4216 13.9656L17.3248 16.8688C17.3699 16.9139 17.4006 16.9714 17.413 17.0339C17.4255 17.0965 17.4191 17.1613 17.3947 17.2203C17.3703 17.2792 17.3289 17.3296 17.2759 17.365C17.2229 17.4005 17.1605 17.4194 17.0967 17.4194Z" fill="#043752"/>
<path d="M5.80648 6.12991H3.56196C3.47641 6.12991 3.39436 6.09593 3.33386 6.03543C3.27337 5.97493 3.23938 5.89288 3.23938 5.80733C3.23938 5.72178 3.27337 5.63973 3.33386 5.57923C3.39436 5.51874 3.47641 5.48475 3.56196 5.48475H5.4839V3.56282C5.4839 3.47726 5.51788 3.39521 5.57838 3.33472C5.63887 3.27422 5.72092 3.24023 5.80648 3.24023C5.89203 3.24023 5.97408 3.27422 6.03458 3.33472C6.09507 3.39521 6.12906 3.47726 6.12906 3.56282V5.80733C6.12906 5.89288 6.09507 5.97493 6.03458 6.03543C5.97408 6.09593 5.89203 6.12991 5.80648 6.12991Z" fill="#043752"/>
<path d="M5.80644 6.12841C5.72089 6.12839 5.63885 6.09439 5.57837 6.03389L2.67515 3.13067C2.61639 3.06983 2.58387 2.98834 2.58461 2.90376C2.58534 2.81918 2.61927 2.73828 2.67908 2.67847C2.73889 2.61866 2.81979 2.58473 2.90437 2.584C2.98895 2.58326 3.07044 2.61578 3.13128 2.67454L6.0345 5.57776C6.0796 5.62288 6.11031 5.68035 6.12275 5.74291C6.1352 5.80548 6.12881 5.87033 6.1044 5.92926C6.07999 5.9882 6.03865 6.03857 5.98562 6.07402C5.93258 6.10947 5.87023 6.12839 5.80644 6.12841Z" fill="#043752"/>
<path d="M17.4194 11.9354C17.3339 11.9353 17.2518 11.9013 17.1914 11.8408L15.5785 10.2279C15.518 10.1675 15.484 10.0854 15.484 9.99988C15.484 9.91434 15.518 9.83231 15.5785 9.77181L17.1914 8.15891C17.2522 8.10015 17.3337 8.06764 17.4183 8.06837C17.5028 8.06911 17.5838 8.10303 17.6436 8.16284C17.7034 8.22265 17.7373 8.30356 17.738 8.38814C17.7388 8.47272 17.7062 8.5542 17.6475 8.61504L16.2627 9.99988L17.6475 11.3847C17.6926 11.4298 17.7233 11.4873 17.7357 11.5499C17.7482 11.6124 17.7418 11.6773 17.7174 11.7362C17.693 11.7952 17.6516 11.8455 17.5986 11.881C17.5456 11.9164 17.4832 11.9353 17.4194 11.9354Z" fill="#043752"/>
<path d="M19.6774 10.3229H15.8065C15.7209 10.3229 15.6389 10.2889 15.5784 10.2284C15.5179 10.1679 15.4839 10.0859 15.4839 10.0003C15.4839 9.91476 15.5179 9.83271 15.5784 9.77222C15.6389 9.71172 15.7209 9.67773 15.8065 9.67773H19.6774C19.763 9.67773 19.845 9.71172 19.9055 9.77222C19.966 9.83271 20 9.91476 20 10.0003C20 10.0859 19.966 10.1679 19.9055 10.2284C19.845 10.2889 19.763 10.3229 19.6774 10.3229Z" fill="#043752"/>
<path d="M2.58069 11.9354C2.5169 11.9353 2.45455 11.9164 2.40151 11.881C2.34848 11.8455 2.30714 11.7952 2.28273 11.7362C2.25832 11.6773 2.25193 11.6124 2.26437 11.5499C2.27681 11.4873 2.30753 11.4298 2.35263 11.3847L3.73747 9.99988L2.35263 8.61504C2.29387 8.5542 2.26135 8.47272 2.26209 8.38814C2.26282 8.30356 2.29675 8.22265 2.35656 8.16284C2.41636 8.10303 2.49727 8.06911 2.58185 8.06837C2.66643 8.06764 2.74792 8.10015 2.80876 8.15891L4.42166 9.77181C4.48213 9.83231 4.51611 9.91434 4.51611 9.99988C4.51611 10.0854 4.48213 10.1675 4.42166 10.2279L2.80876 11.8408C2.74827 11.9013 2.66624 11.9353 2.58069 11.9354Z" fill="#043752"/>
<path d="M4.19355 10.3229H0.322581C0.237027 10.3229 0.154977 10.2889 0.0944817 10.2284C0.0339861 10.1679 0 10.0859 0 10.0003C0 9.91476 0.0339861 9.83271 0.0944817 9.77222C0.154977 9.71172 0.237027 9.67773 0.322581 9.67773H4.19355C4.2791 9.67773 4.36115 9.71172 4.42165 9.77222C4.48214 9.83271 4.51613 9.91476 4.51613 10.0003C4.51613 10.0859 4.48214 10.1679 4.42165 10.2284C4.36115 10.2889 4.2791 10.3229 4.19355 10.3229Z" fill="#043752"/>
</svg>
