<svg width="20" height="20" viewBox="0 0 20 20" fill="none" xmlns="http://www.w3.org/2000/svg">
<path d="M9.99992 14.8391C8.87272 14.8403 7.78039 14.4484 6.91111 13.7308C6.04182 13.0132 5.45002 12.0149 5.23764 10.9079C5.02526 9.80086 5.20561 8.65443 5.74762 7.6661C6.28963 6.67776 7.15936 5.90939 8.20698 5.49336C9.2546 5.07733 10.4145 5.03969 11.4869 5.38692C12.5593 5.73415 13.477 6.44451 14.0819 7.39563C14.6869 8.34675 14.9412 9.47907 14.801 10.5975C14.6609 11.716 14.135 12.7505 13.3141 13.523C12.4182 14.3691 11.2323 14.84 9.99992 14.8391ZM9.99992 5.80685C8.88812 5.80813 7.82222 6.25036 7.03605 7.03653C6.24989 7.82269 5.80766 8.88859 5.80637 10.0004C5.80637 11.1126 6.24819 12.1792 7.03464 12.9657C7.82108 13.7521 8.88773 14.1939 9.99992 14.1939C11.1121 14.1939 12.1788 13.7521 12.9652 12.9657C13.7517 12.1792 14.1935 11.1126 14.1935 10.0004C14.1922 8.88859 13.75 7.82269 12.9638 7.03653C12.1776 6.25036 11.1117 5.80813 9.99992 5.80685Z" fill="#043752"/>
<path d="M13.0937 13.6097C13.024 13.6097 12.9561 13.5871 12.9002 13.5453C12.8444 13.5035 12.8036 13.4447 12.784 13.3777C12.6083 12.7754 12.2419 12.2464 11.74 11.87C11.238 11.4936 10.6276 11.2902 10.0002 11.2902C9.37276 11.2902 8.76229 11.4936 8.26034 11.87C7.7584 12.2464 7.39205 12.7754 7.21629 13.3777C7.20441 13.4184 7.18463 13.4563 7.15809 13.4893C7.13155 13.5224 7.09876 13.5498 7.0616 13.5702C7.02444 13.5905 6.98364 13.6034 6.94152 13.608C6.8994 13.6126 6.85679 13.6088 6.81613 13.5969C6.77546 13.585 6.73753 13.5653 6.70451 13.5387C6.67148 13.5122 6.64401 13.4794 6.62365 13.4422C6.6033 13.4051 6.59046 13.3643 6.58588 13.3221C6.58129 13.28 6.58505 13.2374 6.59693 13.1968C6.81198 12.4607 7.2599 11.8141 7.87349 11.3541C8.48709 10.8941 9.23329 10.6455 10.0002 10.6455C10.767 10.6455 11.5132 10.8941 12.1268 11.3541C12.7404 11.8141 13.1883 12.4607 13.4034 13.1968C13.4152 13.2374 13.419 13.28 13.4144 13.3221C13.4098 13.3642 13.3969 13.405 13.3765 13.4422C13.3562 13.4793 13.3287 13.5121 13.2957 13.5386C13.2626 13.5651 13.2247 13.5849 13.184 13.5968C13.1547 13.6054 13.1243 13.6098 13.0937 13.6097Z" fill="#043752"/>
<path d="M9.99977 11.2905C9.55316 11.2905 9.11659 11.1581 8.74525 10.91C8.37391 10.6619 8.08449 10.3092 7.91359 9.8966C7.74268 9.484 7.69796 9.02997 7.78509 8.59195C7.87222 8.15393 8.08728 7.75158 8.40307 7.43579C8.71887 7.11999 9.12122 6.90493 9.55924 6.8178C9.99726 6.73068 10.4513 6.77539 10.8639 6.9463C11.2765 7.11721 11.6292 7.40663 11.8773 7.77797C12.1254 8.1493 12.2578 8.58588 12.2578 9.03248C12.2571 9.63112 12.0189 10.205 11.5956 10.6283C11.1723 11.0516 10.5984 11.2898 9.99977 11.2905ZM9.99977 7.41958C9.68076 7.41958 9.36892 7.51417 9.10368 7.6914C8.83844 7.86863 8.63171 8.12053 8.50964 8.41525C8.38756 8.70997 8.35562 9.03427 8.41785 9.34714C8.48009 9.66001 8.6337 9.94741 8.85927 10.173C9.08484 10.3985 9.37223 10.5522 9.6851 10.6144C9.99798 10.6766 10.3223 10.6447 10.617 10.5226C10.9117 10.4005 11.1636 10.1938 11.3408 9.92856C11.5181 9.66332 11.6127 9.35148 11.6127 9.03248C11.6122 8.60487 11.4421 8.19492 11.1397 7.89255C10.8373 7.59018 10.4274 7.42009 9.99977 7.41958Z" fill="#043752"/>
<path d="M9.99988 4.51582C9.91433 4.5158 9.8323 4.4818 9.77181 4.4213L8.15891 2.8084C8.10015 2.74756 8.06764 2.66608 8.06837 2.5815C8.06911 2.49692 8.10303 2.41601 8.16284 2.3562C8.22265 2.29639 8.30356 2.26247 8.38814 2.26173C8.47272 2.261 8.5542 2.29351 8.61504 2.35227L9.99988 3.73711L11.3847 2.35227C11.4456 2.29351 11.527 2.261 11.6116 2.26173C11.6962 2.26247 11.7771 2.29639 11.8369 2.3562C11.8967 2.41601 11.9307 2.49692 11.9314 2.5815C11.9321 2.66608 11.8996 2.74756 11.8408 2.8084L10.2279 4.4213C10.1675 4.4818 10.0854 4.5158 9.99988 4.51582Z" fill="#043752"/>
<path d="M9.99983 4.51613C9.91427 4.51613 9.83222 4.48214 9.77173 4.42165C9.71123 4.36115 9.67725 4.2791 9.67725 4.19355V0.322581C9.67725 0.237027 9.71123 0.154977 9.77173 0.0944817C9.83222 0.0339861 9.91427 0 9.99983 0C10.0854 0 10.1674 0.0339861 10.2279 0.0944817C10.2884 0.154977 10.3224 0.237027 10.3224 0.322581V4.19355C10.3224 4.2791 10.2884 4.36115 10.2279 4.42165C10.1674 4.48214 10.0854 4.51613 9.99983 4.51613Z" fill="#043752"/>
<path d="M11.6128 17.7424C11.5272 17.7424 11.4452 17.7084 11.3847 17.6479L9.99988 16.263L8.61504 17.6479C8.5542 17.7066 8.47272 17.7391 8.38814 17.7384C8.30356 17.7377 8.22265 17.7037 8.16284 17.6439C8.10303 17.5841 8.06911 17.5032 8.06837 17.4186C8.06764 17.334 8.10015 17.2526 8.15891 17.1917L9.77181 15.5788C9.83231 15.5183 9.91434 15.4844 9.99988 15.4844C10.0854 15.4844 10.1675 15.5183 10.2279 15.5788L11.8408 17.1917C11.8859 17.2368 11.9167 17.2943 11.9291 17.3569C11.9415 17.4194 11.9352 17.4843 11.9107 17.5432C11.8863 17.6022 11.845 17.6525 11.792 17.688C11.7389 17.7234 11.6766 17.7424 11.6128 17.7424Z" fill="#043752"/>
<path d="M9.99983 19.9995C9.91427 19.9995 9.83222 19.9655 9.77173 19.905C9.71123 19.8446 9.67725 19.7625 9.67725 19.6769V15.806C9.67725 15.7204 9.71123 15.6384 9.77173 15.5779C9.83222 15.5174 9.91427 15.4834 9.99983 15.4834C10.0854 15.4834 10.1674 15.5174 10.2279 15.5779C10.2884 15.6384 10.3224 15.7204 10.3224 15.806V19.6769C10.3224 19.7625 10.2884 19.8446 10.2279 19.905C10.1674 19.9655 10.0854 19.9995 9.99983 19.9995Z" fill="#043752"/>
<path d="M16.5437 6.12895H14.1937C14.1081 6.12895 14.0261 6.09496 13.9656 6.03447C13.9051 5.97397 13.8711 5.89192 13.8711 5.80637V3.45637C13.8711 3.37082 13.9051 3.28877 13.9656 3.22827C14.0261 3.16778 14.1081 3.13379 14.1937 3.13379C14.2792 3.13379 14.3613 3.16778 14.4218 3.22827C14.4823 3.28877 14.5163 3.37082 14.5163 3.45637V5.48379H16.5437C16.6292 5.48379 16.7113 5.51777 16.7718 5.57827C16.8323 5.63877 16.8663 5.72082 16.8663 5.80637C16.8663 5.89192 16.8323 5.97397 16.7718 6.03447C16.7113 6.09496 16.6292 6.12895 16.5437 6.12895Z" fill="#043752"/>
<path d="M14.1936 6.12938C14.1298 6.12937 14.0675 6.11044 14.0144 6.075C13.9614 6.03955 13.9201 5.98918 13.8956 5.93024C13.8712 5.87131 13.8648 5.80646 13.8773 5.74389C13.8897 5.68132 13.9204 5.62385 13.9655 5.57874L16.8688 2.67551C16.9296 2.61675 17.0111 2.58424 17.0957 2.58497C17.1803 2.58571 17.2612 2.61963 17.321 2.67944C17.3808 2.73925 17.4147 2.82016 17.4154 2.90474C17.4162 2.98932 17.3837 3.0708 17.3249 3.13164L14.4217 6.03487C14.3612 6.09537 14.2792 6.12937 14.1936 6.12938Z" fill="#043752"/>
<path d="M5.80635 16.7608C5.7208 16.7608 5.63875 16.7268 5.57826 16.6663C5.51776 16.6058 5.48377 16.5237 5.48377 16.4382V14.5163H3.56184C3.47628 14.5163 3.39424 14.4823 3.33374 14.4218C3.27324 14.3613 3.23926 14.2792 3.23926 14.1937C3.23926 14.1081 3.27324 14.0261 3.33374 13.9656C3.39424 13.9051 3.47628 13.8711 3.56184 13.8711H5.80635C5.89191 13.8711 5.97396 13.9051 6.03445 13.9656C6.09495 14.0261 6.12894 14.1081 6.12894 14.1937V16.4382C6.12894 16.5237 6.09495 16.6058 6.03445 16.6663C5.97396 16.7268 5.89191 16.7608 5.80635 16.7608Z" fill="#043752"/>
<path d="M2.90308 17.4194C2.83929 17.4194 2.77693 17.4005 2.7239 17.365C2.67086 17.3296 2.62953 17.2792 2.60512 17.2203C2.58071 17.1613 2.57432 17.0965 2.58676 17.0339C2.5992 16.9714 2.62991 16.9139 2.67501 16.8688L5.57824 13.9656C5.63908 13.9068 5.72056 13.8743 5.80514 13.875C5.88972 13.8757 5.97063 13.9097 6.03044 13.9695C6.09025 14.0293 6.12417 14.1102 6.12491 14.1948C6.12564 14.2794 6.09313 14.3608 6.03437 14.4217L3.13114 17.3249C3.07066 17.3854 2.98862 17.4194 2.90308 17.4194Z" fill="#043752"/>
<path d="M14.1937 16.8663C14.1081 16.8663 14.0261 16.8323 13.9656 16.7718C13.9051 16.7113 13.8711 16.6292 13.8711 16.5437V14.1937C13.8711 14.1081 13.9051 14.0261 13.9656 13.9656C14.0261 13.9051 14.1081 13.8711 14.1937 13.8711H16.5437C16.6292 13.8711 16.7113 13.9051 16.7718 13.9656C16.8323 14.0261 16.8663 14.1081 16.8663 14.1937C16.8663 14.2792 16.8323 14.3613 16.7718 14.4218C16.7113 14.4823 16.6292 14.5163 16.5437 14.5163H14.5163V16.5437C14.5163 16.6292 14.4823 16.7113 14.4218 16.7718C14.3613 16.8323 14.2792 16.8663 14.1937 16.8663Z" fill="#043752"/>
<path d="M17.0968 17.4194C17.0113 17.4194 16.9293 17.3854 16.8688 17.3249L13.9656 14.4217C13.9068 14.3608 13.8743 14.2794 13.875 14.1948C13.8757 14.1102 13.9097 14.0293 13.9695 13.9695C14.0293 13.9097 14.1102 13.8757 14.1948 13.875C14.2794 13.8743 14.3608 13.9068 14.4217 13.9656L17.3249 16.8688C17.37 16.9139 17.4007 16.9714 17.4132 17.0339C17.4256 17.0965 17.4192 17.1613 17.3948 17.2203C17.3704 17.2792 17.3291 17.3296 17.276 17.365C17.223 17.4005 17.1606 17.4194 17.0968 17.4194Z" fill="#043752"/>
<path d="M5.80635 6.12894H3.56184C3.47628 6.12894 3.39424 6.09495 3.33374 6.03445C3.27324 5.97396 3.23926 5.89191 3.23926 5.80635C3.23926 5.7208 3.27324 5.63875 3.33374 5.57826C3.39424 5.51776 3.47628 5.48377 3.56184 5.48377H5.48377V3.56184C5.48377 3.47628 5.51776 3.39424 5.57826 3.33374C5.63875 3.27324 5.7208 3.23926 5.80635 3.23926C5.89191 3.23926 5.97396 3.27324 6.03445 3.33374C6.09495 3.39424 6.12894 3.47628 6.12894 3.56184V5.80635C6.12894 5.89191 6.09495 5.97396 6.03445 6.03445C5.97396 6.09495 5.89191 6.12894 5.80635 6.12894Z" fill="#043752"/>
<path d="M5.80632 6.12938C5.72077 6.12937 5.63873 6.09537 5.57825 6.03487L2.67502 3.13164C2.61626 3.0708 2.58375 2.98932 2.58448 2.90474C2.58522 2.82016 2.61915 2.73925 2.67895 2.67944C2.73876 2.61963 2.81967 2.58571 2.90425 2.58497C2.98883 2.58424 3.07031 2.61675 3.13115 2.67551L6.03438 5.57874C6.07948 5.62385 6.11019 5.68132 6.12263 5.74389C6.13507 5.80646 6.12869 5.87131 6.10428 5.93024C6.07987 5.98918 6.03853 6.03955 5.9855 6.075C5.93246 6.11044 5.87011 6.12937 5.80632 6.12938Z" fill="#043752"/>
<path d="M17.4193 11.9354C17.3338 11.9353 17.2517 11.9013 17.1912 11.8408L15.5783 10.2279C15.5179 10.1675 15.4839 10.0854 15.4839 9.99988C15.4839 9.91434 15.5179 9.83231 15.5783 9.77181L17.1912 8.15891C17.2521 8.10015 17.3336 8.06764 17.4181 8.06837C17.5027 8.06911 17.5836 8.10303 17.6434 8.16284C17.7032 8.22265 17.7372 8.30356 17.7379 8.38814C17.7386 8.47272 17.7061 8.5542 17.6474 8.61504L16.2625 9.99988L17.6474 11.3847C17.6925 11.4298 17.7232 11.4873 17.7356 11.5499C17.7481 11.6124 17.7417 11.6773 17.7173 11.7362C17.6929 11.7952 17.6515 11.8455 17.5985 11.881C17.5454 11.9164 17.4831 11.9353 17.4193 11.9354Z" fill="#043752"/>
<path d="M19.6774 10.3229H15.8065C15.7209 10.3229 15.6389 10.2889 15.5784 10.2284C15.5179 10.1679 15.4839 10.0859 15.4839 10.0003C15.4839 9.91476 15.5179 9.83271 15.5784 9.77222C15.6389 9.71172 15.7209 9.67773 15.8065 9.67773H19.6774C19.763 9.67773 19.845 9.71172 19.9055 9.77222C19.966 9.83271 20 9.91476 20 10.0003C20 10.0859 19.966 10.1679 19.9055 10.2284C19.845 10.2889 19.763 10.3229 19.6774 10.3229Z" fill="#043752"/>
<path d="M2.58081 11.9354C2.51702 11.9353 2.45467 11.9164 2.40163 11.881C2.3486 11.8455 2.30726 11.7952 2.28285 11.7362C2.25844 11.6773 2.25205 11.6124 2.2645 11.5499C2.27694 11.4873 2.30765 11.4298 2.35275 11.3847L3.73759 9.99988L2.35275 8.61504C2.29399 8.5542 2.26147 8.47272 2.26221 8.38814C2.26294 8.30356 2.29687 8.22265 2.35668 8.16284C2.41649 8.10303 2.49739 8.06911 2.58197 8.06837C2.66655 8.06764 2.74804 8.10015 2.80888 8.15891L4.42178 9.77181C4.48225 9.83231 4.51623 9.91434 4.51623 9.99988C4.51623 10.0854 4.48225 10.1675 4.42178 10.2279L2.80888 11.8408C2.7484 11.9013 2.66636 11.9353 2.58081 11.9354Z" fill="#043752"/>
<path d="M4.19355 10.3229H0.322581C0.237027 10.3229 0.154977 10.2889 0.0944817 10.2284C0.0339861 10.1679 0 10.0859 0 10.0003C0 9.91476 0.0339861 9.83271 0.0944817 9.77222C0.154977 9.71172 0.237027 9.67773 0.322581 9.67773H4.19355C4.2791 9.67773 4.36115 9.71172 4.42165 9.77222C4.48214 9.83271 4.51613 9.91476 4.51613 10.0003C4.51613 10.0859 4.48214 10.1679 4.42165 10.2284C4.36115 10.2889 4.2791 10.3229 4.19355 10.3229Z" fill="#043752"/>
</svg>
