<svg width="20" height="23" viewBox="0 0 20 23" fill="none" xmlns="http://www.w3.org/2000/svg">
<path d="M5.59613 0.799447C5.59613 0.587421 5.68036 0.384078 5.83028 0.234153C5.98021 0.0842272 6.18355 0 6.39558 0H12.7912C13.0032 0 13.2065 0.0842272 13.3565 0.234153C13.5064 0.384078 13.5906 0.587421 13.5906 0.799447C13.5906 1.01147 13.5064 1.21482 13.3565 1.36474C13.2065 1.51467 13.0032 1.59889 12.7912 1.59889H6.39558C6.18355 1.59889 5.98021 1.51467 5.83028 1.36474C5.68036 1.21482 5.59613 1.01147 5.59613 0.799447ZM9.59337 22.3845C12.1377 22.3845 14.5778 21.3738 16.3769 19.5747C18.176 17.7756 19.1867 15.3355 19.1867 12.7912C19.1867 10.2468 18.176 7.80673 16.3769 6.00762C14.5778 4.20852 12.1377 3.19779 9.59337 3.19779C7.04905 3.19779 4.60894 4.20852 2.80983 6.00762C1.01073 7.80673 0 10.2468 0 12.7912C0 15.3355 1.01073 17.7756 2.80983 19.5747C4.60894 21.3738 7.04905 22.3845 9.59337 22.3845ZM9.59337 6.39558C9.80539 6.39558 10.0087 6.4798 10.1587 6.62973C10.3086 6.77965 10.3928 6.983 10.3928 7.19502V13.5906C10.3928 13.8026 10.3086 14.006 10.1587 14.1559C10.0087 14.3058 9.80539 14.39 9.59337 14.39C9.38134 14.39 9.178 14.3058 9.02807 14.1559C8.87815 14.006 8.79392 13.8026 8.79392 13.5906V7.19502C8.79392 6.983 8.87815 6.77965 9.02807 6.62973C9.178 6.4798 9.38134 6.39558 9.59337 6.39558ZM17.5127 2.62538C17.4389 2.54903 17.3507 2.48813 17.2532 2.44623C17.1557 2.40433 17.0508 2.38228 16.9446 2.38135C16.8385 2.38043 16.7332 2.40066 16.6349 2.44085C16.5367 2.48105 16.4474 2.54041 16.3724 2.61548C16.2973 2.69054 16.2379 2.7798 16.1977 2.87805C16.1575 2.9763 16.1373 3.08157 16.1382 3.18772C16.1392 3.29387 16.1612 3.39877 16.2031 3.49631C16.245 3.59384 16.3059 3.68206 16.3823 3.7558L18.6255 5.99905C18.6993 6.07541 18.7875 6.13631 18.885 6.17821C18.9826 6.22011 19.0875 6.24216 19.1936 6.24308C19.2998 6.24401 19.405 6.22378 19.5033 6.18358C19.6015 6.14338 19.6908 6.08402 19.7658 6.00896C19.8409 5.9339 19.9003 5.84464 19.9405 5.74639C19.9807 5.64814 20.0009 5.54287 20 5.43672C19.999 5.33057 19.977 5.22567 19.9351 5.12813C19.8932 5.03059 19.8323 4.94238 19.7559 4.86863L17.5127 2.62538Z" fill="#043752"/>
</svg>
