<svg width="17" height="17" viewBox="0 0 17 17" fill="none" xmlns="http://www.w3.org/2000/svg">
<g clip-path="url(#clip0_98_3342)">
<path d="M11.3506 10.0994L9.11975 8.42631V5.01812C9.11975 4.67544 8.84275 4.39844 8.50006 4.39844C8.15737 4.39844 7.88037 4.67544 7.88037 5.01812V8.73619C7.88037 8.93138 7.97209 9.11544 8.12825 9.23194L10.6069 11.091C10.7185 11.1746 10.8486 11.2149 10.9781 11.2149C11.1671 11.2149 11.353 11.13 11.4745 10.9664C11.6803 10.6931 11.6245 10.3046 11.3506 10.0994Z" fill="#043752"/>
<path d="M8.5 0.686523C4.08853 0.686523 0.5 4.27505 0.5 8.68652C0.5 13.098 4.08853 16.6865 8.5 16.6865C12.9115 16.6865 16.5 13.098 16.5 8.68652C16.5 4.27505 12.9115 0.686523 8.5 0.686523ZM8.5 15.4472C4.77266 15.4472 1.73934 12.4139 1.73934 8.68652C1.73934 4.95918 4.77266 1.92587 8.5 1.92587C12.228 1.92587 15.2607 4.95918 15.2607 8.68652C15.2607 12.4139 12.2273 15.4472 8.5 15.4472Z" fill="#043752"/>
</g>
<defs>
<clipPath id="clip0_98_3342">
<rect width="16" height="16" fill="white" transform="translate(0.5 0.686523)"/>
</clipPath>
</defs>
</svg>
