<svg width="25" height="25" viewBox="0 0 25 25" fill="none" xmlns="http://www.w3.org/2000/svg">
<g clip-path="url(#clip0_673_7516)">
<path d="M23.3798 25.021C23.7944 25.021 24.2093 24.8623 24.5249 24.5464C25.1584 23.9132 25.1584 22.8894 24.5249 22.2562L2.76534 0.496391C2.13213 -0.136818 1.10832 -0.136818 0.475113 0.496391C-0.158392 1.1296 -0.158392 2.15341 0.475113 2.78662L22.2346 24.5464C22.5523 24.8638 22.9651 25.021 23.3798 25.021Z" fill="#043752"/>
<path d="M1.62023 25.021C2.03485 25.021 2.44948 24.8623 2.76534 24.5464L24.5249 2.78662C25.1584 2.15341 25.1584 1.1296 24.5249 0.496391C23.8917 -0.136818 22.8681 -0.136818 22.2346 0.496391L0.475113 22.2562C-0.158392 22.8894 -0.158392 23.9132 0.475113 24.5464C0.790977 24.8638 1.2056 25.021 1.62023 25.021Z" fill="#043752"/>
</g>
<defs>
<clipPath id="clip0_673_7516">
<rect width="25" height="25" fill="white" transform="matrix(-1 0 0 1 25 0)"/>
</clipPath>
</defs>
</svg>
