<svg width="20" height="20" viewBox="0 0 20 20" fill="none" xmlns="http://www.w3.org/2000/svg">
<path d="M18.75 3.4375H17.1875V2.1875C17.1875 2.01469 17.0475 1.875 16.875 1.875H15.3125V0.625C15.3125 0.452188 15.1725 0.3125 15 0.3125H4.0625C3.97969 0.3125 3.9 0.345312 3.84156 0.404062L1.65406 2.59156C1.59531 2.65 1.5625 2.72937 1.5625 2.8125V16.25C1.5625 16.4228 1.7025 16.5625 1.875 16.5625H3.4375V17.8125C3.4375 17.9853 3.5775 18.125 3.75 18.125H5.3125V19.375C5.3125 19.5478 5.4525 19.6875 5.625 19.6875H18.75C18.9225 19.6875 19.0625 19.5478 19.0625 19.375V3.75C19.0625 3.57719 18.9225 3.4375 18.75 3.4375ZM2.1875 15.9375V3.125H4.0625C4.235 3.125 4.375 2.98531 4.375 2.8125V1.875H3.75V2.5H2.62937L4.19187 0.9375H14.6875V1.875H5.9375C5.85469 1.875 5.775 1.90781 5.71656 1.96656L3.52906 4.15406C3.47031 4.2125 3.4375 4.29187 3.4375 4.375V15.9375H2.1875ZM4.0625 17.5V4.6875H5.9375C6.11 4.6875 6.25 4.54781 6.25 4.375V3.4375H5.625V4.0625H4.50437L6.06687 2.5H16.5625V3.4375H7.8125C7.72969 3.4375 7.65 3.47031 7.59156 3.52906L5.40406 5.71656C5.34531 5.775 5.3125 5.85437 5.3125 5.9375V17.5H4.0625ZM18.4375 19.0625H5.9375V6.25H7.8125C7.985 6.25 8.125 6.11031 8.125 5.9375V5H7.5V5.625H6.37937L7.94187 4.0625H18.4375V19.0625Z" fill="#043752" fill-opacity="0.7"/>
<path d="M17.1875 5.9375H12.8125C12.64 5.9375 12.5 6.07719 12.5 6.25V11.25C12.5 11.4228 12.64 11.5625 12.8125 11.5625H12.8375H17.1625H17.1875C17.36 11.5625 17.5 11.4228 17.5 11.25V6.25C17.5 6.07719 17.36 5.9375 17.1875 5.9375ZM16.875 6.5625V9.91781C16.6203 9.62844 16.3013 9.39875 15.9416 9.25094C16.1313 9.03156 16.25 8.74938 16.25 8.4375C16.25 7.74812 15.6894 7.1875 15 7.1875C14.3106 7.1875 13.75 7.74812 13.75 8.4375C13.75 8.74938 13.8687 9.03156 14.0584 9.25062C13.6987 9.39844 13.3797 9.62812 13.125 9.9175V6.5625H16.875ZM14.375 8.4375C14.375 8.09281 14.6553 7.8125 15 7.8125C15.3447 7.8125 15.625 8.09281 15.625 8.4375C15.625 8.78219 15.3447 9.0625 15 9.0625C14.6553 9.0625 14.375 8.78219 14.375 8.4375ZM13.2341 10.9375C13.4928 10.2047 14.1975 9.6875 15 9.6875C15.8025 9.6875 16.5072 10.2047 16.7659 10.9375H13.2341Z" fill="#043752" fill-opacity="0.7"/>
<path d="M8.125 10V10.9375C8.125 11.1103 8.265 11.25 8.4375 11.25H10C10.1725 11.25 10.3125 11.1103 10.3125 10.9375V10H11.25C11.4225 10 11.5625 9.86031 11.5625 9.6875V8.125C11.5625 7.95219 11.4225 7.8125 11.25 7.8125H10.3125V6.875C10.3125 6.70219 10.1725 6.5625 10 6.5625H8.4375C8.265 6.5625 8.125 6.70219 8.125 6.875V7.8125H7.1875C7.015 7.8125 6.875 7.95219 6.875 8.125V9.6875C6.875 9.86031 7.015 10 7.1875 10H8.125ZM7.5 8.4375H8.4375C8.61 8.4375 8.75 8.29781 8.75 8.125V7.1875H9.6875V8.125C9.6875 8.29781 9.8275 8.4375 10 8.4375H10.9375V9.375H10C9.8275 9.375 9.6875 9.51469 9.6875 9.6875V10.625H8.75V9.6875C8.75 9.51469 8.61 9.375 8.4375 9.375H7.5V8.4375Z" fill="#043752" fill-opacity="0.7"/>
<path d="M9.0625 12.5H16.5625V13.125H9.0625V12.5Z" fill="#043752" fill-opacity="0.7"/>
<path d="M7.8125 13.75H16.5625V14.375H7.8125V13.75Z" fill="#043752" fill-opacity="0.7"/>
<path d="M7.8125 15H16.5625V15.625H7.8125V15Z" fill="#043752" fill-opacity="0.7"/>
<path d="M7.1875 17.5H10.9375V18.125H7.1875V17.5Z" fill="#043752" fill-opacity="0.7"/>
<path d="M13.4375 17.5H17.1875V18.125H13.4375V17.5Z" fill="#043752" fill-opacity="0.7"/>
<path d="M16.875 4.6875H17.5V5.3125H16.875V4.6875Z" fill="#043752" fill-opacity="0.7"/>
<path d="M15.625 4.6875H16.25V5.3125H15.625V4.6875Z" fill="#043752" fill-opacity="0.7"/>
<path d="M14.375 4.6875H15V5.3125H14.375V4.6875Z" fill="#043752" fill-opacity="0.7"/>
</svg>
