<svg width="30" height="31" viewBox="0 0 30 31" fill="none" xmlns="http://www.w3.org/2000/svg">
<g clip-path="url(#clip0_82_1438)">
<path d="M20.687 28.1661H2.1293V2.12289H20.6869V8.57838L22.6653 6.59996V1.13371C22.6654 0.587445 22.2224 0.144531 21.6762 0.144531H1.14012C0.593793 0.144531 0.150757 0.587445 0.150757 1.13371V29.1554C0.150757 29.7016 0.593732 30.1445 1.14012 30.1445H21.6762C22.2224 30.1445 22.6654 29.7016 22.6654 29.1554V18.2701L20.687 20.2485V28.1661Z" fill="#fff"/>
<path d="M17.7706 4.49609H5.04563C4.62838 4.49609 4.28979 4.83468 4.28979 5.25205C4.28979 5.66935 4.62838 6.00794 5.04563 6.00794H17.7705C18.1879 6.00794 18.5264 5.66935 18.5264 5.25205C18.5265 4.83468 18.1879 4.49609 17.7706 4.49609Z" fill="#fff"/>
<path d="M18.5265 9.2833C18.5265 8.86599 18.1879 8.52734 17.7706 8.52734H5.04563C4.62838 8.52734 4.28979 8.86599 4.28979 9.2833C4.28979 9.70066 4.62838 10.0393 5.04563 10.0393H17.7705C18.1879 10.0393 18.5265 9.70073 18.5265 9.2833Z" fill="#fff"/>
<path d="M16.7071 12.5586H5.04563C4.62838 12.5586 4.28979 12.8972 4.28979 13.3145C4.28979 13.7319 4.62838 14.0704 5.04563 14.0704H15.1952L16.7071 12.5586Z" fill="#fff"/>
<path d="M12.4785 17.5697C12.5808 17.2271 12.7271 16.8989 12.9052 16.5898H5.04563C4.62838 16.5898 4.28979 16.9284 4.28979 17.3458C4.28979 17.7631 4.62838 18.1018 5.04563 18.1018H12.3201L12.4785 17.5697Z" fill="#fff"/>
<path d="M5.04563 20.6211C4.62838 20.6211 4.28979 20.9597 4.28979 21.377C4.28979 21.7943 4.62838 22.1329 5.04563 22.1329H11.6857C11.4898 21.6576 11.4391 21.1324 11.5775 20.6211H5.04563Z" fill="#fff"/>
<path d="M29.2311 5.86864C28.835 5.47237 28.2979 5.25 27.7384 5.25C27.1789 5.25 26.642 5.47237 26.2463 5.86815L15.0627 17.052C14.7576 17.3571 14.5337 17.7326 14.4101 18.146L13.5189 21.1334C13.481 21.2598 13.5155 21.3967 13.609 21.4902C13.6774 21.5587 13.769 21.5955 13.8629 21.5955C13.8969 21.5955 13.9318 21.5906 13.9658 21.5803L16.953 20.689C17.3665 20.5655 17.7421 20.3415 18.047 20.0365L29.231 8.85301C29.6267 8.45729 29.8491 7.92041 29.8491 7.36085C29.8491 6.80117 29.6267 6.2643 29.2311 5.86864Z" fill="#fff"/>
</g>
<defs>
<clipPath id="clip0_82_1438">
<rect width="30" height="30" fill="white" transform="translate(0 0.144531)"/>
</clipPath>
</defs>
</svg>
