<svg width="23" height="24" viewBox="0 0 23 24" fill="none" xmlns="http://www.w3.org/2000/svg">
<path d="M11.6647 23.6869C11.5807 23.6869 11.4955 23.6792 11.4109 23.6637L7.53486 22.9455C6.79447 22.808 6.31949 22.1151 6.45381 21.3679L6.76314 19.6459C6.7202 19.6175 6.67919 19.5884 6.64109 19.5593L6.59136 19.5267L5.16094 20.5325C4.9023 20.7305 4.54131 20.8196 4.19096 20.7608C3.829 20.7017 3.50384 20.4935 3.29751 20.1893L1.06373 16.9042C0.868699 16.6391 0.785392 16.2858 0.844159 15.93C0.902926 15.5709 1.10603 15.2461 1.40212 15.0385L2.80219 14.0281C2.79089 13.9739 2.78153 13.9222 2.77313 13.8741C2.76829 13.8496 2.76442 13.8244 2.76054 13.7986L1.07019 13.4854C0.723719 13.4205 0.412126 13.2128 0.216452 12.9145C0.015611 12.6077 -0.048645 12.2413 0.0340161 11.8822L0.736312 7.97419C0.80186 7.609 0.999472 7.29611 1.29427 7.09204C1.58746 6.88894 1.94588 6.81403 2.30429 6.88023L3.98205 7.19182C4.00821 7.15017 4.03533 7.11045 4.06245 7.07332L4.10411 7.00583L3.10636 5.5386C2.91198 5.27479 2.82867 4.92219 2.88615 4.56636C2.94491 4.2073 3.14801 3.88215 3.44346 3.67356L6.6779 1.40005C6.93719 1.20309 7.29883 1.11591 7.6482 1.17209C8.00984 1.23086 8.33532 1.43912 8.54165 1.74329L9.53423 3.20278C9.55263 3.19826 9.57104 3.19309 9.58912 3.18825C9.61075 3.18179 9.63336 3.1763 9.65628 3.17242C9.67953 3.1679 9.70343 3.16371 9.72732 3.16048L10.0373 1.43525C10.1041 1.06876 10.3018 0.756848 10.5969 0.552455C10.8891 0.35 11.2469 0.276057 11.6059 0.341605L15.4632 1.05649C16.2039 1.19372 16.6786 1.88698 16.5443 2.63416L16.2343 4.35616C16.2779 4.38457 16.3189 4.41363 16.3573 4.44269L16.4067 4.4753L17.8371 3.46949C18.0964 3.2722 18.4581 3.18437 18.8074 3.2412C19.1691 3.29997 19.4946 3.50823 19.7009 3.81272L21.9172 7.09657C22.1103 7.35843 22.1936 7.71103 22.1362 8.06654C22.0774 8.4256 21.8743 8.75108 21.5789 8.95935L20.1345 9.97388C20.1404 10.0004 20.1465 10.0262 20.1529 10.0504C20.1591 10.0717 20.1643 10.0927 20.1675 10.1153C20.1723 10.1411 20.1768 10.167 20.1807 10.1934L21.8704 10.5067C22.5475 10.6326 23.0219 11.2593 22.9993 11.9955C22.998 12.0278 22.9947 12.0601 22.9886 12.0921L22.2805 16.0327C22.2143 16.3982 22.0167 16.7111 21.7209 16.9155C21.4274 17.1176 21.0703 17.1899 20.7112 17.1257L19.0348 16.8141C19.0083 16.8557 18.9812 16.8955 18.954 16.9326L18.9124 16.9994L19.9105 18.4673C20.1055 18.7327 20.1888 19.0857 20.13 19.4415C20.0709 19.8005 19.8682 20.1254 19.5717 20.333L16.3386 22.6059C16.0796 22.8035 15.7193 22.8919 15.3686 22.8345C15.0076 22.775 14.6821 22.5674 14.4752 22.2639L13.4874 20.8102C13.4442 20.819 13.4019 20.827 13.3609 20.8348C13.3373 20.8386 13.314 20.8435 13.2895 20.8467L12.9795 22.5713C12.914 22.9365 12.7164 23.2491 12.4212 23.4535C12.1971 23.6068 11.9359 23.6869 11.6647 23.6869ZM6.59653 18.0534C6.75862 18.0534 6.92007 18.1131 7.04632 18.23C7.11381 18.2923 7.1913 18.3391 7.26848 18.3901L7.41991 18.4906C7.48611 18.5396 7.58394 18.6062 7.77574 18.695C8.04891 18.8212 8.20293 19.116 8.14933 19.4124L7.75605 21.602L11.6521 22.363L12.0715 20.1464C12.1177 19.8884 12.3108 19.6837 12.5656 19.6207C12.7015 19.5878 12.8352 19.5697 12.9643 19.5539C13.0183 19.5467 13.0712 19.5406 13.1222 19.5316C13.2023 19.5167 13.3967 19.4806 13.5217 19.4308C13.8113 19.3152 14.1413 19.4163 14.3153 19.6724L15.5698 21.518L18.8113 19.249L17.5607 17.3643C17.3903 17.1131 17.4119 16.7779 17.615 16.5516C17.6767 16.4828 17.7228 16.4034 17.7732 16.3243L17.8723 16.1709C17.9205 16.104 17.9866 16.0027 18.0761 15.805C18.2004 15.5274 18.4946 15.3727 18.8 15.4253L20.9531 15.8247L21.676 11.918C21.6699 11.8505 21.6415 11.8102 21.6289 11.8076L19.4758 11.4082C19.2188 11.3604 19.0138 11.1654 18.9534 10.9103C18.9205 10.7734 18.904 10.6397 18.8882 10.5115C18.8827 10.4644 18.8775 10.4175 18.8707 10.3733C18.853 10.3052 18.8372 10.2338 18.8226 10.1602C18.8068 10.085 18.7936 10.0062 18.7664 9.93546C18.6547 9.65163 18.7526 9.32906 19.0012 9.15308L20.8171 7.877L18.605 4.55377L16.7819 5.82823C16.5259 6.00744 16.1807 5.98419 15.9518 5.77205C15.8846 5.70973 15.8071 5.66291 15.7296 5.61189L15.5782 5.51147C15.512 5.46239 15.4135 5.39491 15.2223 5.30708C14.9489 5.18212 14.7945 4.8857 14.8481 4.58961L15.2424 2.40006L11.365 1.64223L10.9459 3.8589C10.8998 4.1156 10.7073 4.32096 10.4545 4.38393C10.3176 4.41751 10.1849 4.43559 10.0557 4.45141C10.0108 4.45722 9.96659 4.46271 9.92429 4.46917C9.85616 4.48725 9.78479 4.50372 9.71279 4.5189C9.64046 4.53407 9.56523 4.54731 9.49903 4.57379C9.21069 4.69358 8.87875 4.59155 8.70278 4.33355L7.44833 2.48789L4.20679 4.75622L5.45736 6.64096C5.62849 6.89282 5.60589 7.22895 5.40182 7.45498C5.34079 7.52311 5.29527 7.60125 5.24554 7.67971L5.14576 7.8347C5.09765 7.90122 5.03146 8.00261 4.94202 8.20022C4.8177 8.47791 4.52548 8.63258 4.21809 8.57994L2.0647 8.18052L1.33141 12.1483L3.46671 12.5832C3.72341 12.631 3.92781 12.8254 3.98916 13.0792C4.02209 13.2174 4.03953 13.3517 4.05535 13.4812C4.06181 13.5367 4.06859 13.591 4.07698 13.6433C4.09087 13.722 4.12606 13.9235 4.17708 14.0553C4.28751 14.3362 4.1929 14.6559 3.94815 14.8322L2.16997 16.1153L4.39245 19.4447L6.21713 18.1725C6.33143 18.0931 6.46447 18.0534 6.59653 18.0534Z" fill="#043752"/>
</svg>
