<svg width="14" height="15" viewBox="0 0 14 15" fill="none" xmlns="http://www.w3.org/2000/svg">
<path d="M12.5625 4.5293H9.59375V1.56055C9.59375 1.40307 9.53119 1.25205 9.41985 1.1407C9.3085 1.02935 9.15747 0.966797 9 0.966797H4.25C4.09253 0.966797 3.9415 1.02935 3.83015 1.1407C3.71881 1.25205 3.65625 1.40307 3.65625 1.56055V4.5293H0.6875C0.530028 4.5293 0.379005 4.59185 0.267655 4.7032C0.156305 4.81455 0.09375 4.96557 0.09375 5.12305V9.87305C0.09375 10.0305 0.156305 10.1815 0.267655 10.2929C0.379005 10.4042 0.530028 10.4668 0.6875 10.4668H3.65625V13.4355C3.65625 13.593 3.71881 13.744 3.83015 13.8554C3.9415 13.9667 4.09253 14.0293 4.25 14.0293H9C9.15747 14.0293 9.3085 13.9667 9.41985 13.8554C9.53119 13.744 9.59375 13.593 9.59375 13.4355V10.4668H12.5625C12.72 10.4668 12.871 10.4042 12.9823 10.2929C13.0937 10.1815 13.1562 10.0305 13.1562 9.87305V5.12305C13.1562 4.96557 13.0937 4.81455 12.9823 4.7032C12.871 4.59185 12.72 4.5293 12.5625 4.5293ZM11.9688 9.2793H9C8.84253 9.2793 8.6915 9.34185 8.58015 9.4532C8.46881 9.56455 8.40625 9.71557 8.40625 9.87305V12.8418H4.84375V9.87305C4.84375 9.71557 4.78119 9.56455 4.66985 9.4532C4.5585 9.34185 4.40747 9.2793 4.25 9.2793H1.28125V5.7168H4.25C4.40747 5.7168 4.5585 5.65424 4.66985 5.54289C4.78119 5.43154 4.84375 5.28052 4.84375 5.12305V2.1543H8.40625V5.12305C8.40625 5.28052 8.46881 5.43154 8.58015 5.54289C8.6915 5.65424 8.84253 5.7168 9 5.7168H11.9688V9.2793Z" fill="#043752"/>
</svg>
