<svg width="32" height="32" viewBox="0 0 32 32" fill="none" xmlns="http://www.w3.org/2000/svg">
<path d="M8.86223 31.9977H3.75179C1.68419 31.9977 0.00205994 30.3156 0.00205994 28.248V3.74973C0.00205994 1.68213 1.68419 0 3.75179 0H15.7509C16.7525 0 17.6941 0.390034 18.4024 1.0983L20.9022 3.59812C21.6104 4.30638 22.0005 5.248 22.0005 6.24955V13.1352C22.0005 13.8256 21.4409 14.3851 20.7506 14.3851C20.0602 14.3851 19.5007 13.8256 19.5007 13.1352V6.24955C19.5007 5.9157 19.3706 5.60185 19.1346 5.36574L16.6347 2.86592C16.3986 2.62987 16.0848 2.49982 15.7509 2.49982H3.75179C3.06259 2.49982 2.50188 3.06053 2.50188 3.74973V28.248C2.50188 28.9372 3.06259 29.4979 3.75179 29.4979H8.8623C9.55262 29.4979 10.1122 30.0575 10.1122 30.7478C10.1122 31.4381 9.55256 31.9977 8.86223 31.9977Z" fill="#fff"/>
<path d="M13.225 31.265C12.4508 30.4909 12.2692 29.318 12.7731 28.3465L14.589 24.846C14.7662 24.5044 14.994 24.1932 15.2661 23.9212L25.5986 13.5887C27.0607 12.1267 29.4394 12.1267 30.9015 13.5887C32.3635 15.0507 32.3635 17.4296 30.9015 18.8916L20.569 29.2241C20.297 29.4961 19.9858 29.724 19.6441 29.9011L16.1436 31.717C15.1718 32.2211 13.9989 32.039 13.225 31.265ZM27.3661 15.3563L17.0337 25.6888C16.943 25.7795 16.8671 25.8833 16.808 25.9971L14.9922 29.4976L18.4932 27.6822C18.607 27.6231 18.7107 27.5472 18.8014 27.4565L29.1338 17.124C29.6212 16.6367 29.6212 15.8437 29.1338 15.3563C28.6465 14.869 27.8535 14.869 27.3661 15.3563Z" fill="#fff"/>
<path d="M15.7509 11.9998H6.2516C5.56128 11.9998 5.00169 11.4402 5.00169 10.7499C5.00169 10.0596 5.56128 9.5 6.2516 9.5H15.7509C16.4412 9.5 17.0008 10.0596 17.0008 10.7499C17.0008 11.4402 16.4412 11.9998 15.7509 11.9998Z" fill="#fff"/>
<path d="M15.7509 16.9979H6.2516C5.56128 16.9979 5.00169 16.4383 5.00169 15.748C5.00169 15.0576 5.56128 14.498 6.2516 14.498H15.7509C16.4412 14.498 17.0008 15.0576 17.0008 15.748C17.0008 16.4383 16.4412 16.9979 15.7509 16.9979Z" fill="#fff"/>
<path d="M10.7513 21.9979H6.2516C5.56128 21.9979 5.00169 21.4383 5.00169 20.748C5.00169 20.0576 5.56128 19.498 6.2516 19.498H10.7513C11.4416 19.498 12.0012 20.0576 12.0012 20.748C12.0012 21.4383 11.4415 21.9979 10.7513 21.9979Z" fill="#fff"/>
</svg>
