<svg width="38" height="39" viewBox="0 0 38 39" fill="none" xmlns="http://www.w3.org/2000/svg">
<path d="M19 8.99902H24.9375V10.1865H19V8.99902Z" fill="#fff"/>
<path d="M19 11.374H24.9375V12.5615H19V11.374Z" fill="#fff"/>
<path d="M19 13.749H24.9375V14.9365H19V13.749Z" fill="#fff"/>
<path d="M19 16.124H24.9375V17.3115H19V16.124Z" fill="#fff"/>
<path d="M12.3927 10.0785C12.8276 10.2225 13.2974 10.2225 13.7323 10.0785C13.8376 10.4501 14.0609 10.7774 14.3684 11.0111C14.676 11.2448 15.0512 11.3722 15.4375 11.374H16.0312C16.1887 11.374 16.3397 11.4366 16.4511 11.5479C16.5624 11.6593 16.625 11.8103 16.625 11.9678V13.749H17.8125V11.9678C17.8125 11.4954 17.6248 11.0423 17.2908 10.7082C16.9567 10.3742 16.5037 10.1865 16.0312 10.1865H15.4375C15.28 10.1865 15.129 10.124 15.0177 10.0126C14.9063 9.90127 14.8438 9.75025 14.8438 9.59277V9.36596C15.2242 8.93734 15.4353 8.38466 15.4375 7.81152V6.62402C15.4375 5.99413 15.1873 5.39004 14.7419 4.94464C14.2965 4.49925 13.6924 4.24902 13.0625 4.24902C12.4326 4.24902 11.8285 4.49925 11.3831 4.94464C10.9377 5.39004 10.6875 5.99413 10.6875 6.62402V7.81152C10.6897 8.38466 10.9008 8.93734 11.2812 9.36596V9.59277C11.2812 9.75025 11.2187 9.90127 11.1073 10.0126C10.996 10.124 10.845 10.1865 10.6875 10.1865H10.0938C9.62133 10.1865 9.16826 10.3742 8.83422 10.7082C8.50017 11.0423 8.3125 11.4954 8.3125 11.9678V13.749H9.5V11.9678C9.5 11.8103 9.56256 11.6593 9.6739 11.5479C9.78525 11.4366 9.93628 11.374 10.0938 11.374H10.6875C11.0738 11.3722 11.449 11.2448 11.7566 11.0111C12.0641 10.7774 12.2874 10.4501 12.3927 10.0785ZM11.875 6.62402C11.875 6.30908 12.0001 6.00703 12.2228 5.78433C12.4455 5.56163 12.7476 5.43652 13.0625 5.43652C13.3774 5.43652 13.6795 5.56163 13.9022 5.78433C14.1249 6.00703 14.25 6.30908 14.25 6.62402V7.81152C14.25 8.12647 14.1249 8.42851 13.9022 8.65121C13.6795 8.87391 13.3774 8.99902 13.0625 8.99902C12.7476 8.99902 12.4455 8.87391 12.2228 8.65121C12.0001 8.42851 11.875 8.12647 11.875 7.81152V6.62402Z" fill="#fff"/>
<path d="M19.5938 7.81152H24.3438C24.5012 7.81152 24.6522 7.74897 24.7636 7.63762C24.8749 7.52627 24.9375 7.37525 24.9375 7.21777V4.84277C24.9375 4.6853 24.8749 4.53428 24.7636 4.42293C24.6522 4.31158 24.5012 4.24902 24.3438 4.24902H19.5938C19.4363 4.24902 19.2853 4.31158 19.1739 4.42293C19.0626 4.53428 19 4.6853 19 4.84277V7.21777C19 7.37525 19.0626 7.52627 19.1739 7.63762C19.2853 7.74897 19.4363 7.81152 19.5938 7.81152ZM20.1875 5.43652H23.75V6.62402H20.1875V5.43652Z" fill="#fff"/>
<path d="M36.8125 17.3115C36.8116 16.367 36.4359 15.4614 35.768 14.7935C35.1001 14.1256 34.1945 13.75 33.25 13.749H29.6875V4.84277C29.6875 4.6853 29.6249 4.53428 29.5136 4.42293C29.4022 4.31158 29.2512 4.24902 29.0938 4.24902H27.3125V2.46777C27.3125 2.3103 27.2499 2.15928 27.1386 2.04793C27.0272 1.93658 26.8762 1.87402 26.7188 1.87402H6.53125C6.37378 1.87402 6.22275 1.93658 6.11141 2.04793C6.00006 2.15928 5.9375 2.3103 5.9375 2.46777V15.5303H4.15625C3.36918 15.5312 2.61461 15.8443 2.05807 16.4008C1.50152 16.9574 1.18844 17.712 1.1875 18.499V34.5303C1.18844 35.3173 1.50152 36.0719 2.05807 36.6285C2.61461 37.185 3.36918 37.4981 4.15625 37.499H29.0938C29.8574 37.4964 30.5907 37.1995 31.1412 36.6702C31.6916 36.1408 32.0169 35.4197 32.0494 34.6567L36.7911 17.4695C36.8053 17.418 36.8125 17.3649 36.8125 17.3115ZM28.5 5.43652V18.499H27.3125V5.43652H28.5ZM7.125 3.06152H26.125V18.499H14.4958L11.701 15.7042C11.5897 15.5929 11.4387 15.5303 11.2812 15.5303H7.125V3.06152ZM30.875 34.5303C30.875 35.0027 30.6873 35.4558 30.3533 35.7898C30.0192 36.1239 29.5662 36.3115 29.0938 36.3115H4.15625C3.68383 36.3115 3.23077 36.1239 2.89672 35.7898C2.56267 35.4558 2.375 35.0027 2.375 34.5303V18.499C2.375 18.0266 2.56267 17.5735 2.89672 17.2395C3.23077 16.9054 3.68383 16.7178 4.15625 16.7178H11.0354L13.8302 19.5126C13.9415 19.6239 14.0925 19.6865 14.25 19.6865H29.0938C29.5662 19.6865 30.0192 19.8742 30.3533 20.2082C30.6873 20.5423 30.875 20.9954 30.875 21.4678V34.5303ZM32.0625 30.1454V21.4678C32.0616 20.7837 31.8249 20.1207 31.3923 19.5908C30.9597 19.0608 30.3576 18.6962 29.6875 18.5584V14.9365H33.25C33.8669 14.9362 34.4598 15.176 34.9031 15.6051C35.3463 16.0342 35.6053 16.6189 35.625 17.2355L32.0625 30.1454Z" fill="#fff"/>
<path d="M22.5625 25.0303H19.5938V22.0615C19.5938 21.9041 19.5312 21.753 19.4198 21.6417C19.3085 21.5303 19.1575 21.4678 19 21.4678H14.25C14.0925 21.4678 13.9415 21.5303 13.8302 21.6417C13.7188 21.753 13.6562 21.9041 13.6562 22.0615V25.0303H10.6875C10.53 25.0303 10.379 25.0928 10.2677 25.2042C10.1563 25.3155 10.0938 25.4666 10.0938 25.624V30.374C10.0938 30.5315 10.1563 30.6825 10.2677 30.7939C10.379 30.9052 10.53 30.9678 10.6875 30.9678H13.6562V33.9365C13.6562 34.094 13.7188 34.245 13.8302 34.3564C13.9415 34.4677 14.0925 34.5303 14.25 34.5303H19C19.1575 34.5303 19.3085 34.4677 19.4198 34.3564C19.5312 34.245 19.5938 34.094 19.5938 33.9365V30.9678H22.5625C22.72 30.9678 22.871 30.9052 22.9823 30.7939C23.0937 30.6825 23.1562 30.5315 23.1562 30.374V25.624C23.1562 25.4666 23.0937 25.3155 22.9823 25.2042C22.871 25.0928 22.72 25.0303 22.5625 25.0303ZM21.9688 29.7803H19C18.8425 29.7803 18.6915 29.8428 18.5802 29.9542C18.4688 30.0655 18.4062 30.2166 18.4062 30.374V33.3428H14.8438V30.374C14.8438 30.2166 14.7812 30.0655 14.6698 29.9542C14.5585 29.8428 14.4075 29.7803 14.25 29.7803H11.2812V26.2178H14.25C14.4075 26.2178 14.5585 26.1552 14.6698 26.0439C14.7812 25.9325 14.8438 25.7815 14.8438 25.624V22.6553H18.4062V25.624C18.4062 25.7815 18.4688 25.9325 18.5802 26.0439C18.6915 26.1552 18.8425 26.2178 19 26.2178H21.9688V29.7803Z" fill="#fff"/>
</svg>
