<svg width="421" height="461" viewBox="0 0 421 461" fill="none" xmlns="http://www.w3.org/2000/svg">
<path fill-rule="evenodd" clip-rule="evenodd" d="M115.928 269.338C114.602 269.34 113.274 268.842 112.249 267.842C110.164 265.81 110.126 262.473 112.158 260.39C132.06 239.984 161.475 228.281 192.858 228.281L208.991 228.28C211.908 228.28 214.259 230.641 214.259 233.552C214.261 236.461 211.908 238.822 208.989 238.822L192.859 238.821C164.303 238.821 137.63 249.366 119.697 267.75C118.674 268.807 117.3 269.34 115.928 269.338ZM415.71 439.057H138.026C135.115 439.057 132.754 436.698 132.754 433.788C132.754 430.875 135.115 428.516 138.024 428.516L410.44 428.516V314.704C410.44 272.861 368.561 238.822 317.075 238.822L300.936 238.821C298.025 238.821 295.665 236.462 295.665 233.552C295.666 230.64 298.025 228.281 300.935 228.281L317.076 228.28C374.371 228.28 420.979 267.051 420.979 314.705L420.98 433.787C420.98 436.697 418.619 439.057 415.71 439.057Z" fill="#fff"/>
<path fill-rule="evenodd" clip-rule="evenodd" d="M208.991 238.821C206.08 238.821 203.719 236.462 203.719 233.551L203.721 202.816C203.721 199.906 206.079 197.547 208.989 197.547C211.908 197.546 214.259 199.906 214.259 202.817L214.261 233.55C214.261 236.461 211.908 238.821 208.991 238.821Z" fill="#fff"/>
<path fill-rule="evenodd" clip-rule="evenodd" d="M300.934 238.821C298.024 238.821 295.663 236.462 295.663 233.551L295.664 203.99C295.664 201.079 298.024 198.721 300.933 198.721C303.854 198.72 306.204 201.081 306.204 203.991L306.205 233.551C306.205 236.461 303.852 238.821 300.934 238.821Z" fill="#fff"/>
<path fill-rule="evenodd" clip-rule="evenodd" d="M255.517 229.726C255.462 229.726 255.405 229.728 255.36 229.728C216.979 229.627 185.63 195.647 175.492 143.154C174.944 140.295 176.809 137.531 179.664 136.98C182.528 136.426 185.291 138.297 185.84 141.155C194.981 188.472 222.275 219.102 255.387 219.187C255.424 219.185 255.478 219.187 255.524 219.187C288.502 219.185 315.821 188.86 325.145 141.87C325.712 139.016 328.484 137.159 331.339 137.726C334.194 138.294 336.051 141.067 335.484 143.922C330.206 170.539 319.509 192.634 304.567 207.82C290.661 221.95 273.238 229.728 255.517 229.726Z" fill="#fff"/>
<path fill-rule="evenodd" clip-rule="evenodd" d="M302.629 59.6041C302.995 59.6041 303.36 59.6434 303.726 59.7217C318.787 62.9473 328.695 78.3465 333.179 105.492C334.406 112.932 335.045 120.201 335.365 126.334C345.476 100.119 331.349 56.5932 329.327 50.6715C312.117 26.8503 292.005 13.5 269.524 10.9869C230.747 6.6443 197.186 36.0754 196.857 36.3733C174.368 55.7419 165.51 78.9004 170.46 105.264C171.641 111.557 173.507 117.317 175.511 122.263C176.563 110.21 178.667 98.8709 178.814 98.094C179.245 95.7628 181.184 94.0112 183.553 93.8128C274.42 86.1796 298.547 61.5158 298.785 61.2674C299.792 60.195 301.182 59.6047 302.629 59.6041ZM180.863 148.587C179.245 148.589 177.661 147.837 176.645 146.472C176.153 145.809 164.485 130.017 160.176 107.611C156.151 86.6591 158.035 55.9259 189.876 28.4758C191.863 26.7042 227.444 -4.28682 270.613 0.502268C296.415 3.35847 319.207 18.3833 338.348 45.1536C338.633 45.5472 338.851 45.9795 339.016 46.4354C340.096 49.4198 364.956 119.837 333.773 146.877C332.183 148.255 329.922 148.555 328.027 147.643C326.135 146.73 324.962 144.778 325.054 142.677C325.795 124.751 323.297 78.3973 303.927 70.7547C295.602 77.4633 265.388 96.9238 188.485 103.961C186.792 114.211 184.304 133.33 186.042 142.319C186.51 144.73 185.246 147.145 182.995 148.137C182.311 148.44 181.586 148.587 180.863 148.587Z" fill="#fff"/>
<path fill-rule="evenodd" clip-rule="evenodd" d="M254.968 309.214C253.183 309.214 251.526 308.316 250.557 306.826L204.579 236.431C202.988 233.994 203.674 230.729 206.117 229.137C208.551 227.544 211.817 228.231 213.408 230.668L254.968 294.305L296.526 230.667C298.118 228.229 301.384 227.545 303.817 229.137C306.26 230.729 306.946 233.994 305.355 236.432L259.378 306.826C258.408 308.316 256.751 309.214 254.968 309.214Z" fill="#fff"/>
<path fill-rule="evenodd" clip-rule="evenodd" d="M221.781 439.059C219.595 439.059 217.553 437.693 216.793 435.513L179.427 327.731C178.705 325.627 179.371 323.294 181.1 321.899L194.03 311.498L174.421 274.211C173.488 272.429 173.652 270.269 174.842 268.645L202.832 230.436C204.049 228.778 206.106 227.978 208.119 228.385C210.133 228.789 211.733 230.328 212.209 232.326L260.091 432.561C260.768 435.392 259.019 438.236 256.192 438.913C253.365 439.588 250.519 437.844 249.842 435.014L204.607 245.849L185.282 272.219L205.383 310.434C206.555 312.664 205.987 315.415 204.02 316.993L190.608 327.785L226.759 432.061C227.71 434.81 226.254 437.814 223.5 438.767C222.934 438.964 222.347 439.059 221.781 439.059Z" fill="#fff"/>
<path fill-rule="evenodd" clip-rule="evenodd" d="M288.155 439.06C287.586 439.06 287.001 438.965 286.433 438.768C283.681 437.814 282.225 434.811 283.176 432.062L319.327 327.786L305.915 316.994C303.947 315.415 303.379 312.665 304.55 310.435L324.643 272.22L305.328 245.85L260.093 435.014C259.416 437.843 256.578 439.59 253.742 438.914C250.915 438.236 249.167 435.393 249.844 432.563L297.726 232.326C298.201 230.327 299.792 228.791 301.805 228.386C303.827 227.978 305.886 228.781 307.103 230.437L335.093 268.644C336.283 270.268 336.446 272.431 335.504 274.213L315.898 311.499L328.824 321.898C330.564 323.293 331.23 325.63 330.507 327.732L293.141 435.512C292.381 437.692 290.34 439.06 288.155 439.06Z" fill="#fff"/>
<path fill-rule="evenodd" clip-rule="evenodd" d="M84.1785 460.295C37.7614 460.295 0 422.535 0 376.121C0.000885829 343.909 18.391 314.604 47.1482 300.511L47.1488 186.554C47.1488 183.645 49.509 181.285 52.4189 181.285C55.3303 181.284 57.6887 183.645 57.6887 186.556L57.6893 303.87C57.6893 305.96 56.4542 307.853 54.5414 308.695C27.8159 320.461 10.5405 346.927 10.5405 376.121C10.5414 416.721 43.5709 449.756 84.1773 449.756C124.776 449.755 157.805 416.723 157.805 376.121C157.805 346.927 140.54 320.461 113.804 308.695C111.892 307.851 110.657 305.961 110.657 303.871L110.657 186.554C110.657 183.645 113.017 181.285 115.927 181.285C118.837 181.284 121.197 183.645 121.197 186.556L121.198 300.51C149.955 314.604 168.345 343.911 168.345 376.121C168.345 422.535 130.585 460.295 84.1785 460.295Z" fill="#fff"/>
<path fill-rule="evenodd" clip-rule="evenodd" d="M63.7936 332.391C46.8379 340.311 35.9402 357.357 35.9402 376.121C35.9414 402.714 57.5795 424.352 84.1774 424.352C110.768 424.352 132.406 402.716 132.406 376.121C132.408 357.357 121.508 340.311 104.554 332.393L63.7936 332.391ZM84.1786 434.891C51.7708 434.891 25.3994 408.527 25.3994 376.121C25.4009 352.817 39.1885 331.692 60.5346 322.299C61.2034 322.003 61.9257 321.852 62.6574 321.852L105.698 321.851C106.431 321.851 107.152 322.004 107.82 322.299C129.159 331.691 142.946 352.819 142.946 376.121C142.948 408.527 116.586 434.892 84.1786 434.891Z" fill="#fff"/>
<path fill-rule="evenodd" clip-rule="evenodd" d="M108.617 364.372C100.52 364.372 93.1348 361.926 85.5312 359.409C73.4275 355.402 59.7108 350.863 38.8126 354.398C35.941 354.885 33.2224 352.949 32.7373 350.079C32.2539 347.209 34.1829 344.489 37.056 344.005C60.536 340.032 76.235 345.228 88.8436 349.403C103.301 354.187 112.852 357.35 128.635 346.872C131.071 345.263 134.336 345.923 135.946 348.349C137.558 350.772 136.898 354.045 134.464 355.654C124.685 362.149 116.329 364.371 108.617 364.372Z" fill="#fff"/>
<path fill-rule="evenodd" clip-rule="evenodd" d="M44.7237 154.537C42.0538 154.537 39.8832 156.705 39.8832 159.372L39.8835 176.449C39.8835 179.115 42.052 181.284 44.7237 181.284L123.623 181.283C126.295 181.283 128.462 179.115 128.462 176.449L128.463 159.37C128.463 156.704 126.293 154.537 123.622 154.537L44.7237 154.537ZM123.623 191.823H44.7237C36.2419 191.823 29.3428 184.927 29.3428 176.449L29.3431 159.37C29.3431 150.893 36.2419 143.996 44.7237 143.996L123.623 143.996C132.105 143.996 139.002 150.893 139.002 159.372L139.003 176.449C139.003 184.927 132.104 191.824 123.623 191.823Z" fill="#fff"/>
<path fill-rule="evenodd" clip-rule="evenodd" d="M95.9541 292.93H80.0795C77.1686 292.93 74.8076 290.571 74.8076 287.661C74.8094 284.749 77.1686 282.391 80.0783 282.391L95.9541 282.39C98.8632 282.39 101.223 284.749 101.223 287.661C101.224 290.571 98.8626 292.93 95.9541 292.93Z" fill="#fff"/>
<path fill-rule="evenodd" clip-rule="evenodd" d="M95.9541 273.341H80.0795C77.1686 273.341 74.8076 270.983 74.8076 268.071C74.8094 265.16 77.1686 262.802 80.0783 262.802L95.9541 262.801C98.8632 262.801 101.223 265.161 101.223 268.071C101.224 270.982 98.8626 273.341 95.9541 273.341Z" fill="#fff"/>
<path fill-rule="evenodd" clip-rule="evenodd" d="M95.9541 253.75H80.0795C77.1686 253.75 74.8076 251.391 74.8076 248.48C74.8094 245.569 77.1686 243.211 80.0783 243.211L95.9541 243.21C98.8632 243.21 101.223 245.57 101.223 248.48C101.224 251.391 98.8626 253.75 95.9541 253.75Z" fill="#fff"/>
<path fill-rule="evenodd" clip-rule="evenodd" d="M95.9541 234.16H80.0795C77.1686 234.16 74.8076 231.8 74.8076 228.89C74.8094 225.978 77.1686 223.619 80.0783 223.619L95.9541 223.619C98.8632 223.619 101.223 225.979 101.223 228.89C101.224 231.8 98.8626 234.16 95.9541 234.16Z" fill="#fff"/>
<path fill-rule="evenodd" clip-rule="evenodd" d="M95.9541 214.57H80.0795C77.1686 214.57 74.8076 212.211 74.8076 209.3C74.8094 206.388 77.1686 204.03 80.0783 204.03L95.9541 204.029C98.8632 204.029 101.223 206.389 101.223 209.3C101.224 212.211 98.8626 214.57 95.9541 214.57Z" fill="#fff"/>
</svg>
