<svg width="62" height="58" viewBox="0 0 62 58" fill="none" xmlns="http://www.w3.org/2000/svg">
<rect y="0.566406" width="62" height="57" rx="28.5" fill="white"/>
<g clip-path="url(#clip0_3976_9418)">
<path d="M21.5871 44.0128C21.2212 44.0128 20.9258 43.717 20.9258 43.3515V40.1632C20.9258 39.7977 21.2212 39.502 21.5871 39.502C21.9526 39.502 22.2484 39.7977 22.2484 40.1632V43.3515C22.2484 43.7164 21.9519 44.0128 21.5871 44.0128Z" fill="#043752"/>
<path d="M35.5083 44.9846H14.6613C14.2954 44.9846 14 44.6892 14 44.3233V37.8467C14 31.8812 17.6584 26.5441 23.1027 24.5673C23.3281 24.4847 23.5787 24.5318 23.7585 24.6871C25.2603 25.9732 27.1551 26.6823 29.0947 26.6823C31.0434 26.6823 32.9439 25.9693 34.4463 24.6739C34.6275 24.5186 34.8803 24.4714 35.1044 24.5534C36.5103 25.0649 37.8203 25.8088 38.9979 26.7656C39.1593 26.8957 39.2501 27.0949 39.242 27.3026C39.2349 27.5095 39.1309 27.702 38.9611 27.8205L38.881 27.8767L38.5174 27.3581L38.1648 27.7927C37.2 27.009 36.138 26.3839 35.0024 25.9303C33.3117 27.2709 31.2293 28.0055 29.0947 28.0055C26.9697 28.0055 24.8935 27.2761 23.2051 25.9441C18.475 27.8295 15.3226 32.5645 15.3226 37.8467V43.662H35.5083V44.9846Z" fill="#043752"/>
<path d="M29.0947 28.005C23.7156 28.005 19.34 23.4474 19.34 17.8464C19.34 12.2452 23.7156 7.6875 29.0947 7.6875C34.4735 7.6875 38.85 12.2445 38.85 17.8454C38.85 23.4467 34.4735 28.005 29.0947 28.005ZM29.0947 9.01008C24.445 9.01008 20.6626 12.9739 20.6626 17.8454C20.6626 22.7179 24.445 26.6818 29.0947 26.6818C33.744 26.6818 37.5274 22.7179 37.5274 17.8454C37.5274 12.9739 33.744 9.01008 29.0947 9.01008Z" fill="#043752"/>
<path d="M43.4974 41.6777C43.2217 41.6777 42.9446 41.6529 42.6689 41.6019C41.4554 41.3765 40.3954 40.6768 39.6824 39.6299C38.9737 38.5857 38.7044 37.3345 38.9246 36.1084C39.1461 34.8798 39.8345 33.8052 40.8629 33.0816C41.8952 32.3564 43.1332 32.0832 44.3479 32.306C45.562 32.5317 46.6214 33.2318 47.3328 34.2786L47.3383 34.286C48.0399 35.348 48.3069 36.5967 48.0916 37.7994C47.8697 39.0274 47.1823 40.102 46.1532 40.8256C45.355 41.3862 44.4345 41.6777 43.4974 41.6777ZM43.5207 33.5521C42.8526 33.5521 42.1955 33.761 41.624 34.1637C40.882 34.6848 40.386 35.4585 40.2275 36.3425C40.0686 37.226 40.2643 38.1294 40.7777 38.8866C41.2895 39.639 42.0473 40.1411 42.911 40.3019C43.7706 40.4604 44.6534 40.2635 45.3928 39.7436C46.1348 39.2224 46.6308 38.4488 46.7893 37.5653C46.9446 36.6997 46.7483 35.7949 46.2365 35.018C45.726 34.2676 44.9695 33.7662 44.1064 33.6063C43.9107 33.5705 43.7157 33.5521 43.5207 33.5521Z" fill="#043752"/>
<path d="M43.6647 48.6869C43.5807 48.6869 43.4955 48.6792 43.4109 48.6637L39.5349 47.9455C38.7945 47.808 38.3195 47.1151 38.4538 46.3679L38.7631 44.6459C38.7202 44.6175 38.6792 44.5884 38.6411 44.5593L38.5914 44.5267L37.1609 45.5325C36.9023 45.7305 36.5413 45.8196 36.191 45.7608C35.829 45.7017 35.5038 45.4935 35.2975 45.1893L33.0637 41.9042C32.8687 41.6391 32.7854 41.2858 32.8442 40.93C32.9029 40.5709 33.106 40.2461 33.4021 40.0385L34.8022 39.0281C34.7909 38.9739 34.7815 38.9222 34.7731 38.8741C34.7683 38.8496 34.7644 38.8244 34.7605 38.7986L33.0702 38.4854C32.7237 38.4205 32.4121 38.2128 32.2165 37.9145C32.0156 37.6077 31.9514 37.2413 32.034 36.8822L32.7363 32.9742C32.8019 32.609 32.9995 32.2961 33.2943 32.092C33.5875 31.8889 33.9459 31.814 34.3043 31.8802L35.9821 32.1918C36.0082 32.1502 36.0353 32.1104 36.0625 32.0733L36.1041 32.0058L35.1064 30.5386C34.912 30.2748 34.8287 29.9222 34.8861 29.5664C34.9449 29.2073 35.148 28.8821 35.4435 28.6736L38.6779 26.4001C38.9372 26.2031 39.2988 26.1159 39.6482 26.1721C40.0098 26.2309 40.3353 26.4391 40.5416 26.7433L41.5342 28.2028C41.5526 28.1983 41.571 28.1931 41.5891 28.1882C41.6108 28.1818 41.6334 28.1763 41.6563 28.1724C41.6795 28.1679 41.7034 28.1637 41.7273 28.1605L42.0373 26.4352C42.1041 26.0688 42.3018 25.7568 42.5969 25.5525C42.8891 25.35 43.2469 25.2761 43.6059 25.3416L47.4632 26.0565C48.2039 26.1937 48.6786 26.887 48.5443 27.6342L48.2343 29.3562C48.2779 29.3846 48.3189 29.4136 48.3573 29.4427L48.4067 29.4753L49.8371 28.4695C50.0964 28.2722 50.4581 28.1844 50.8074 28.2412C51.1691 28.3 51.4946 28.5082 51.7009 28.8127L53.9172 32.0966C54.1103 32.3584 54.1936 32.711 54.1362 33.0665C54.0774 33.4256 53.8743 33.7511 53.5789 33.9593L52.1345 34.9739C52.1404 35.0004 52.1465 35.0262 52.1529 35.0504C52.1591 35.0717 52.1643 35.0927 52.1675 35.1153C52.1723 35.1411 52.1768 35.167 52.1807 35.1934L53.8704 35.5067C54.5475 35.6326 55.0219 36.2593 54.9993 36.9955C54.998 37.0278 54.9947 37.0601 54.9886 37.0921L54.2805 41.0327C54.2143 41.3982 54.0167 41.7111 53.7209 41.9155C53.4274 42.1176 53.0703 42.1899 52.7112 42.1257L51.0348 41.8141C51.0083 41.8557 50.9812 41.8955 50.954 41.9326L50.9124 41.9994L51.9105 43.4673C52.1055 43.7327 52.1888 44.0857 52.13 44.4415C52.0709 44.8005 51.8682 45.1254 51.5717 45.333L48.3386 47.6059C48.0796 47.8035 47.7193 47.8919 47.3686 47.8345C47.0076 47.775 46.6821 47.5674 46.4752 47.2639L45.4874 45.8102C45.4442 45.819 45.4019 45.827 45.3609 45.8348C45.3373 45.8386 45.314 45.8435 45.2895 45.8467L44.9795 47.5713C44.914 47.9365 44.7164 48.2491 44.4212 48.4535C44.1971 48.6068 43.9359 48.6869 43.6647 48.6869ZM38.5965 43.0534C38.7586 43.0534 38.9201 43.1131 39.0463 43.23C39.1138 43.2923 39.1913 43.3391 39.2685 43.3901L39.4199 43.4906C39.4861 43.5396 39.5839 43.6062 39.7757 43.695C40.0489 43.8212 40.2029 44.116 40.1493 44.4124L39.756 46.602L43.6521 47.363L44.0715 45.1464C44.1177 44.8884 44.3108 44.6837 44.5656 44.6207C44.7015 44.5878 44.8352 44.5697 44.9643 44.5539C45.0183 44.5467 45.0712 44.5406 45.1222 44.5316C45.2023 44.5167 45.3967 44.4806 45.5217 44.4308C45.8113 44.3152 46.1413 44.4163 46.3153 44.6724L47.5698 46.518L50.8113 44.249L49.5607 42.3643C49.3903 42.1131 49.4119 41.7779 49.615 41.5516C49.6767 41.4828 49.7228 41.4034 49.7732 41.3243L49.8723 41.1709C49.9205 41.104 49.9866 41.0027 50.0761 40.805C50.2004 40.5274 50.4946 40.3727 50.8 40.4253L52.9531 40.8247L53.676 36.918C53.6699 36.8505 53.6415 36.8102 53.6289 36.8076L51.4758 36.4082C51.2188 36.3604 51.0138 36.1654 50.9534 35.9103C50.9205 35.7734 50.904 35.6397 50.8882 35.5115C50.8827 35.4644 50.8775 35.4175 50.8707 35.3733C50.853 35.3052 50.8372 35.2338 50.8226 35.1602C50.8068 35.085 50.7936 35.0062 50.7664 34.9355C50.6547 34.6516 50.7526 34.3291 51.0012 34.1531L52.8171 32.877L50.605 29.5538L48.7819 30.8282C48.5259 31.0074 48.1807 30.9842 47.9518 30.7721C47.8846 30.7097 47.8071 30.6629 47.7296 30.6119L47.5782 30.5115C47.512 30.4624 47.4135 30.3949 47.2223 30.3071C46.9489 30.1821 46.7945 29.8857 46.8481 29.5896L47.2424 27.4001L43.365 26.6422L42.9459 28.8589C42.8998 29.1156 42.7073 29.321 42.4545 29.3839C42.3176 29.4175 42.1849 29.4356 42.0557 29.4514C42.0108 29.4572 41.9666 29.4627 41.9243 29.4692C41.8562 29.4873 41.7848 29.5037 41.7128 29.5189C41.6405 29.5341 41.5652 29.5473 41.499 29.5738C41.2107 29.6936 40.8788 29.5915 40.7028 29.3336L39.4483 27.4879L36.2068 29.7562L37.4574 31.641C37.6285 31.8928 37.6059 32.229 37.4018 32.455C37.3408 32.5231 37.2953 32.6012 37.2455 32.6797L37.1458 32.8347C37.0977 32.9012 37.0315 33.0026 36.942 33.2002C36.8177 33.4779 36.5255 33.6326 36.2181 33.5799L34.0647 33.1805L33.3314 37.1483L35.4667 37.5832C35.7234 37.631 35.9278 37.8254 35.9892 38.0792C36.0221 38.2174 36.0395 38.3517 36.0553 38.4812C36.0618 38.5367 36.0686 38.591 36.077 38.6433C36.0909 38.722 36.1261 38.9235 36.1771 39.0553C36.2875 39.3362 36.1929 39.6559 35.9481 39.8322L34.17 41.1153L36.3925 44.4447L38.2171 43.1725C38.3314 43.0931 38.4645 43.0534 38.5965 43.0534Z" fill="#043752"/>
</g>
<defs>
<clipPath id="clip0_3976_9418">
<rect width="41" height="41" fill="white" transform="translate(14 7.6875)"/>
</clipPath>
</defs>
</svg>
