<svg width="18" height="11" viewBox="0 0 18 11" fill="none" xmlns="http://www.w3.org/2000/svg">
<path d="M9.04107 10.3319C8.87119 10.3329 8.70279 10.3003 8.54551 10.2361C8.38824 10.1718 8.2452 10.0772 8.12458 9.95756L0.379622 2.2126C0.136554 1.96953 0 1.63986 0 1.29611C0 0.952359 0.136554 0.622689 0.379622 0.379622C0.622689 0.136554 0.952359 0 1.29611 0C1.63986 0 1.96953 0.136554 2.2126 0.379622L9.04107 7.22101L15.8695 0.39253C16.1165 0.181059 16.4341 0.0705553 16.759 0.0831037C17.0839 0.095652 17.392 0.230328 17.6219 0.460217C17.8518 0.690106 17.9865 0.998277 17.999 1.32315C18.0116 1.64802 17.9011 1.96566 17.6896 2.2126L9.94465 9.95756C9.70422 10.196 9.37971 10.3305 9.04107 10.3319Z" fill="#043752" fill-opacity="0.8"/>
</svg>
