<svg width="25" height="25" viewBox="0 0 25 25" fill="none" xmlns="http://www.w3.org/2000/svg">
<path d="M23.3798 25.02C23.7944 25.02 24.2093 24.8613 24.5249 24.5455C25.1584 23.9123 25.1584 22.8884 24.5249 22.2552L2.76534 0.495414C2.13213 -0.137794 1.10832 -0.137794 0.475113 0.495414C-0.158392 1.12862 -0.158392 2.15243 0.475113 2.78564L22.2346 24.5455C22.5523 24.8628 22.9651 25.02 23.3798 25.02Z" fill="#043752"/>
<path d="M1.62023 25.02C2.03485 25.02 2.44948 24.8613 2.76534 24.5455L24.5249 2.78564C25.1584 2.15243 25.1584 1.12862 24.5249 0.495414C23.8917 -0.137794 22.8681 -0.137794 22.2346 0.495414L0.475114 22.2552C-0.158391 22.8884 -0.158391 23.9123 0.475114 24.5455C0.790977 24.8628 1.2056 25.02 1.62023 25.02V25.02Z" fill="#043752"/>
</svg>
