<svg width="20" height="20" viewBox="0 0 20 20" fill="none" xmlns="http://www.w3.org/2000/svg">
<path d="M10.0002 1.66699C10.0001 1.66699 9.99998 1.66699 9.9999 1.66699C9.99986 1.66699 9.99986 1.66699 9.99982 1.66699C9.99979 1.66699 9.99975 1.66699 9.99971 1.66699C7.23917 1.66711 4.74011 2.78561 2.93081 4.59409C2.93018 4.59471 2.92948 4.59522 2.92885 4.59585C2.92819 4.59651 2.92768 4.59721 2.92702 4.59788C1.12061 6.40539 0.00281245 8.90109 0.00042968 11.658C0.00042968 11.661 0 11.6638 0 11.6668C0 11.6697 0.000390618 11.6724 0.00042968 11.6752C0.00238277 14.0268 0.819243 16.2548 2.28613 18.0307C2.44445 18.2224 2.68003 18.3334 2.92862 18.3334H17.0709C17.3195 18.3334 17.555 18.2224 17.7134 18.0307C19.1824 16.2522 20 14.021 20 11.6668C20 6.14418 15.5228 1.66699 10.0002 1.66699ZM16.6669 16.6667H3.3326C2.4232 15.4567 1.8595 14.0238 1.70829 12.5001H4.16661C4.62683 12.5001 4.99991 12.127 4.99991 11.6668C4.99991 11.2066 4.62683 10.8335 4.16661 10.8335H1.70833C1.87469 9.15757 2.53761 7.62787 3.54779 6.39332L4.10715 6.95268C4.43258 7.27811 4.96023 7.27811 5.28565 6.95268C5.61107 6.62726 5.61107 6.09961 5.28565 5.77419L4.72625 5.21478C5.96079 4.20449 7.49045 3.54149 9.16648 3.37505V5.83364C9.16648 6.29386 9.53956 6.66694 9.99979 6.66694C10.46 6.66694 10.8331 6.29386 10.8331 5.83364V3.37497C12.5091 3.54133 14.0388 4.20433 15.2735 5.21463L14.7139 5.77419C14.3885 6.09961 14.3885 6.62726 14.7139 6.95268C15.0393 7.27811 15.567 7.27811 15.8924 6.95268L16.452 6.39308C17.4624 7.62771 18.1255 9.15753 18.2919 10.8335H15.833C15.3728 10.8335 14.9997 11.2066 14.9997 11.6668C14.9997 12.127 15.3728 12.5001 15.833 12.5001H18.2919C18.1407 14.0234 17.5766 15.4564 16.6669 16.6667Z" fill="#043752"/>
<path d="M12.4994 8.61914L7.78613 10.9766L10.1428 13.3332L12.4994 8.61914Z" fill="#043752"/>
<path d="M12.4997 14.167H7.49981C7.03958 14.167 6.6665 14.5401 6.6665 15.0003C6.6665 15.4605 7.03958 15.8336 7.49981 15.8336H12.4997C12.9599 15.8336 13.333 15.4605 13.333 15.0003C13.333 14.5401 12.9599 14.167 12.4997 14.167Z" fill="#043752"/>
</svg>
