<svg width="20" height="20" viewBox="0 0 20 20" fill="none" xmlns="http://www.w3.org/2000/svg">
<path d="M10.0002 1.66675C10.0001 1.66675 9.99998 1.66675 9.9999 1.66675C9.99986 1.66675 9.99986 1.66675 9.99982 1.66675C9.99979 1.66675 9.99975 1.66675 9.99971 1.66675C7.23917 1.66687 4.74011 2.78536 2.93081 4.59385C2.93018 4.59447 2.92948 4.59498 2.92885 4.5956C2.92819 4.59627 2.92768 4.59697 2.92702 4.59763C1.12061 6.40514 0.00281245 8.90084 0.00042968 11.6577C0.00042968 11.6607 0 11.6636 0 11.6666C0 11.6694 0.000390618 11.6722 0.00042968 11.675C0.00238277 14.0265 0.819243 16.2545 2.28613 18.0305C2.44445 18.2222 2.68003 18.3331 2.92862 18.3331H17.0709C17.3195 18.3331 17.555 18.2222 17.7134 18.0305C19.1824 16.252 20 14.0208 20 11.6666C20 6.14394 15.5228 1.66675 10.0002 1.66675ZM16.6669 16.6665H3.3326C2.4232 15.4565 1.8595 14.0235 1.70829 12.4999H4.16661C4.62683 12.4999 4.99991 12.1268 4.99991 11.6666C4.99991 11.2063 4.62683 10.8333 4.16661 10.8333H1.70833C1.87469 9.15732 2.53761 7.62762 3.54779 6.39307L4.10715 6.95244C4.43258 7.27786 4.96023 7.27786 5.28565 6.95244C5.61107 6.62701 5.61107 6.09937 5.28565 5.77394L4.72625 5.21454C5.96079 4.20424 7.49045 3.54125 9.16648 3.3748V5.83339C9.16648 6.29362 9.53956 6.6667 9.99979 6.6667C10.46 6.6667 10.8331 6.29362 10.8331 5.83339V3.37473C12.5091 3.54109 14.0388 4.20409 15.2735 5.21438L14.7139 5.77394C14.3885 6.09937 14.3885 6.62701 14.7139 6.95244C15.0393 7.27786 15.567 7.27786 15.8924 6.95244L16.452 6.39284C17.4624 7.62746 18.1255 9.15728 18.2919 10.8333H15.833C15.3728 10.8333 14.9997 11.2063 14.9997 11.6666C14.9997 12.1268 15.3728 12.4999 15.833 12.4999H18.2919C18.1407 14.0232 17.5766 15.4562 16.6669 16.6665Z" fill="#043752"/>
<path d="M12.4994 8.61914L7.78613 10.9766L10.1428 13.3332L12.4994 8.61914Z" fill="#043752"/>
<path d="M12.4997 14.1665H7.49981C7.03958 14.1665 6.6665 14.5396 6.6665 14.9998C6.6665 15.46 7.03958 15.8331 7.49981 15.8331H12.4997C12.9599 15.8331 13.333 15.46 13.333 14.9998C13.333 14.5396 12.9599 14.1665 12.4997 14.1665Z" fill="#043752"/>
</svg>
