<svg width="21" height="20" viewBox="0 0 21 20" fill="none" xmlns="http://www.w3.org/2000/svg">
<path d="M8.5 4H12.5C12.5 3.46957 12.2893 2.96086 11.9142 2.58579C11.5391 2.21071 11.0304 2 10.5 2C9.96957 2 9.46086 2.21071 9.08579 2.58579C8.71071 2.96086 8.5 3.46957 8.5 4ZM6.5 4C6.5 2.93913 6.92143 1.92172 7.67157 1.17157C8.42172 0.421427 9.43913 0 10.5 0C11.5609 0 12.5783 0.421427 13.3284 1.17157C14.0786 1.92172 14.5 2.93913 14.5 4H19.5C19.7652 4 20.0196 4.10536 20.2071 4.29289C20.3946 4.48043 20.5 4.73478 20.5 5C20.5 5.26522 20.3946 5.51957 20.2071 5.70711C20.0196 5.89464 19.7652 6 19.5 6H18.618L17.732 16.34C17.6468 17.3385 17.19 18.2686 16.4519 18.9463C15.7137 19.6241 14.7481 20.0001 13.746 20H7.254C6.25191 20.0001 5.28628 19.6241 4.54815 18.9463C3.81002 18.2686 3.35318 17.3385 3.268 16.34L2.382 6H1.5C1.23478 6 0.98043 5.89464 0.792893 5.70711C0.605357 5.51957 0.5 5.26522 0.5 5C0.5 4.73478 0.605357 4.48043 0.792893 4.29289C0.98043 4.10536 1.23478 4 1.5 4H6.5ZM13.5 10C13.5 9.73478 13.3946 9.48043 13.2071 9.29289C13.0196 9.10536 12.7652 9 12.5 9C12.2348 9 11.9804 9.10536 11.7929 9.29289C11.6054 9.48043 11.5 9.73478 11.5 10V14C11.5 14.2652 11.6054 14.5196 11.7929 14.7071C11.9804 14.8946 12.2348 15 12.5 15C12.7652 15 13.0196 14.8946 13.2071 14.7071C13.3946 14.5196 13.5 14.2652 13.5 14V10ZM8.5 9C8.23478 9 7.98043 9.10536 7.79289 9.29289C7.60536 9.48043 7.5 9.73478 7.5 10V14C7.5 14.2652 7.60536 14.5196 7.79289 14.7071C7.98043 14.8946 8.23478 15 8.5 15C8.76522 15 9.01957 14.8946 9.20711 14.7071C9.39464 14.5196 9.5 14.2652 9.5 14V10C9.5 9.73478 9.39464 9.48043 9.20711 9.29289C9.01957 9.10536 8.76522 9 8.5 9Z" fill="#043752"/>
</svg>
