<svg width="32" height="41" viewBox="0 0 32 41" fill="none" xmlns="http://www.w3.org/2000/svg">
<path d="M30.4949 31.3548C30.1268 31.3548 29.8283 31.6533 29.8283 32.0214V38.6869C29.8283 39.0553 29.5299 39.3534 29.1618 39.3534H2.49966C2.13156 39.3534 1.83311 39.0553 1.83311 38.6869V2.69302C1.83311 2.32492 2.13156 2.02647 2.49966 2.02647H29.1618C29.5299 2.02647 29.8283 2.32492 29.8283 2.69302V15.2111C29.8283 15.5792 30.1268 15.8776 30.4949 15.8776C30.863 15.8776 31.1614 15.5792 31.1614 15.2111V2.69302C31.1614 1.58871 30.2661 0.693359 29.1618 0.693359H2.49966C1.39536 0.693359 0.5 1.58871 0.5 2.69302V38.6869C0.5 39.7915 1.39536 40.6865 2.49966 40.6865H29.1618C30.2661 40.6865 31.1614 39.7915 31.1614 38.6869V32.0214C31.1614 31.6533 30.863 31.3548 30.4949 31.3548Z" fill="#043752"/>
</svg>
