<svg width="20" height="13" viewBox="0 0 20 13" fill="none" xmlns="http://www.w3.org/2000/svg">
<path d="M10.0456 12.4281C9.85688 12.4292 9.66976 12.393 9.49502 12.3217C9.32027 12.2503 9.16133 12.1451 9.02732 12.0122L0.421802 3.40668C0.151727 3.13661 0 2.77031 0 2.38836C0 2.00642 0.151727 1.64012 0.421802 1.37004C0.691877 1.09997 1.05818 0.948242 1.44012 0.948242C1.82206 0.948242 2.18836 1.09997 2.45844 1.37004L10.0456 8.97158L17.6328 1.38439C17.9072 1.14942 18.2601 1.02664 18.6211 1.04058C18.9821 1.05452 19.3245 1.20416 19.5799 1.45959C19.8354 1.71503 19.985 2.05744 19.9989 2.41841C20.0129 2.77937 19.8901 3.13231 19.6551 3.40668L11.0496 12.0122C10.7825 12.2772 10.4219 12.4265 10.0456 12.4281Z" fill="black" fill-opacity="0.3"/>
</svg>
