<svg width="20" height="13" viewBox="0 0 20 13" fill="none" xmlns="http://www.w3.org/2000/svg">
<path d="M10.0456 12.2416C9.85688 12.2427 9.66976 12.2065 9.49502 12.1351C9.32027 12.0638 9.16133 11.9586 9.02732 11.8257L0.421802 3.22016C0.151727 2.95008 0 2.58378 0 2.20184C0 1.8199 0.151727 1.4536 0.421802 1.18352C0.691877 0.913445 1.05818 0.761719 1.44012 0.761719C1.82206 0.761719 2.18836 0.913445 2.45844 1.18352L10.0456 8.78506L17.6328 1.19786C17.9072 0.962895 18.2601 0.840114 18.6211 0.854056C18.9821 0.867999 19.3245 1.01764 19.5799 1.27307C19.8354 1.5285 19.985 1.87092 19.9989 2.23188C20.0129 2.59285 19.8901 2.94578 19.6551 3.22016L11.0496 11.8257C10.7825 12.0906 10.4219 12.24 10.0456 12.2416Z" fill="#043752" fill-opacity="0.5"/>
</svg>
