<svg width="20" height="21" viewBox="0 0 20 21" fill="none" xmlns="http://www.w3.org/2000/svg">
<path d="M15.8333 10.0384C15.3725 10.0384 15 10.4118 15 10.8717V17.5384C15 17.9976 14.6266 18.3717 14.1667 18.3717H2.5C2.03995 18.3717 1.66672 17.9976 1.66672 17.5384V5.8717C1.66672 5.41257 2.03995 5.03842 2.5 5.03842H9.16672C9.62753 5.03842 10 4.66504 10 4.20514C10 3.74509 9.62753 3.3717 9.16672 3.3717H2.5C1.12167 3.3717 0 4.49338 0 5.8717V17.5384C0 18.9167 1.12167 20.0384 2.5 20.0384H14.1667C15.545 20.0384 16.6667 18.9167 16.6667 17.5384V10.8717C16.6667 10.4109 16.2941 10.0384 15.8333 10.0384Z" fill="#043752"/>
<path d="M7.81344 9.27936C7.75515 9.33765 7.71594 9.4118 7.6993 9.49176L7.11016 12.4385C7.0827 12.5751 7.12603 12.7159 7.2243 12.8151C7.30349 12.8943 7.41015 12.9367 7.5194 12.9367C7.54595 12.9367 7.57357 12.9343 7.60104 12.9285L10.5469 12.3394C10.6285 12.3226 10.7027 12.2835 10.7602 12.2251L17.3535 5.63174L14.4077 2.68604L7.81344 9.27936Z" fill="#043752"/>
<path d="M19.3901 0.64846C18.5778 -0.16407 17.256 -0.16407 16.4443 0.64846L15.291 1.80172L18.2369 4.74758L19.3901 3.59417C19.7835 3.20171 20.0002 2.67834 20.0002 2.1217C20.0002 1.56506 19.7835 1.04168 19.3901 0.64846Z" fill="#043752"/>
</svg>
