<svg width="21" height="21" viewBox="0 0 21 21" fill="none" xmlns="http://www.w3.org/2000/svg">
<path d="M16.3333 10.0378C15.8725 10.0378 15.5 10.4112 15.5 10.8711V17.5378C15.5 17.9969 15.1266 18.3711 14.6667 18.3711H3C2.53995 18.3711 2.16672 17.9969 2.16672 17.5378V5.87109C2.16672 5.41196 2.53995 5.03781 3 5.03781H9.66672C10.1275 5.03781 10.5 4.66443 10.5 4.20453C10.5 3.74448 10.1275 3.37109 9.66672 3.37109H3C1.62167 3.37109 0.5 4.49277 0.5 5.87109V17.5378C0.5 18.9161 1.62167 20.0378 3 20.0378H14.6667C16.045 20.0378 17.1667 18.9161 17.1667 17.5378V10.8711C17.1667 10.4103 16.7941 10.0378 16.3333 10.0378Z" fill="#043752"/>
<path d="M8.31326 9.27887C8.25497 9.33716 8.21575 9.41132 8.19912 9.49127L7.60998 12.438C7.58251 12.5746 7.62585 12.7155 7.72411 12.8146C7.80331 12.8938 7.90997 12.9362 8.01922 12.9362C8.04577 12.9362 8.07339 12.9338 8.10085 12.928L11.0467 12.3389C11.1284 12.3221 11.2025 12.283 11.26 12.2246L17.8534 5.63126L14.9075 2.68555L8.31326 9.27887Z" fill="#043752"/>
<path d="M19.89 0.64846C19.0776 -0.16407 17.7559 -0.16407 16.9441 0.64846L15.7908 1.80172L18.7367 4.74758L19.89 3.59417C20.2833 3.20171 20.5 2.67834 20.5 2.1217C20.5 1.56506 20.2833 1.04168 19.89 0.64846Z" fill="#043752"/>
</svg>
