<svg width="46" height="46" viewBox="0 0 46 46" fill="none" xmlns="http://www.w3.org/2000/svg">
<g clip-path="url(#clip0_454_4009)">
<path d="M23 9.43359C15.5194 9.43359 9.43359 15.5194 9.43359 23C9.43359 28.0349 12.1907 32.4377 16.2743 34.7786V28.9636L13.4766 26.2683V21.6523H16.1719V25.1223L18.9696 27.8176V35.9553C19.8344 36.2249 20.7361 36.4095 21.6649 36.5007V22.7426C19.3362 22.147 17.6094 20.0313 17.6094 17.5195C17.6094 14.5471 20.0276 12.1289 23 12.1289C25.9724 12.1289 28.3906 14.5471 28.3906 17.5195C28.3906 20.0221 26.6762 22.1317 24.3602 22.736V36.4985C25.2801 36.4065 26.1734 36.2225 27.0304 35.9553V27.8176L29.8281 25.1223V21.6523H32.5234V26.2683L29.7257 28.9636V34.7786C33.8093 32.4377 36.5664 28.0349 36.5664 23C36.5664 15.5194 30.4806 9.43359 23 9.43359Z" fill="#fff"/>
<path d="M23 14.8242C21.5138 14.8242 20.3047 16.0333 20.3047 17.5195C20.3047 19.0057 21.5138 20.2148 23 20.2148C24.4862 20.2148 25.6953 19.0057 25.6953 17.5195C25.6953 16.0333 24.4862 14.8242 23 14.8242Z" fill="#fff"/>
<path d="M42.7388 18.1829C42.2478 16.1668 41.4549 14.2548 40.3732 12.4782L42.3031 9.77635L36.2415 3.71468L33.5411 5.64354C31.7673 4.56254 29.8583 3.76966 27.8449 3.27759L27.2988 0H18.7264L18.1802 3.2775C16.1709 3.7685 14.2647 4.55966 12.4936 5.63778L9.77626 3.6968L3.71468 9.75838L5.6545 12.4741C4.57709 14.2427 3.78593 16.1457 3.29385 18.1523L0 18.7012V27.2735L3.28747 27.8215C3.77676 29.8284 4.56559 31.7327 5.64057 33.5025L3.69689 36.2237L9.75847 42.2853L12.4703 40.3483C14.2401 41.4287 16.1451 42.2222 18.154 42.716L18.7012 46H27.2736L27.8188 42.7288C29.8324 42.2396 31.7426 41.4491 33.5179 40.3704L36.2237 42.3032L42.2853 36.2417L40.3592 33.5451C41.4433 31.7701 42.2386 29.8592 42.7325 27.8433L46 27.2988V18.7265L42.7388 18.1829ZM23 39.2617C14.0332 39.2617 6.73828 31.9668 6.73828 23C6.73828 14.0332 14.0332 6.73828 23 6.73828C31.9668 6.73828 39.2617 14.0332 39.2617 23C39.2617 31.9668 31.9668 39.2617 23 39.2617Z" fill="#fff"/>
</g>
<defs>
<clipPath id="clip0_454_4009">
<rect width="46" height="46" fill="white"/>
</clipPath>
</defs>
</svg>
