<svg width="20" height="20" viewBox="0 0 20 20" fill="none" xmlns="http://www.w3.org/2000/svg">
<path d="M19.707 8.53516H17.6562V2.34375H17.9492C18.111 2.34375 18.2422 2.21258 18.2422 2.05078V0.292969C18.2422 0.131172 18.111 0 17.9492 0H13.431C13.2692 0 13.138 0.131172 13.138 0.292969V2.05078C13.138 2.21258 13.2692 2.34375 13.431 2.34375H13.7239V8.53516H11.9661V2.34375H12.2591C12.4209 2.34375 12.5521 2.21258 12.5521 2.05078V0.292969C12.5521 0.131172 12.4209 0 12.2591 0H7.7409C7.5791 0 7.44793 0.131172 7.44793 0.292969V2.05078C7.44793 2.21258 7.5791 2.34375 7.7409 2.34375H8.03387V8.53516H6.27605V2.34375H6.56902C6.73082 2.34375 6.86199 2.21258 6.86199 2.05078V0.292969C6.86199 0.131172 6.73082 0 6.56902 0H2.05078C1.88898 0 1.75781 0.131172 1.75781 0.292969V2.05078C1.75781 2.21258 1.88898 2.34375 2.05078 2.34375H2.34375V8.53516H0.292969C0.131172 8.53516 0 8.66633 0 8.82812V19.707C0 19.8688 0.131172 20 0.292969 20H19.707C19.8688 20 20 19.8688 20 19.707V8.82812C20 8.66633 19.8688 8.53516 19.707 8.53516ZM14.3099 4.6875H17.0703V5.27344H14.3099V4.6875ZM13.7239 0.585938H17.6562V1.75781H13.7239V0.585938ZM17.0703 2.34375V4.10156H14.3099V2.34375H17.0703ZM14.3099 5.85938H17.0703V8.53516H14.3099V5.85938ZM8.61981 4.6875H11.3802V5.27344H8.61981V4.6875ZM8.03387 0.585938H11.9662V1.75781H8.03387V0.585938ZM11.3802 2.34375V4.10156H8.61977V2.34375H11.3802ZM8.61981 5.85938H11.3802V8.53516H8.61981V5.85938ZM2.92969 4.6875H5.69012V5.27344H2.92969V4.6875ZM2.34375 0.585938H6.27605V1.75781H2.34375V0.585938ZM5.69012 2.34375V4.10156H2.92969V2.34375H5.69012ZM2.92969 5.85938H5.69012V8.53516H2.92969V5.85938ZM19.4141 19.4141H0.585938V9.12109H19.4141V19.4141Z" fill="#043752"/>
<path d="M1.46484 10.8789C1.30305 10.8789 1.17188 11.0101 1.17188 11.1719V18.5352C1.17188 18.697 1.30305 18.8281 1.46484 18.8281H18.5352C18.697 18.8281 18.8281 18.697 18.8281 18.5352V11.1719C18.8281 11.0101 18.697 10.8789 18.5352 10.8789H1.46484ZM18.2422 18.2422H1.75781V11.4648H5.69012V15.6901C5.69012 16.4512 5.07098 17.0703 4.30992 17.0703C3.54887 17.0703 2.92969 16.4511 2.92969 15.6901V12.3438C2.92969 12.182 2.79852 12.0508 2.63672 12.0508C2.47492 12.0508 2.34375 12.182 2.34375 12.3438V15.6901C2.34375 16.7742 3.22578 17.6562 4.30988 17.6562C5.39398 17.6562 6.27602 16.7742 6.27602 15.6901V11.4648H11.3802V15.6901C11.3802 16.4512 10.7611 17.0703 10 17.0703C9.23895 17.0703 8.6198 16.4511 8.6198 15.6901V12.3438C8.6198 12.182 8.48863 12.0508 8.32684 12.0508C8.16504 12.0508 8.03387 12.182 8.03387 12.3438V15.6901C8.03387 16.7742 8.91586 17.6562 10 17.6562C11.0841 17.6562 11.9661 16.7742 11.9661 15.6901V11.4648H17.0703V15.6901C17.0703 16.4511 16.4511 17.0703 15.6901 17.0703C14.9291 17.0703 14.3099 16.4511 14.3099 15.6901V12.3438C14.3099 12.182 14.1788 12.0508 14.017 12.0508C13.8552 12.0508 13.724 12.182 13.724 12.3438V15.6901C13.724 16.7743 14.606 17.6562 15.6901 17.6562C16.7742 17.6562 17.6562 16.7742 17.6562 15.6901V11.4648H18.2422V18.2422Z" fill="#043752"/>
</svg>
