<svg width="34" height="38" viewBox="0 0 34 38" fill="none" xmlns="http://www.w3.org/2000/svg">
<path fill-rule="evenodd" clip-rule="evenodd" d="M9.35731 21.7418C9.2503 21.742 9.14307 21.7017 9.06037 21.621C8.89203 21.457 8.88903 21.1877 9.05298 21.0195C10.6594 19.3724 13.0337 18.4278 15.5668 18.4278L16.869 18.4277C17.1045 18.4277 17.2943 18.6183 17.2943 18.8532C17.2944 19.0881 17.1045 19.2786 16.8689 19.2786L15.5669 19.2785C13.262 19.2785 11.1091 20.1297 9.66153 21.6136C9.57897 21.6989 9.46807 21.7419 9.35731 21.7418ZM33.5547 35.4409H11.141C10.906 35.4409 10.7155 35.2505 10.7155 35.0156C10.7155 34.7805 10.906 34.5901 11.1409 34.5901L33.1293 34.5901V25.4035C33.1293 22.0261 29.749 19.2786 25.5932 19.2786L24.2905 19.2785C24.0556 19.2785 23.865 19.0881 23.865 18.8532C23.8651 18.6182 24.0556 18.4278 24.2904 18.4278L25.5933 18.4277C30.218 18.4277 33.98 21.5571 33.98 25.4036L33.9801 35.0155C33.9801 35.2504 33.7895 35.4409 33.5547 35.4409Z" fill="#043752"/>
<path fill-rule="evenodd" clip-rule="evenodd" d="M16.869 19.2758C16.6341 19.2758 16.4435 19.0855 16.4435 18.8505L16.4436 16.3697C16.4436 16.1347 16.634 15.9443 16.8689 15.9443C17.1045 15.9443 17.2943 16.1348 17.2943 16.3697L17.2944 18.8504C17.2944 19.0854 17.1045 19.2759 16.869 19.2758Z" fill="#043752"/>
<path fill-rule="evenodd" clip-rule="evenodd" d="M24.2903 19.2778C24.0554 19.2778 23.8649 19.0874 23.8649 18.8524L23.865 16.4663C23.865 16.2314 24.0554 16.041 24.2903 16.041C24.526 16.0409 24.7157 16.2315 24.7157 16.4664L24.7158 18.8524C24.7158 19.0873 24.5258 19.2778 24.2903 19.2778Z" fill="#043752"/>
<path fill-rule="evenodd" clip-rule="evenodd" d="M20.6245 18.5428C20.62 18.5428 20.6155 18.5429 20.6118 18.5429C17.5138 18.5348 14.9835 15.7921 14.1652 11.555C14.121 11.3242 14.2715 11.1012 14.5019 11.0567C14.7331 11.012 14.9561 11.1629 15.0004 11.3936C15.7383 15.2129 17.9413 17.6853 20.6141 17.6922C20.617 17.692 20.6214 17.6922 20.6251 17.6922C23.2869 17.692 25.4921 15.2442 26.2446 11.4514C26.2904 11.221 26.5142 11.0711 26.7446 11.1169C26.975 11.1627 27.125 11.3865 27.0792 11.617C26.6532 13.7654 25.7897 15.5489 24.5837 16.7747C23.4612 17.9152 22.0549 18.5429 20.6245 18.5428Z" fill="#043752"/>
<path fill-rule="evenodd" clip-rule="evenodd" d="M24.4272 4.81104C24.4568 4.81104 24.4862 4.81421 24.5157 4.82053C25.7314 5.08089 26.5312 6.32386 26.8931 8.51491C26.9922 9.1155 27.0438 9.70219 27.0696 10.1973C27.8857 8.08126 26.7454 4.56801 26.5822 4.09002C25.193 2.16727 23.5697 1.08968 21.7551 0.886827C18.6252 0.536305 15.9162 2.91188 15.8896 2.93593C14.0744 4.4993 13.3595 6.36857 13.759 8.49651C13.8543 9.00448 14.0049 9.4694 14.1667 9.86862C14.2516 8.8958 14.4214 7.98051 14.4333 7.91781C14.4681 7.72964 14.6246 7.58826 14.8158 7.57224C22.1503 6.95612 24.0977 4.96534 24.1169 4.9453C24.1982 4.85873 24.3104 4.81109 24.4272 4.81104ZM14.5987 11.9934C14.4681 11.9936 14.3402 11.9329 14.2582 11.8227C14.2185 11.7692 13.2767 10.4945 12.9289 8.68601C12.604 6.99482 12.7561 4.51414 15.3262 2.29847C15.4866 2.15547 18.3586 -0.346017 21.843 0.0405413C23.9257 0.271084 25.7653 1.48384 27.3103 3.64464C27.3333 3.67642 27.351 3.71131 27.3643 3.74811C27.4515 3.98899 29.458 9.67285 26.9411 11.8554C26.8127 11.9666 26.6302 11.9909 26.4773 11.9173C26.3245 11.8435 26.2299 11.686 26.2372 11.5164C26.2971 10.0695 26.0954 6.32796 24.532 5.71107C23.86 6.25257 21.4212 7.82335 15.2139 8.39133C15.0773 9.2187 14.8764 10.762 15.0167 11.4875C15.0545 11.6821 14.9525 11.877 14.7708 11.9571C14.7155 11.9816 14.657 11.9935 14.5987 11.9934Z" fill="#043752"/>
<path fill-rule="evenodd" clip-rule="evenodd" d="M20.5803 24.9606C20.4362 24.9606 20.3025 24.8881 20.2242 24.7678L16.5131 19.0858C16.3846 18.8891 16.44 18.6255 16.6372 18.4971C16.8336 18.3685 17.0973 18.4239 17.2257 18.6206L20.5803 23.7572L23.9347 18.6205C24.0632 18.4238 24.3268 18.3686 24.5232 18.4971C24.7204 18.6255 24.7758 18.8891 24.6473 19.0858L20.9362 24.7678C20.8579 24.8881 20.7242 24.9606 20.5803 24.9606Z" fill="#043752"/>
<path fill-rule="evenodd" clip-rule="evenodd" d="M17.9013 35.441C17.7249 35.441 17.5601 35.3308 17.4988 35.1549L14.4827 26.4551C14.4244 26.2852 14.4782 26.0969 14.6178 25.9843L15.6614 25.1448L14.0786 22.1351C14.0033 21.9913 14.0166 21.8169 14.1126 21.6858L16.3719 18.6017C16.4701 18.4679 16.6361 18.4033 16.7986 18.4362C16.9612 18.4688 17.0904 18.593 17.1288 18.7543L20.9936 34.9166C21.0483 35.1451 20.9071 35.3747 20.6789 35.4293C20.4507 35.4838 20.221 35.343 20.1663 35.1145L16.5152 19.8458L14.9553 21.9743L16.5778 25.0589C16.6724 25.2389 16.6266 25.4609 16.4678 25.5883L15.3852 26.4594L18.3031 34.8762C18.3799 35.0981 18.2624 35.3405 18.0401 35.4175C17.9944 35.4334 17.947 35.441 17.9013 35.441Z" fill="#043752"/>
<path fill-rule="evenodd" clip-rule="evenodd" d="M23.2588 35.441C23.2129 35.441 23.1657 35.4334 23.1199 35.4175C22.8977 35.3405 22.7802 35.0981 22.8569 34.8762L25.7749 26.4594L24.6924 25.5883C24.5335 25.4609 24.4876 25.2389 24.5822 25.0589L26.204 21.9743L24.645 19.8458L20.9937 35.1145C20.9391 35.3428 20.7101 35.4839 20.4811 35.4293C20.253 35.3746 20.1118 35.1451 20.1665 34.9166L24.0313 18.7542C24.0697 18.5929 24.1981 18.4689 24.3606 18.4362C24.5238 18.4033 24.69 18.4681 24.7882 18.6017L27.0475 21.6856C27.1435 21.8168 27.1567 21.9913 27.0807 22.1352L25.4981 25.1448L26.5415 25.9841C26.6819 26.0968 26.7357 26.2854 26.6774 26.4551L23.6613 35.1547C23.6 35.3307 23.4352 35.441 23.2588 35.441Z" fill="#043752"/>
<path fill-rule="evenodd" clip-rule="evenodd" d="M6.7946 37.1535C3.04797 37.1535 0 34.1056 0 30.3593C7.1501e-05 27.7593 1.48446 25.3938 3.80564 24.2563L3.80569 15.0581C3.80569 14.8233 3.99619 14.6328 4.23107 14.6328C4.46607 14.6327 4.65643 14.8233 4.65643 15.0582L4.65648 24.5274C4.65648 24.6961 4.55679 24.8489 4.40239 24.9169C2.2452 25.8666 0.850791 28.0028 0.850791 30.3593C0.850862 33.6364 3.5169 36.3028 6.7945 36.3028C10.0715 36.3028 12.7375 33.6365 12.7375 30.3593C12.7375 28.0029 11.3439 25.8666 9.18588 24.9169C9.03156 24.8488 8.93184 24.6962 8.93184 24.5275L8.93189 15.0581C8.93189 14.8233 9.12236 14.6328 9.35724 14.6328C9.59208 14.6327 9.78263 14.8233 9.78263 15.0582L9.78268 24.2563C12.1039 25.3938 13.5882 27.7594 13.5882 30.3593C13.5883 34.1056 10.5403 37.1536 6.7946 37.1535Z" fill="#043752"/>
<path fill-rule="evenodd" clip-rule="evenodd" d="M5.14925 26.8283C3.78065 27.4676 2.90102 28.8435 2.90102 30.3581C2.90111 32.5045 4.64767 34.2511 6.79456 34.2511C8.94087 34.2511 10.6874 32.5047 10.6874 30.3581C10.6875 28.8435 9.80775 27.4676 8.43927 26.8284L5.14925 26.8283ZM6.79465 35.1018C4.17881 35.1018 2.0502 32.9738 2.0502 30.3581C2.05032 28.4771 3.16321 26.7719 4.88619 26.0137C4.94018 25.9899 4.99848 25.9777 5.05753 25.9777L8.5316 25.9775C8.59078 25.9775 8.64901 25.9899 8.70292 26.0137C10.4253 26.7718 11.5382 28.4772 11.5382 30.3581C11.5383 32.9738 9.41045 35.1019 6.79465 35.1018Z" fill="#043752"/>
<path fill-rule="evenodd" clip-rule="evenodd" d="M8.76725 29.4138C8.11371 29.4138 7.51761 29.2164 6.90387 29.0132C5.9269 28.6898 4.81973 28.3234 3.1329 28.6088C2.90112 28.6481 2.68168 28.4918 2.64252 28.2602C2.60351 28.0285 2.75921 27.809 2.99112 27.7699C4.88635 27.4492 6.15351 27.8686 7.17123 28.2056C8.3382 28.5918 9.10913 28.8471 10.3831 28.0013C10.5797 27.8714 10.8432 27.9247 10.9732 28.1205C11.1033 28.3161 11.05 28.5802 10.8535 28.7101C10.0642 29.2344 9.38979 29.4138 8.76725 29.4138Z" fill="#043752"/>
<path fill-rule="evenodd" clip-rule="evenodd" d="M3.60993 12.4758C3.39443 12.4758 3.21923 12.6508 3.21923 12.8661L3.21925 14.2445C3.21925 14.4597 3.39429 14.6348 3.60993 14.6348L9.97839 14.6347C10.1941 14.6347 10.369 14.4597 10.369 14.2445L10.3691 12.8659C10.3691 12.6508 10.194 12.4758 9.97832 12.4758L3.60993 12.4758ZM9.97839 15.4855H3.60993C2.92531 15.4855 2.36844 14.9288 2.36844 14.2445L2.36846 12.8659C2.36846 12.1817 2.92531 11.625 3.60993 11.625L9.97839 11.625C10.663 11.625 11.2198 12.1817 11.2198 12.8661L11.2199 14.2445C11.2199 14.9288 10.6629 15.4855 9.97839 15.4855Z" fill="#043752"/>
<path fill-rule="evenodd" clip-rule="evenodd" d="M7.74508 23.6428H6.46373C6.22878 23.6428 6.03821 23.4524 6.03821 23.2175C6.03835 22.9824 6.22878 22.7921 6.46364 22.7921L7.74508 22.792C7.97989 22.792 8.17039 22.9825 8.17039 23.2175C8.17046 23.4524 7.97984 23.6428 7.74508 23.6428Z" fill="#043752"/>
<path fill-rule="evenodd" clip-rule="evenodd" d="M7.74508 22.0656H6.46373C6.22878 22.0656 6.03821 21.8753 6.03821 21.6403C6.03835 21.4053 6.22878 21.2149 6.46364 21.2149L7.74508 21.2148C7.97989 21.2148 8.17039 21.4053 8.17039 21.6403C8.17046 21.8752 7.97984 22.0656 7.74508 22.0656Z" fill="#043752"/>
<path fill-rule="evenodd" clip-rule="evenodd" d="M7.74508 20.4787H6.46373C6.22878 20.4787 6.03821 20.2883 6.03821 20.0533C6.03835 19.8183 6.22878 19.628 6.46364 19.628L7.74508 19.6279C7.97989 19.6279 8.17039 19.8184 8.17039 20.0533C8.17046 20.2883 7.97984 20.4787 7.74508 20.4787Z" fill="#043752"/>
<path fill-rule="evenodd" clip-rule="evenodd" d="M7.74508 18.9016H6.46373C6.22878 18.9016 6.03821 18.7111 6.03821 18.4762C6.03835 18.2412 6.22878 18.0508 6.46364 18.0508L7.74508 18.0508C7.97989 18.0508 8.17039 18.2413 8.17039 18.4762C8.17046 18.7111 7.97984 18.9016 7.74508 18.9016Z" fill="#043752"/>
<path fill-rule="evenodd" clip-rule="evenodd" d="M7.74508 17.3205H6.46373C6.22878 17.3205 6.03821 17.1301 6.03821 16.8951C6.03835 16.6601 6.22878 16.4698 6.46364 16.4698L7.74508 16.4697C7.97989 16.4697 8.17039 16.6602 8.17039 16.8951C8.17046 17.1301 7.97984 17.3205 7.74508 17.3205Z" fill="#043752"/>
</svg>
