<svg width="25" height="26" viewBox="0 0 25 26" fill="none" xmlns="http://www.w3.org/2000/svg">
<g clip-path="url(#clip0_90_2497)">
<path d="M10.0921 13.1918L19.4445 3.83896C19.7021 3.58205 19.8437 3.23856 19.8437 2.8723C19.8437 2.50583 19.7021 2.16254 19.4445 1.90522L18.625 1.08612C18.3679 0.828393 18.0242 0.686523 17.658 0.686523C17.2917 0.686523 16.9484 0.828393 16.6911 1.08612L5.55552 12.2215C5.29719 12.4796 5.15573 12.8245 5.15674 13.1912C5.15573 13.5595 5.29699 13.904 5.55552 14.1623L16.6807 25.2869C16.938 25.5447 17.2813 25.6865 17.6478 25.6865C18.0141 25.6865 18.3574 25.5447 18.6149 25.2869L19.4342 24.4678C19.9673 23.9347 19.9673 23.0668 19.4342 22.5339L10.0921 13.1918Z" fill="#043752"/>
</g>
<defs>
<clipPath id="clip0_90_2497">
<rect width="25" height="25" fill="white" transform="translate(0 0.686523)"/>
</clipPath>
</defs>
</svg>
