<svg width="31" height="42" viewBox="0 0 31 42" fill="none" xmlns="http://www.w3.org/2000/svg">
<path d="M15.6602 0C24.1322 0 31 6.87209 31 15.3481C31 24.6794 24.6063 26.8783 21.2518 32.5994C18.1289 37.9234 18.1263 42 15.6602 42C13.1027 42 13.2641 38.2023 10.0685 32.5995C6.87379 26.9957 0.320312 24.6794 0.320312 15.3481C0.320312 6.87209 7.18813 0 15.6602 0ZM15.6602 21.2299C18.8295 21.2299 21.3989 18.6592 21.3989 15.4885C21.3989 13.9022 20.7566 12.4674 19.7178 11.4279C18.6792 10.3893 17.2448 9.74621 15.6602 9.74621C12.4908 9.74621 9.92232 12.3169 9.92232 15.4885C9.92232 18.6592 12.4908 21.2299 15.6602 21.2299Z" fill="#043752"/>
<path d="M15.6599 0C16.0869 0 16.5095 0.018293 16.9277 0.0525C9.04896 0.697594 2.85569 7.29922 2.85569 15.3481C2.85569 24.6794 9.40916 26.9957 12.6039 32.5994C15.1349 37.037 15.5602 40.3418 16.8983 41.5246C16.5552 41.8336 16.1578 42 15.6599 42C13.1025 42 13.2639 38.2023 10.0683 32.5995C6.87357 26.9957 0.320099 24.6794 0.320099 15.3481C0.320099 6.87209 7.18792 0 15.6599 0Z" fill="#043752"/>
<path d="M19.7181 11.4282L29.8035 21.5192C30.5412 19.8381 31 17.8495 31 15.3484C31 11.1453 29.3113 7.33751 26.5765 4.56592L19.7181 11.4282Z" fill="#043752"/>
<path d="M11.5622 19.5075C10.5475 18.4719 9.92177 17.0533 9.92177 15.4886C9.92177 12.317 12.491 9.74636 15.6599 9.74636C17.2448 9.74636 18.6793 10.3892 19.7178 11.4283L9.5582 1.26318C5.92668 2.83941 3.02532 5.78056 1.49847 9.43973L11.5619 19.5087L11.5622 19.5075Z" fill="#043752"/>
<path d="M9.55863 1.26318L10.415 2.12008C7.00787 4.1305 4.44505 7.42037 3.38767 11.3296L1.49882 9.43973C3.02575 5.78048 5.92711 2.83941 9.55863 1.26318Z" fill="#043752"/>
<path d="M11.5624 19.5085L22.6388 30.591C25.047 27.5556 28.1369 25.3241 29.8037 21.5191L19.7183 11.4282C20.7568 12.4673 21.3994 13.9026 21.3994 15.4884C21.3994 18.659 18.8301 21.2296 15.6604 21.2296C14.0554 21.2296 12.6042 20.5702 11.5628 19.5073L11.5624 19.5085Z" fill="#043752"/>
<path d="M9.55805 1.26295L19.7177 11.4282L26.5762 4.56594C23.7947 1.74677 19.9309 0 15.6597 0C13.4913 0 11.4275 0.450516 9.55805 1.26295Z" fill="#043752"/>
<path d="M15.6599 0C16.0867 0 16.5094 0.0182109 16.9275 0.0525C16.9276 0.0525 16.9277 0.052582 16.9277 0.052582C14.5643 0.246094 12.3529 0.97609 10.4145 2.11985L9.55813 1.26295C11.4277 0.450516 13.4914 0 15.6599 0Z" fill="#043752"/>
<circle cx="16" cy="16" r="10" fill="white"/>
<path d="M15.9576 23.9152C20.3525 23.9152 23.9152 20.3525 23.9152 15.9576C23.9152 11.5627 20.3525 8 15.9576 8C11.5627 8 8 11.5627 8 15.9576C8 20.3525 11.5627 23.9152 15.9576 23.9152Z" fill="#58C0E5"/>
<path d="M13.9443 23.6078H18.151C18.2145 23.5866 18.2887 23.576 18.3523 23.5548V19.5283H13.9443V23.6078Z" fill="#5196BF"/>
<path d="M13.9083 14.1039C14.1606 14.0522 14.3013 13.6987 14.2225 13.3145C14.1437 12.9302 13.8753 12.6607 13.6229 12.7124C13.3706 12.7642 13.2299 13.1176 13.3087 13.5019C13.3875 13.8861 13.656 14.1557 13.9083 14.1039Z" fill="#EFBE9D"/>
<path d="M18.6556 12.7052C18.4033 12.6535 18.1349 12.923 18.056 13.3073C17.9772 13.6915 18.1179 14.045 18.3702 14.0967C18.6226 14.1485 18.891 13.8789 18.9698 13.4947C19.0487 13.1105 18.908 12.757 18.6556 12.7052Z" fill="#EFBE9D"/>
<path d="M17.7798 17.0385V15.6504H14.5056V17.0385L13.499 17.5471L14.1136 19.7299H18.1719L18.7864 17.5471L17.7798 17.0385Z" fill="#EFBE9D"/>
<path d="M16.1381 16.6996C17.5308 16.6996 18.6599 14.9063 18.6599 12.6943C18.6599 10.4822 17.5308 8.68896 16.1381 8.68896C14.7453 8.68896 13.6162 10.4822 13.6162 12.6943C13.6162 14.9063 14.7453 16.6996 16.1381 16.6996Z" fill="#FCD7BA"/>
<path d="M17.1547 10.0557C17.1547 10.0557 16.1375 11.2636 15.1308 11.6663C14.1242 12.0795 13.6262 13.0014 13.6262 13.0014C13.6262 13.0014 12.9692 11.8146 13.6156 10.2358C14.2726 8.65701 16.0739 7.73515 17.1547 8.84773C17.1547 8.84773 19.5812 9.17621 18.6593 12.6941C18.6593 12.6941 18.1295 11.8464 17.7798 11.2001C17.4196 10.5431 17.1547 10.0557 17.1547 10.0557Z" fill="#784B2C"/>
<path d="M12.832 19.5181V19.783L13.5314 19.9949L13.6267 19.8148L12.832 19.5181Z" fill="#CDE5E9"/>
<path d="M13.3189 17.5469L9.30303 19.2634L9.1123 19.9946C10.5004 22.3363 13.0434 23.9045 15.9679 23.9045C16.0845 23.9045 16.1905 23.9045 16.307 23.8939L13.3189 17.5469Z" fill="#DBF8FE"/>
<path d="M13.7117 17.3032C13.7117 17.3032 13.5739 17.6423 13.7117 17.9814C13.8494 18.3204 16.2335 23.6185 16.2335 23.6185L13.2666 20.7257L13.7117 19.8145L12.8428 19.4966C12.8428 19.4966 12.8322 17.4516 13.7117 17.3032Z" fill="#E9FCFF"/>
<path d="M13.3617 20.8105L13.2451 21.0013L16.2332 23.6079L13.3617 20.8105Z" fill="#CDE5E9"/>
<path d="M15.9573 23.9151C19.0619 23.9151 21.7427 22.135 23.0566 19.5495L22.9824 19.2634L18.9665 17.5469L15.9043 23.9151H15.9573Z" fill="#DBF8FE"/>
<path d="M18.5638 17.3032C18.5638 17.3032 18.7016 17.6423 18.5638 17.9814C18.4261 18.3204 16.042 23.6185 16.042 23.6185L19.0089 20.7257L18.5638 19.8145L19.4327 19.4966C19.4433 19.4966 19.4433 17.4516 18.5638 17.3032Z" fill="#E9FCFF"/>
<path d="M19.3592 19.5181V19.783L18.6598 19.9949L18.5645 19.8148L19.3592 19.5181Z" fill="#CDE5E9"/>
<path d="M18.9241 20.8105L19.0301 21.0013L16.042 23.6079L18.9241 20.8105Z" fill="#CDE5E9"/>
<path d="M17.8967 23.6715C18.7656 23.449 19.5815 23.0887 20.3126 22.6119L16.7524 20.7046L15.6504 21.9443L17.8967 23.6715Z" fill="#EFBE9D"/>
<path d="M15.5867 18.2464C14.4317 18.1299 13.4251 18.5325 12.6622 19.2848C12.6304 19.3166 12.4821 19.3802 12.4503 19.3802C12.2596 19.3802 12.037 19.4438 11.9947 19.6239C11.9735 19.7299 12.0159 19.8358 12.1006 19.91C12.1748 19.9842 12.2702 20.0372 12.3655 20.0795C12.2066 20.1961 12.1748 20.461 12.3019 20.6093C12.3231 20.6411 12.3761 20.6835 12.3231 20.7683C12.249 20.8848 12.3655 21.0332 12.4927 21.0756C12.6198 21.118 12.7576 21.0968 12.8953 21.1286C13.0119 21.1603 13.1178 21.2345 13.2344 21.2769C13.3827 21.3299 13.5417 21.3299 13.69 21.3193C13.9655 21.3193 14.2516 21.3193 14.4741 21.4782L14.6649 21.6372C14.7814 21.7219 14.9192 21.7643 15.0675 21.8067C15.237 21.8597 15.4066 21.9021 15.5761 21.955C15.6927 21.9868 15.8092 22.0186 15.9258 22.0292C16.1695 22.0398 16.392 21.9233 16.6145 21.8173C16.7841 21.7325 16.9748 21.6054 16.9536 21.4252C16.9536 21.3723 16.9218 21.3193 16.9112 21.2663C16.8159 21.0014 16.8476 20.7153 16.7417 20.461C16.6993 20.3444 16.6251 20.2385 16.5933 20.1219C16.498 19.8146 16.6463 19.4438 16.445 19.1895C16.392 19.1153 16.3178 19.0623 16.2437 19.0093C16.0423 18.8504 15.8728 18.6385 15.7668 18.4054C15.7668 18.3842 15.7139 18.257 15.5867 18.2464Z" fill="#96C8ED"/>
<path d="M12.5241 19.4225C12.4923 19.4966 12.45 19.592 12.4923 19.6768C12.5347 19.751 12.6301 19.7827 12.7149 19.7827C12.9904 19.7827 13.2129 19.592 13.4672 19.4966C13.6155 19.4437 13.7745 19.4119 13.9122 19.3271C13.9758 19.2847 14.0182 19.2423 14.0923 19.2212C14.1453 19.2 14.2089 19.2 14.2725 19.1894C14.3678 19.1788 14.4526 19.147 14.5374 19.1152C14.7175 19.0516 14.8976 18.9986 15.0778 18.9351C15.0036 19.0728 14.8765 19.1682 14.7281 19.2212C14.6539 19.2423 14.5692 19.2529 14.495 19.2635C14.0182 19.3483 13.5837 19.6026 13.1175 19.751C12.8632 19.8357 12.5983 19.8887 12.397 20.0582C12.3864 20.0688 12.3758 20.0794 12.3652 20.0794C12.3546 20.0794 12.3334 20.0688 12.3228 20.0582C12.238 19.9947 12.1533 19.9311 12.0791 19.8675C12.1533 19.8781 12.2486 19.8781 12.3016 19.8251C12.3334 19.7933 12.3546 19.7404 12.3546 19.6874C12.3652 19.5814 12.3334 19.4755 12.2486 19.4119C12.3334 19.4119 12.4182 19.4119 12.5029 19.4013" fill="#4C82B1"/>
<path d="M12.2061 20.4608C12.4074 20.5773 12.6617 20.6197 12.8948 20.5879C12.9584 20.5773 14.6537 20.0899 14.7703 20.0581C14.8868 20.0263 15.3637 19.878 15.4696 19.8038C15.565 19.7402 15.6498 19.6555 15.7557 19.6343C15.7663 19.6767 15.7239 19.7084 15.6816 19.7296C15.3531 19.9204 15.0246 20.0793 14.6749 20.2171C14.5054 20.2912 14.3253 20.3548 14.1451 20.376C14.0921 20.3866 13.7637 20.4502 13.6577 20.482C13.2974 20.5985 12.916 20.6621 12.5451 20.6939C12.4604 20.7045 12.365 20.7045 12.3014 20.6409" fill="#4C82B1"/>
<path d="M12.8213 21.0967C13.1498 21.1497 13.4782 21.0013 13.8173 20.9484C13.9339 20.9272 14.0504 20.9166 14.167 20.906C14.6438 20.853 15.11 20.7364 15.5551 20.5669C15.4173 20.694 15.2372 20.7682 15.0571 20.8212C14.5484 20.9695 14.008 21.0119 13.4888 21.1179C13.4147 21.1285 13.3405 21.1497 13.2769 21.1921C13.2557 21.2027 13.2345 21.2238 13.2133 21.2238C13.2133 21.2238 12.9484 21.1391 12.8213 21.0967Z" fill="#4C82B1"/>
<path d="M14.4209 21.4463C14.5163 21.5311 14.6646 21.5311 14.8024 21.5205C14.9295 21.4993 15.0779 21.4781 15.1944 21.5311C15.2262 21.5417 15.2474 21.5628 15.2792 21.5734C15.4805 21.6794 15.7454 21.6794 15.9467 21.5734C15.8726 21.5734 15.7984 21.6052 15.7242 21.6264C15.5017 21.69 15.2474 21.6688 15.0461 21.5628C15.1308 21.6582 15.2368 21.7324 15.3639 21.7642C15.1732 21.7748 14.9825 21.7006 14.8447 21.5734C14.8871 21.6476 14.9613 21.7112 15.0461 21.7324C14.8235 21.743 14.6116 21.6476 14.4633 21.4887" fill="#4C82B1"/>
<path d="M12.3969 20.005C12.4605 19.8566 12.4605 19.7507 12.4816 19.6129C12.4499 19.4752 12.5664 19.348 12.6724 19.2526C12.7571 19.1785 12.8419 19.0937 12.9373 19.0301C13.0538 18.9454 13.1704 18.8712 13.2869 18.7864V15.9043H12.3545V19.846C12.3545 19.9096 12.3651 19.9732 12.3863 20.0262C12.3969 20.0156 12.3969 20.005 12.3969 20.005Z" fill="#FCFCFD"/>
<path d="M12.4821 19.613C12.4821 19.4859 12.5669 19.3693 12.6729 19.274C12.7576 19.1998 12.8424 19.1044 12.9378 19.0303C13.0225 18.9667 13.1073 18.9137 13.1921 18.8607V18.0024H12.4609V19.8144C12.4715 19.7508 12.4715 19.6872 12.4821 19.613Z" fill="#F0582F"/>
<path d="M12.291 15.6714H13.3506V15.9681H12.291V15.6714Z" fill="#FCFCFD"/>
<path opacity="0.5" d="M12.937 19.0305C12.9688 19.0093 13.0006 18.9881 13.0324 18.9669V15.9683H12.8311V19.1365C12.8628 19.0941 12.8946 19.0623 12.937 19.0305Z" fill="white"/>
<path d="M12.8945 15.6714H13.117V15.9681H12.8945V15.6714Z" fill="white"/>
<path d="M16.6037 20.1323C16.6461 20.2595 16.7733 20.3442 16.8686 20.4502C16.9852 20.588 17.0488 20.7575 17.0488 20.9376C17.0594 21.1178 17.017 21.2873 16.9534 21.4568C16.9322 21.5098 16.9004 21.5734 16.8369 21.5946C16.7839 21.6052 16.7203 21.5734 16.6885 21.5204C16.6567 21.4674 16.6461 21.4144 16.6461 21.3509C16.6037 21.0118 16.5614 20.2701 16.572 20.2383C16.5826 20.2065 16.5932 20.1535 16.6037 20.1323Z" fill="#96C8ED"/>
<path d="M15.4805 21.8913C15.756 21.8807 16.0103 21.7324 16.1586 21.4993C16.201 21.4357 16.2222 21.3721 16.254 21.3085C16.3176 21.139 16.3493 20.9483 16.3387 20.7681C16.3917 21.1496 16.2646 21.5522 15.9891 21.8277C16.2646 21.584 16.4447 21.2132 16.4447 20.8423C16.4447 20.7787 16.4447 20.7257 16.4553 20.6622C16.4765 20.5774 16.5295 20.5138 16.5613 20.4397C16.6036 20.3655 16.6354 20.2807 16.6036 20.2065C16.6884 20.3337 16.6672 20.5032 16.6142 20.641C16.5613 20.7787 16.4871 20.9165 16.4871 21.0754C16.5931 20.9801 16.646 20.8211 16.6142 20.6834C16.6566 21.0118 16.5295 21.3509 16.2964 21.584C16.4871 21.5099 16.646 21.3403 16.7202 21.139C16.7414 21.0754 16.752 21.0118 16.7944 20.9695C16.8262 21.033 16.8474 21.0966 16.8791 21.1602C16.9109 21.2555 16.9427 21.3509 16.9321 21.4569C16.9003 21.5946 16.7838 21.7006 16.6672 21.7748C16.3282 21.9867 15.8937 22.0608 15.5229 21.9231" fill="#4C82B1"/>
<path d="M12.4502 19.8145C12.4502 19.9417 12.5456 19.9417 12.5456 19.9417L12.6303 19.8993C12.7363 19.8251 12.6303 19.7721 12.6303 19.7721C12.482 19.7297 12.4714 19.6132 12.4714 19.6132V19.4648" fill="#F0582F"/>
<path d="M12.4187 19.8464L12.3975 20.016L12.4081 20.0372C12.4081 20.0372 12.5352 19.9524 12.5564 19.9418C12.5564 19.9418 12.4504 19.9206 12.461 19.7935L12.4187 19.8464Z" fill="#FCFCFD"/>
</svg>
