<svg width="25" height="31" viewBox="0 0 25 31" fill="none" xmlns="http://www.w3.org/2000/svg">
<path fill-rule="evenodd" clip-rule="evenodd" d="M13.0683 29.8069C12.6749 30.1897 12.0461 30.1864 11.6563 29.7999C10.7783 28.9293 9.94307 28.1166 9.15384 27.3487C3.67567 22.0182 0.412109 18.8426 0.412109 13.3994C0.412109 6.96538 5.38989 0.277771 12.3588 0.277771C19.3277 0.277771 24.3054 6.96538 24.3054 13.3994C24.3054 18.9949 20.8567 22.3107 15.0988 27.8468C14.4507 28.4699 13.7733 29.1211 13.0683 29.8069ZM16.6264 12.7222C16.6264 15.1768 14.7161 17.1667 12.3597 17.1667C10.0033 17.1667 8.09303 15.1768 8.09303 12.7222C8.09303 10.2676 10.0033 8.27777 12.3597 8.27777C14.7161 8.27777 16.6264 10.2676 16.6264 12.7222Z" fill="#043752"/>
</svg>
