<svg width="26" height="36" viewBox="0 0 26 36" fill="none" xmlns="http://www.w3.org/2000/svg">
<g filter="url(#filter0_d_4685_16543)">
<path d="M20 7.18427V7C20 5.14349 19.2625 3.36301 17.9497 2.05025C16.637 0.737498 14.8565 0 13 0C11.1435 0 9.36301 0.737498 8.05025 2.05025C6.7375 3.36301 6 5.14349 6 7V7.18427C5.41674 7.38972 4.91136 7.77067 4.55327 8.27482C4.19517 8.77898 4.0019 9.38161 4 10V18C4.00087 18.7954 4.31722 19.5579 4.87964 20.1204C5.44206 20.6828 6.20462 20.9991 7 21H19C19.7954 20.9991 20.5579 20.6828 21.1204 20.1204C21.6828 19.5579 21.9991 18.7954 22 18V10C21.9981 9.38161 21.8048 8.77898 21.4467 8.27482C21.0886 7.77067 20.5833 7.38972 20 7.18427ZM13 2C14.3256 2.00156 15.5965 2.52884 16.5338 3.46619C17.4712 4.40353 17.9984 5.6744 18 7H8C8.00156 5.6744 8.52884 4.40353 9.46618 3.46619C10.4035 2.52884 11.6744 2.00156 13 2ZM14 14.7226V16C14 16.2652 13.8946 16.5196 13.7071 16.7071C13.5196 16.8946 13.2652 17 13 17C12.7348 17 12.4804 16.8946 12.2929 16.7071C12.1054 16.5196 12 16.2652 12 16V14.7226C11.6187 14.5025 11.3207 14.1627 11.1522 13.7559C10.9838 13.3492 10.9542 12.8982 11.0681 12.4729C11.1821 12.0476 11.4332 11.6719 11.7825 11.4038C12.1318 11.1358 12.5597 10.9906 13 10.9906C13.4403 10.9906 13.8682 11.1358 14.2175 11.4038C14.5668 11.6719 14.8179 12.0476 14.9319 12.4729C15.0458 12.8982 15.0162 13.3492 14.8478 13.7559C14.6793 14.1627 14.3813 14.5025 14 14.7226ZM21.1543 25.1953L19.9302 25.4834L20.7705 26.6953C21.2223 27.3163 20.1237 28.1035 19.6782 27.4634L18.8984 26.2632L18.1064 27.4756C17.6865 28.0969 16.5137 27.2804 17.0742 26.6836L17.8662 25.5552L16.6182 25.1953C15.8428 24.9849 16.2903 23.6692 17.0503 23.9595L18.3101 24.3672L18.2505 23.1436C18.2389 22.3782 19.5509 22.3716 19.5342 23.1436L19.4864 24.3911L20.7584 23.9595C21.4693 23.6772 21.937 25.033 21.1543 25.1953ZM15.2622 25.1953L14.0381 25.4834L14.8784 26.6953C15.3303 27.3163 14.2316 28.1035 13.7861 27.4634L13.0063 26.2632L12.2143 27.4756C11.7944 28.0969 10.6216 27.2804 11.1821 26.6836L11.9741 25.5552L10.7261 25.1953C9.95067 24.9849 10.3982 23.6692 11.1582 23.9595L12.418 24.3672L12.3584 23.1436C12.3469 22.3782 13.6588 22.3716 13.6421 23.1436L13.5943 24.3911L14.8663 23.9595C15.5772 23.6772 16.0449 25.033 15.2622 25.1953ZM9.37012 25.1953L8.146 25.4834L8.98633 26.6953C9.43817 27.3163 8.33954 28.1035 7.89404 27.4634L7.11426 26.2632L6.32226 27.4756C5.90233 28.0969 4.72948 27.2804 5.29003 26.6836L6.08203 25.5552L4.83403 25.1953C4.05858 24.9849 4.50615 23.6692 5.26616 23.9595L6.52593 24.3672L6.46636 23.1436C6.45476 22.3782 7.76671 22.3716 7.75005 23.1436L7.7022 24.3911L8.9742 23.9595C9.68512 23.6772 10.1528 25.033 9.37012 25.1953Z" fill="#043752"/>
</g>
<defs>
<filter id="filter0_d_4685_16543" x="0" y="0" width="26" height="35.7012" filterUnits="userSpaceOnUse" color-interpolation-filters="sRGB">
<feFlood flood-opacity="0" result="BackgroundImageFix"/>
<feColorMatrix in="SourceAlpha" type="matrix" values="0 0 0 0 0 0 0 0 0 0 0 0 0 0 0 0 0 0 127 0" result="hardAlpha"/>
<feOffset dy="4"/>
<feGaussianBlur stdDeviation="2"/>
<feComposite in2="hardAlpha" operator="out"/>
<feColorMatrix type="matrix" values="0 0 0 0 0 0 0 0 0 0 0 0 0 0 0 0 0 0 0.25 0"/>
<feBlend mode="normal" in2="BackgroundImageFix" result="effect1_dropShadow_4685_16543"/>
<feBlend mode="normal" in="SourceGraphic" in2="effect1_dropShadow_4685_16543" result="shape"/>
</filter>
</defs>
</svg>
