<svg width="36" height="35" viewBox="0 0 36 35" fill="none" xmlns="http://www.w3.org/2000/svg">
<g filter="url(#filter0_d_4685_22507)">
<path d="M23.7985 19.7996H21.9987V17.9998H23.7985V19.7996ZM18.3989 19.7996H20.1988V17.9998H18.3989V19.7996ZM27.3983 19.7996H25.5984V17.9998H27.3983V19.7996Z" fill="#043752"/>
<path fill-rule="evenodd" clip-rule="evenodd" d="M9.39962 10.8002V6.30054C9.39962 5.47327 9.56256 4.6541 9.87915 3.8898C10.1957 3.1255 10.6598 2.43104 11.2447 1.84607C11.8297 1.26111 12.5241 0.797084 13.2884 0.480502C14.0527 0.163919 14.8719 0.000976563 15.6992 0.000976562C16.5265 0.000976563 17.3456 0.163919 18.1099 0.480502C18.8742 0.797084 19.5687 1.26111 20.1536 1.84607C20.7386 2.43104 21.2026 3.1255 21.5192 3.8898C21.8358 4.6541 21.9987 5.47327 21.9987 6.30054V10.8002H24.6986C25.4146 10.8002 26.1013 11.0847 26.6076 11.591C27.1139 12.0973 27.3984 12.784 27.3984 13.5V14.49C28.4156 14.6965 29.3301 15.2484 29.9869 16.052C30.6438 16.8557 31.0026 17.8617 31.0026 18.8997C31.0026 19.9376 30.6438 20.9436 29.9869 21.7473C29.3301 22.5509 28.4156 23.1028 27.3984 23.3093V24.2993C27.3984 25.0153 27.1139 25.702 26.6076 26.2083C26.1013 26.7146 25.4146 26.9991 24.6986 26.9991H6.69981C5.98378 26.9991 5.29707 26.7146 4.79076 26.2083C4.28444 25.702 4 25.0153 4 24.2993V13.5C4 12.784 4.28444 12.0973 4.79076 11.591C5.29707 11.0847 5.98378 10.8002 6.69981 10.8002H9.39962ZM11.1995 6.30054C11.1995 5.10714 11.6736 3.96263 12.5174 3.11878C13.3613 2.27492 14.5058 1.80085 15.6992 1.80085C16.8926 1.80085 18.0371 2.27492 18.8809 3.11878C19.7248 3.96263 20.1989 5.10714 20.1989 6.30054V10.8002H11.1995V6.30054ZM19.2989 16.1998C18.5829 16.1998 17.8962 16.4843 17.3899 16.9906C16.8836 17.4969 16.5991 18.1836 16.5991 18.8997C16.5991 19.6157 16.8836 20.3024 17.3899 20.8087C17.8962 21.315 18.5829 21.5995 19.2989 21.5995H26.4984C27.2145 21.5995 27.9012 21.315 28.4075 20.8087C28.9138 20.3024 29.1982 19.6157 29.1982 18.8997C29.1982 18.1836 28.9138 17.4969 28.4075 16.9906C27.9012 16.4843 27.2145 16.1998 26.4984 16.1998H19.2989Z" fill="#043752"/>
</g>
<defs>
<filter id="filter0_d_4685_22507" x="0" y="0.000976562" width="35.0027" height="34.9982" filterUnits="userSpaceOnUse" color-interpolation-filters="sRGB">
<feFlood flood-opacity="0" result="BackgroundImageFix"/>
<feColorMatrix in="SourceAlpha" type="matrix" values="0 0 0 0 0 0 0 0 0 0 0 0 0 0 0 0 0 0 127 0" result="hardAlpha"/>
<feOffset dy="4"/>
<feGaussianBlur stdDeviation="2"/>
<feComposite in2="hardAlpha" operator="out"/>
<feColorMatrix type="matrix" values="0 0 0 0 0 0 0 0 0 0 0 0 0 0 0 0 0 0 0.25 0"/>
<feBlend mode="normal" in2="BackgroundImageFix" result="effect1_dropShadow_4685_22507"/>
<feBlend mode="normal" in="SourceGraphic" in2="effect1_dropShadow_4685_22507" result="shape"/>
</filter>
</defs>
</svg>
