<svg width="20" height="18" viewBox="0 0 20 18" fill="none" xmlns="http://www.w3.org/2000/svg">
<path d="M10.0002 0.666748C10.0001 0.666748 9.99998 0.666748 9.9999 0.666748C9.99986 0.666748 9.99986 0.666748 9.99982 0.666748C9.99979 0.666748 9.99975 0.666748 9.99971 0.666748C7.23917 0.666865 4.74011 1.78536 2.93081 3.59385C2.93018 3.59447 2.92948 3.59498 2.92885 3.5956C2.92819 3.59627 2.92768 3.59697 2.92702 3.59763C1.12061 5.40514 0.00281245 7.90084 0.00042968 10.6577C0.00042968 10.6607 0 10.6636 0 10.6666C0 10.6694 0.000390618 10.6722 0.00042968 10.675C0.00238277 13.0265 0.819243 15.2545 2.28613 17.0305C2.44445 17.2222 2.68003 17.3331 2.92862 17.3331H17.0709C17.3195 17.3331 17.555 17.2222 17.7134 17.0305C19.1824 15.252 20 13.0208 20 10.6666C20 5.14394 15.5228 0.666748 10.0002 0.666748ZM16.6669 15.6665H3.3326C2.4232 14.4565 1.8595 13.0235 1.70829 11.4999H4.16661C4.62683 11.4999 4.99991 11.1268 4.99991 10.6666C4.99991 10.2063 4.62683 9.83327 4.16661 9.83327H1.70833C1.87469 8.15732 2.53761 6.62762 3.54779 5.39307L4.10715 5.95244C4.43258 6.27786 4.96023 6.27786 5.28565 5.95244C5.61107 5.62701 5.61107 5.09937 5.28565 4.77394L4.72625 4.21454C5.96079 3.20424 7.49045 2.54125 9.16648 2.3748V4.83339C9.16648 5.29362 9.53956 5.6667 9.99979 5.6667C10.46 5.6667 10.8331 5.29362 10.8331 4.83339V2.37473C12.5091 2.54109 14.0388 3.20409 15.2735 4.21438L14.7139 4.77394C14.3885 5.09937 14.3885 5.62701 14.7139 5.95244C15.0393 6.27786 15.567 6.27786 15.8924 5.95244L16.452 5.39284C17.4624 6.62746 18.1255 8.15728 18.2919 9.83327H15.833C15.3728 9.83327 14.9997 10.2063 14.9997 10.6666C14.9997 11.1268 15.3728 11.4999 15.833 11.4999H18.2919C18.1407 13.0232 17.5766 14.4562 16.6669 15.6665Z" fill="#043752"/>
</svg>
