<svg width="28" height="26" viewBox="0 0 28 26" fill="none" xmlns="http://www.w3.org/2000/svg">
<path d="M21.4503 6.94988C22.1527 6.24735 22.1591 5.10196 21.4644 4.39157C19.0895 1.96266 15.9219 0.625 12.545 0.625C9.19414 0.625 6.04375 1.94474 3.67431 4.34109C1.30487 6.73738 0 9.92348 0 13.3125C0 16.7015 1.30493 19.8876 3.67437 22.2839C6.04381 24.6803 9.19414 26 12.545 26C15.9219 26 19.0895 24.6623 21.4644 22.2334C22.159 21.523 22.1527 20.3776 21.4503 19.6751C20.7479 18.9726 19.6153 18.979 18.9207 19.6894C17.223 21.4257 14.9588 22.3819 12.5451 22.3819C7.60033 22.3819 3.57744 18.3134 3.57744 13.3125C3.57744 8.31157 7.60033 4.24306 12.5451 4.24306C14.9588 4.24306 17.223 5.1993 18.9208 6.93558C19.6153 7.64591 20.7479 7.65229 21.4503 6.94988ZM27.4761 14.5916L23.9643 18.1433C23.2657 18.8498 22.1332 18.8498 21.4346 18.1433C20.7361 17.4368 20.7361 16.2914 21.4346 15.585L21.8929 15.1215H12.545C11.5571 15.1215 10.7563 14.3116 10.7563 13.3125C10.7563 12.3134 11.5571 11.5034 12.545 11.5034H21.8929L21.4346 11.04C20.7361 10.3335 20.7361 9.1881 21.4346 8.48162C21.7839 8.12835 22.2417 7.95175 22.6994 7.95175C23.1572 7.95175 23.615 8.12835 23.9642 8.48162L27.476 12.0333C28.1746 12.7397 28.1746 13.8852 27.4761 14.5916Z" fill="#507386"/>
</svg>
