<svg width="20" height="19" viewBox="0 0 20 19" fill="none" xmlns="http://www.w3.org/2000/svg">
<path d="M9.03906 17.7197H0.3125C0.139323 17.7197 0 17.5804 0 17.4072V15.4541C0 15.2809 0.139323 15.1416 0.3125 15.1416H8.42057C10.6979 15.1416 12.5742 13.3018 12.6029 11.04C12.6029 11.0205 12.6029 11.001 12.6029 10.9814C12.6029 8.47754 10.5664 6.44108 8.0625 6.44108C5.66406 6.44108 3.69401 8.31087 3.53255 10.6689H4.33333C4.45052 10.6689 4.55729 10.734 4.61068 10.8382C4.66406 10.9424 4.65495 11.0674 4.58724 11.1624L2.57812 13.9762C2.51953 14.0583 2.42448 14.1077 2.32422 14.1077C2.22396 14.1077 2.12891 14.0596 2.07031 13.9762L0.0585938 11.1624C-0.00911458 11.0674 -0.0182292 10.9424 0.0351562 10.8382C0.0885416 10.734 0.196615 10.6689 0.3125 10.6689H1.13151C1.16797 9.84342 1.34896 9.04134 1.67057 8.27962C2.02083 7.4528 2.52083 6.71061 3.15625 6.07519C3.79297 5.43848 4.53385 4.93848 5.36068 4.58952C6.21745 4.22754 7.1263 4.04395 8.0625 4.04395C8.9987 4.04395 9.90755 4.22754 10.7643 4.59082C11.5911 4.93978 12.332 5.43978 12.9688 6.0765C13.6055 6.71322 14.1055 7.4541 14.4544 8.28092C14.8164 9.1377 15 10.0465 15 10.9827C15 11.9189 14.8164 12.8278 14.4544 13.6846C14.1445 14.4163 13.7161 15.083 13.181 15.6676C13.1146 15.7406 13.0417 15.8161 12.9688 15.8903C12.9049 15.9541 12.8372 16.0192 12.7695 16.0817C12.2526 16.5596 11.6706 16.9541 11.0365 17.2536C10.9466 17.2965 10.8555 17.3369 10.7643 17.376L10.7539 17.3799C10.2148 17.6038 9.63802 17.7197 9.03906 17.7197ZM0.625 17.0947H9.03906C9.55339 17.0947 10.0495 16.9958 10.5117 16.8018H10.513L10.5208 16.7979C10.6042 16.7627 10.6875 16.7249 10.7682 16.6872C11.3451 16.4137 11.875 16.0544 12.3451 15.6208C12.4076 15.5635 12.4674 15.5049 12.526 15.4463C12.5938 15.3786 12.6589 15.3109 12.7201 15.2445C13.2083 14.7119 13.5977 14.1051 13.8789 13.4398C14.2083 12.6611 14.375 11.833 14.375 10.9814C14.375 10.1299 14.2083 9.30306 13.8789 8.52311C13.5612 7.77051 13.1055 7.09603 12.526 6.5166C11.9479 5.93587 11.2721 5.48144 10.5208 5.16374C9.74219 4.83431 8.91536 4.66634 8.0625 4.66634C7.20964 4.66634 6.38411 4.83301 5.60417 5.16374C4.85286 5.48144 4.17708 5.93717 3.59896 6.5153C3.01953 7.09473 2.5651 7.76921 2.24609 8.52181C1.91667 9.30176 1.7487 10.1286 1.7487 10.9801C1.7487 11.1533 1.60938 11.2926 1.4362 11.2926H0.919271L2.32292 13.2562L3.72656 11.2926H3.20964C3.03646 11.2926 2.89714 11.1533 2.89714 10.9801C2.89714 10.2835 3.03385 9.60645 3.30339 8.96973C3.5638 8.35514 3.9362 7.80176 4.41016 7.3278C4.88411 6.85384 5.4362 6.48145 6.05208 6.22103C6.6888 5.9515 7.36589 5.81478 8.0625 5.81478C8.75911 5.81478 9.4362 5.9515 10.0729 6.22103C10.6875 6.48145 11.2409 6.85384 11.7148 7.3278C12.1888 7.80176 12.5612 8.35384 12.8216 8.96973C13.0911 9.60645 13.2279 10.2835 13.2279 10.9801V11.0465C13.2122 12.3122 12.7031 13.4997 11.793 14.389C11.3516 14.8213 10.8398 15.1598 10.2721 15.3955C9.68359 15.6403 9.0612 15.764 8.42057 15.764H0.625V17.0947Z" fill="#043752"/>
<path d="M16.8737 18.7536C16.8242 18.7536 16.776 18.7419 16.7305 18.7184C16.6263 18.665 16.5612 18.5583 16.5612 18.4411V17.7197H8.77344C8.60026 17.7197 8.46094 17.5804 8.46094 17.4072C8.46094 17.2341 8.60026 17.0947 8.77344 17.0947H16.8737C17.0469 17.0947 17.1862 17.2341 17.1862 17.4072V17.8343L19.1497 16.4307L17.1862 15.027V15.4541C17.1862 15.6273 17.0469 15.7666 16.8737 15.7666H12.9518C12.7786 15.7666 12.6393 15.6273 12.6393 15.4541C12.6393 15.2809 12.7786 15.1416 12.9518 15.1416H16.5612V14.4203C16.5612 14.3031 16.6263 14.1963 16.7305 14.1429C16.8346 14.0895 16.9596 14.0986 17.0547 14.1663L19.8685 16.1768C19.9505 16.2354 20 16.3304 20 16.4307C20 16.5309 19.9518 16.626 19.8685 16.6846L17.0547 18.695C17.0013 18.7341 16.9375 18.7536 16.8737 18.7536Z" fill="#043752"/>
<path d="M17.5575 7.78646C17.4559 7.78646 17.3622 7.73828 17.3036 7.65625L15.5887 5.25651C15.521 5.16146 15.5119 5.03646 15.5653 4.93229C15.6187 4.82812 15.7255 4.76302 15.8426 4.76302H16.4364C16.2189 3.28776 14.9559 2.17448 13.4312 2.17448C11.9533 2.17448 10.6643 3.27344 10.4312 4.73047C10.4038 4.90104 10.2437 5.01693 10.0731 4.98958C9.90254 4.96224 9.78665 4.80208 9.814 4.63151C9.95072 3.78125 10.3869 3.0013 11.0445 2.4362C11.7085 1.86458 12.5575 1.54948 13.4325 1.54948C14.383 1.54948 15.2854 1.91406 15.9715 2.57422C16.6564 3.23307 17.0549 4.11719 17.0926 5.0625C17.0965 5.14714 17.0653 5.23047 17.0054 5.29167C16.9468 5.35286 16.8648 5.38802 16.7801 5.38802H16.4507L17.5588 6.9388L18.6669 5.38802H18.3335C18.1643 5.38802 18.0262 5.25391 18.021 5.08464C18.0054 4.51172 17.8843 3.95443 17.6617 3.42708C17.4299 2.88021 17.0992 2.38932 16.6786 1.96875C16.258 1.54688 15.7658 1.21615 15.2189 0.985677C14.6525 0.746094 14.051 0.625 13.4312 0.625C12.8114 0.625 12.2098 0.746094 11.6434 0.985677C11.0965 1.21745 10.6057 1.54818 10.1838 1.96875C9.76322 2.38932 9.43118 2.88021 9.20072 3.42839C9.064 3.7513 8.96504 4.08854 8.90645 4.43229C8.8778 4.60286 8.71504 4.71615 8.54577 4.6875C8.3752 4.65885 8.26191 4.49609 8.29056 4.32682C8.35827 3.9362 8.47025 3.55208 8.6252 3.1849C8.88822 2.5638 9.26452 2.00651 9.74238 1.52734C10.2215 1.04818 10.7788 0.673177 11.3999 0.410156C12.0432 0.138021 12.7268 0 13.4312 0C14.1343 0 14.8179 0.138021 15.4624 0.410156C16.0835 0.673177 16.6421 1.04818 17.12 1.52734C17.5979 2.00521 17.9742 2.5638 18.2372 3.1849C18.4507 3.6901 18.5822 4.22005 18.6291 4.76432H19.2749C19.3921 4.76432 19.4989 4.82943 19.5523 4.93359C19.6057 5.03776 19.5966 5.16276 19.5288 5.25781L17.8114 7.65625C17.7528 7.73828 17.6577 7.78646 17.5575 7.78646Z" fill="#043752"/>
<path d="M4.37111 15.7656C4.36069 15.7656 4.35028 15.7656 4.34116 15.7643C4.16929 15.7474 4.04429 15.595 4.05991 15.4231C4.10549 14.9505 4.17319 14.5533 4.26043 14.2434C4.32944 13.9987 4.41278 13.7981 4.52345 13.6119C4.6172 13.4544 4.88804 13.0599 5.37371 12.7864C5.82293 12.5338 6.25392 12.4961 6.53647 12.5091C6.59767 12.5117 6.65627 12.5325 6.70575 12.569L7.72658 13.3138L8.80731 12.5651C8.85549 12.5312 8.91278 12.513 8.97137 12.5104C9.25392 12.4974 9.68361 12.5351 10.1341 12.7877C10.6198 13.0612 10.8906 13.457 10.9844 13.6132C11.0964 13.7994 11.1797 14 11.2474 14.2447C11.2748 14.3437 11.3008 14.4531 11.3242 14.569C11.3581 14.7382 11.2487 14.9036 11.0807 14.9375C10.9128 14.9713 10.7461 14.8619 10.7123 14.694C10.6914 14.5924 10.6693 14.4987 10.6458 14.414C10.5925 14.2213 10.5313 14.0742 10.4479 13.9349C10.3789 13.8203 10.1823 13.5325 9.82684 13.3333C9.5495 13.177 9.28257 13.1354 9.08465 13.1341L7.89845 13.9557C7.78908 14.0312 7.64455 14.0299 7.53647 13.9518L6.41668 13.1354C6.22007 13.138 5.95444 13.1796 5.6784 13.3346C5.32424 13.5338 5.12632 13.8216 5.05861 13.9362C4.97528 14.0755 4.91408 14.2239 4.86069 14.4153C4.78387 14.6901 4.72267 15.0507 4.68101 15.4869C4.66538 15.6458 4.52996 15.7656 4.37111 15.7656Z" fill="#043752"/>
<path d="M7.76286 12.7571C6.71468 12.7571 5.86182 11.8274 5.86182 10.6855V9.94197C5.86182 9.80916 5.94645 9.69067 6.07275 9.6464C6.15479 9.61776 6.39697 9.51099 6.52588 9.36906C6.63786 9.24536 6.82145 9.22713 6.95036 9.3326C6.99593 9.36645 7.68994 9.85864 8.82145 9.32479C8.94385 9.2675 9.08838 9.29484 9.18213 9.3925C9.23161 9.44458 9.38786 9.59562 9.51676 9.67635C9.60921 9.73364 9.6652 9.8339 9.6652 9.94197V10.6855C9.6639 11.8287 8.81103 12.7571 7.76286 12.7571ZM6.48551 10.149V10.6868C6.48551 11.4849 7.05843 12.1334 7.76156 12.1334C8.46468 12.1334 9.0376 11.4849 9.0376 10.6868V10.1047C8.98291 10.0618 8.93083 10.0175 8.88656 9.97843C7.88525 10.3795 7.14437 10.1425 6.7915 9.96411C6.68603 10.0435 6.57796 10.1034 6.48551 10.149Z" fill="#043752"/>
<path d="M6.17433 10.2554C6.05324 10.2554 5.93866 10.1851 5.88788 10.0666C5.79413 9.85044 5.7798 9.61606 5.76808 9.42856C5.75767 9.26711 5.74595 9.06658 5.79413 8.86476C5.8371 8.68507 5.93996 8.49757 6.10923 8.29054C6.13527 8.25799 6.16262 8.22674 6.19126 8.19679C6.62876 7.72804 7.31366 7.54185 7.51418 7.49627C7.79282 7.43247 8.05975 7.40903 8.30845 7.42856C8.48293 7.44159 8.63137 7.46632 8.76288 7.50278C8.95949 7.55747 9.11444 7.66554 9.21079 7.81528C9.25767 7.8882 9.28631 7.96242 9.30975 8.02101C9.32277 8.05487 9.341 8.10174 9.35272 8.11476C9.37746 8.14471 9.41652 8.17466 9.46079 8.20981C9.51808 8.25539 9.58449 8.30747 9.64699 8.37778C9.79282 8.54185 9.95689 8.81789 9.98293 9.09914C10.0077 9.36867 9.89829 9.60435 9.81366 9.75799C9.81105 9.7619 9.80715 9.77101 9.80064 9.78403C9.6548 10.0653 9.61704 10.1213 9.56496 10.1694C9.43735 10.2853 9.23944 10.2775 9.12355 10.1499C9.01678 10.0327 9.01548 9.85695 9.11444 9.73846C9.12746 9.71632 9.16131 9.65773 9.24595 9.49627C9.25637 9.47674 9.26288 9.46242 9.26678 9.45721C9.3397 9.3244 9.36834 9.23195 9.36183 9.15382C9.35272 9.05096 9.2759 8.89731 9.18084 8.78924C9.1561 8.7606 9.11834 8.73195 9.07538 8.6981C9.01288 8.64862 8.94256 8.59393 8.87616 8.5158C8.79673 8.42205 8.75897 8.3231 8.72772 8.24367C8.7134 8.20591 8.69907 8.17075 8.68736 8.15252C8.67824 8.1382 8.64829 8.11737 8.59491 8.10174C8.50376 8.0757 8.39439 8.05877 8.26157 8.04836C8.07538 8.03403 7.87225 8.05226 7.6548 8.10174C7.34881 8.17205 6.9009 8.35044 6.64829 8.61997C6.63006 8.6395 6.61183 8.66164 6.59361 8.68247C6.45428 8.85304 6.41392 8.95851 6.4022 9.00539C6.37616 9.11606 6.38397 9.25278 6.39178 9.3856C6.4009 9.53924 6.41131 9.6981 6.46209 9.81398C6.53111 9.97284 6.45819 10.1564 6.29933 10.2254C6.25767 10.2463 6.2147 10.2554 6.17433 10.2554ZM9.14048 9.71112C9.14048 9.71242 9.14048 9.71242 9.14048 9.71112V9.71112Z" fill="#043752"/>
<path d="M6.80732 13.343C6.76305 13.343 6.71748 13.3339 6.67451 13.3131C6.51826 13.2402 6.45055 13.054 6.52477 12.8977C6.56644 12.8092 6.63545 12.6347 6.64066 12.4459C6.64196 12.3795 6.63545 12.3548 6.61852 12.2949C6.61461 12.2792 6.61071 12.2649 6.6055 12.248C6.56253 12.0813 6.66149 11.9107 6.82946 11.8665C6.99612 11.8235 7.1667 11.9225 7.21097 12.0904C7.21487 12.1034 7.21748 12.1165 7.22138 12.1282C7.24482 12.2102 7.26956 12.3027 7.26566 12.4628C7.25784 12.7493 7.1667 13.0019 7.09118 13.1633C7.03649 13.2753 6.92451 13.343 6.80732 13.343Z" fill="#043752"/>
<path d="M8.68241 13.3441C8.56913 13.3441 8.45976 13.2816 8.40377 13.1735C8.27616 12.9248 8.20846 12.6735 8.20195 12.4274C8.19934 12.3024 8.21497 12.2191 8.23059 12.1527C8.26184 12.0133 8.38684 11.9092 8.53528 11.9092C8.70846 11.9092 8.84778 12.0485 8.84778 12.2217C8.84778 12.2477 8.84387 12.2738 8.83866 12.2985C8.83085 12.3271 8.82564 12.3545 8.82695 12.4105C8.83215 12.598 8.90247 12.7725 8.96106 12.887C9.03919 13.0407 8.97929 13.2295 8.82564 13.3076C8.77877 13.3324 8.73059 13.3441 8.68241 13.3441Z" fill="#043752"/>
</svg>
