<svg width="22" height="24" viewBox="0 0 22 24" fill="none" xmlns="http://www.w3.org/2000/svg">
<path d="M21.1657 15.0221L19.0001 12.8565V9.9877C18.9976 8.00517 18.2601 6.09397 16.9302 4.62368C15.6003 3.15339 13.7724 2.22844 11.8001 2.0277V0.387695H10.2001V2.0277C8.22775 2.22844 6.3999 3.15339 5.06999 4.62368C3.74008 6.09397 3.00258 8.00517 3.0001 9.9877V12.8565L0.834498 15.0221C0.684458 15.1721 0.600143 15.3755 0.600098 15.5877V17.9877C0.600098 18.1999 0.684383 18.4034 0.834412 18.5534C0.984441 18.7034 1.18792 18.7877 1.4001 18.7877H7.0001V19.5877C7.0001 20.6486 7.42152 21.666 8.17167 22.4161C8.92181 23.1663 9.93923 23.5877 11.0001 23.5877C12.061 23.5877 13.0784 23.1663 13.8285 22.4161C14.5787 21.666 15.0001 20.6486 15.0001 19.5877V18.7877H20.6001C20.8123 18.7877 21.0158 18.7034 21.1658 18.5534C21.3158 18.4034 21.4001 18.1999 21.4001 17.9877V15.5877C21.4 15.3755 21.3157 15.1721 21.1657 15.0221ZM13.4001 19.5877C13.4001 20.2242 13.1472 20.8347 12.6972 21.2848C12.2471 21.7348 11.6366 21.9877 11.0001 21.9877C10.3636 21.9877 9.75313 21.7348 9.30304 21.2848C8.85295 20.8347 8.6001 20.2242 8.6001 19.5877V18.7877H13.4001V19.5877Z" fill="#043752" fill-opacity="0.7"/>
</svg>
