<svg width="21" height="21" viewBox="0 0 21 21" fill="none" xmlns="http://www.w3.org/2000/svg">
<path d="M13.174 7.25363V0H14.6248V7.25363H13.174ZM16.0755 7.25363V0H17.5262V7.25363H16.0755ZM18.977 7.25363V0H20.4277V7.25363H18.977ZM10.2726 13.0565C9.88918 13.0653 9.50798 12.9962 9.15201 12.8535C8.79605 12.7107 8.47271 12.4973 8.20152 12.2262C7.93034 11.955 7.71694 11.6316 7.57422 11.2757C7.4315 10.9197 7.36241 10.5385 7.37114 10.1551C7.36241 9.77167 7.4315 9.39047 7.57422 9.03451C7.71694 8.67854 7.93034 8.3552 8.20152 8.08402C8.47271 7.81284 8.79605 7.59944 9.15201 7.45671C9.50798 7.31399 9.88918 7.24491 10.2726 7.25363V5.80291C9.41181 5.80291 8.57036 6.05816 7.85465 6.53638C7.13894 7.01461 6.58111 7.69432 6.2517 8.48958C5.9223 9.28484 5.83611 10.1599 6.00404 11.0042C6.17197 11.8484 6.58647 12.6239 7.19514 13.2325C7.8038 13.8412 8.57928 14.2557 9.42352 14.4236C10.2678 14.5916 11.1428 14.5054 11.9381 14.176C12.7334 13.8466 13.4131 13.2887 13.8913 12.573C14.3695 11.8573 14.6248 11.0159 14.6248 10.1551H13.174C13.1828 10.5385 13.1137 10.9197 12.971 11.2757C12.8282 11.6316 12.6148 11.955 12.3437 12.2262C12.0725 12.4973 11.7491 12.7107 11.3932 12.8535C11.0372 12.9962 10.656 13.0653 10.2726 13.0565Z" fill="#043752"/>
<path d="M19.6248 11.9351L17.5974 10.1551L16.6414 11.246L18.6666 13.0246L16.9547 15.9899L14.4689 15.1485C13.8838 15.6387 13.2176 16.0229 12.5003 16.2837L11.9845 18.8594H8.56082L8.04581 16.2844C7.33338 16.0198 6.67203 15.634 6.09096 15.1441L3.59063 15.9899L1.87877 13.0246L3.85539 11.2874C3.72016 10.5373 3.71844 9.76916 3.85031 9.01844L1.87877 7.28482L3.59063 4.32026L6.07645 5.16169C6.66167 4.67114 7.32816 4.28672 8.04581 4.02577L8.56082 1.45073H10.2727V0H8.56082C8.22544 3.48445e-05 7.90044 0.116267 7.6411 0.328921C7.38176 0.541575 7.20412 0.837513 7.13838 1.16638L6.7728 2.99285C6.43964 3.15258 6.118 3.33533 5.81024 3.53977L4.05486 2.9457C3.73725 2.83815 3.39217 2.84408 3.07843 2.96246C2.76469 3.08084 2.50171 3.30435 2.3343 3.5949L0.622444 6.56019C0.454748 6.85054 0.392809 7.19003 0.44716 7.5209C0.501512 7.85177 0.668798 8.15359 0.920568 8.37504L2.32125 9.60599C2.30891 9.78878 2.29368 9.97012 2.29368 10.1551C2.29368 10.3422 2.30093 10.5272 2.31399 10.7107L0.921294 11.9351C0.669289 12.1564 0.501724 12.4581 0.447106 12.789C0.392489 13.1199 0.454192 13.4595 0.621718 13.75L2.33358 16.7153C2.50104 17.0061 2.76426 17.2299 3.07832 17.3483C3.39237 17.4667 3.73778 17.4724 4.05559 17.3645L5.82112 16.7668C6.12528 16.972 6.44326 17.156 6.7728 17.3173L7.13766 19.1438C7.20342 19.4728 7.38117 19.7688 7.64066 19.9815C7.90014 20.1941 8.22532 20.3103 8.56082 20.3102H11.9845C12.3199 20.3101 12.6449 20.1939 12.9043 19.9813C13.1636 19.7686 13.3412 19.4727 13.407 19.1438L13.7726 17.3166C14.1057 17.1571 14.4273 16.9746 14.7351 16.7704L16.4898 17.3637C16.8074 17.4715 17.1526 17.4658 17.4665 17.3476C17.7804 17.2293 18.0435 17.0059 18.2111 16.7153L19.9229 13.75C20.0906 13.4596 20.1525 13.1201 20.0982 12.7893C20.0438 12.4584 19.8766 12.1566 19.6248 11.9351Z" fill="#043752"/>
</svg>
