<svg width="21" height="21" viewBox="0 0 21 21" fill="none" xmlns="http://www.w3.org/2000/svg">
<path d="M12.7893 7.25363V0H14.24V7.25363H12.7893ZM15.6907 7.25363V0H17.1415V7.25363H15.6907ZM18.5922 7.25363V0H20.0429V7.25363H18.5922ZM9.88783 13.0565C9.50441 13.0653 9.12321 12.9962 8.76725 12.8535C8.41128 12.7107 8.08794 12.4973 7.81676 12.2262C7.54558 11.955 7.33218 11.6316 7.18945 11.2757C7.04673 10.9197 6.97765 10.5385 6.98637 10.1551C6.97765 9.77167 7.04673 9.39047 7.18945 9.03451C7.33218 8.67854 7.54558 8.3552 7.81676 8.08402C8.08794 7.81284 8.41128 7.59944 8.76725 7.45671C9.12321 7.31399 9.50441 7.24491 9.88783 7.25363V5.80291C9.02705 5.80291 8.1856 6.05816 7.46988 6.53638C6.75417 7.01461 6.19634 7.69432 5.86694 8.48958C5.53753 9.28484 5.45134 10.1599 5.61927 11.0042C5.7872 11.8484 6.20171 12.6239 6.81037 13.2325C7.41903 13.8412 8.19452 14.2557 9.03876 14.4236C9.883 14.5916 10.7581 14.5054 11.5533 14.176C12.3486 13.8466 13.0283 13.2887 13.5065 12.573C13.9848 11.8573 14.24 11.0159 14.24 10.1551H12.7893C12.798 10.5385 12.7289 10.9197 12.5862 11.2757C12.4435 11.6316 12.2301 11.955 11.9589 12.2262C11.6877 12.4973 11.3644 12.7107 11.0084 12.8535C10.6524 12.9962 10.2712 13.0653 9.88783 13.0565Z" fill="#043752"/>
<path d="M19.24 11.9351L17.2126 10.1551L16.2566 11.246L18.2818 13.0246L16.57 15.9899L14.0841 15.1485C13.4991 15.6387 12.8328 16.0229 12.1155 16.2837L11.5998 18.8594H8.17606L7.66105 16.2844C6.94861 16.0198 6.28727 15.634 5.70619 15.1441L3.20587 15.9899L1.49401 13.0246L3.47062 11.2874C3.33539 10.5373 3.33367 9.76916 3.46555 9.01844L1.49401 7.28482L3.20587 4.32026L5.69169 5.16169C6.27691 4.67114 6.9434 4.28672 7.66105 4.02577L8.17606 1.45073H9.88791V0H8.17606C7.84068 3.48445e-05 7.51567 0.116267 7.25634 0.328921C6.997 0.541575 6.81935 0.837513 6.75362 1.16638L6.38803 2.99285C6.05487 3.15258 5.73324 3.33533 5.42548 3.53977L3.6701 2.9457C3.35248 2.83815 3.0074 2.84408 2.69366 2.96246C2.37992 3.08084 2.11694 3.30435 1.94954 3.5949L0.237678 6.56019C0.0699824 6.85054 0.00804298 7.19003 0.0623946 7.5209C0.116746 7.85177 0.284033 8.15359 0.535803 8.37504L1.93648 9.60599C1.92415 9.78878 1.90892 9.97012 1.90892 10.1551C1.90892 10.3422 1.91617 10.5272 1.92923 10.7107L0.536528 11.9351C0.284523 12.1564 0.116958 12.4581 0.0623408 12.789C0.00772319 13.1199 0.0694263 13.4595 0.236953 13.75L1.94881 16.7153C2.11627 17.0061 2.3795 17.2299 2.69355 17.3483C3.0076 17.4667 3.35302 17.4724 3.67082 17.3645L5.43636 16.7668C5.74052 16.972 6.0585 17.156 6.38803 17.3173L6.75289 19.1438C6.81865 19.4728 6.99641 19.7688 7.25589 19.9815C7.51538 20.1941 7.84055 20.3103 8.17606 20.3102H11.5998C11.9351 20.3101 12.2602 20.1939 12.5195 19.9813C12.7788 19.7686 12.9565 19.4727 13.0222 19.1438L13.3878 17.3166C13.7209 17.1571 14.0426 16.9746 14.3503 16.7704L16.105 17.3637C16.4226 17.4715 16.7678 17.4658 17.0817 17.3476C17.3956 17.2293 17.6587 17.0059 17.8263 16.7153L19.5381 13.75C19.7058 13.4596 19.7678 13.1201 19.7134 12.7893C19.6591 12.4584 19.4918 12.1566 19.24 11.9351Z" fill="#043752"/>
</svg>
