<svg width="20" height="20" viewBox="0 0 20 20" fill="none" xmlns="http://www.w3.org/2000/svg">
<path d="M1.15355 11.0945L1.33354 11.1451V16.8782C1.33452 17.3256 1.63267 17.718 2.06351 17.8388L9.54915 19.9357C9.84347 20.0182 10.1548 20.0182 10.4491 19.9357L17.9347 17.8391C18.3657 17.7189 18.6643 17.3272 18.666 16.8798V11.1468L18.846 11.0961C19.6855 10.8616 20.1759 9.99092 19.9414 9.15139C19.9033 9.01496 19.847 8.8843 19.774 8.7629L18.6187 6.82968L18.6157 6.83167C18.5734 6.75847 18.5047 6.70417 18.4237 6.68L15.9995 5.99038C15.9995 5.82141 15.9928 5.65708 15.9782 5.47709C15.9499 5.23288 15.7895 5.0241 15.5608 4.93379L14.8052 4.62947C14.6994 4.26207 14.5517 3.90799 14.3652 3.57418L14.6872 2.82054C14.7854 2.5945 14.7483 2.33248 14.5912 2.14257C14.4762 2.00156 14.3579 1.8759 14.2386 1.75427C14.1229 1.64193 13.9966 1.52096 13.8632 1.41362C13.671 1.25304 13.4049 1.21433 13.1749 1.31363L12.4253 1.63396C12.0916 1.44745 11.7375 1.29984 11.37 1.19398L11.0664 0.445036C10.9752 0.211962 10.7622 0.0488452 10.5134 0.0217372C10.1684 -0.00724573 9.82148 -0.00724573 9.47646 0.0217372C9.23217 0.0500951 9.02335 0.210634 8.93316 0.439372L8.62849 1.19496C8.26144 1.30054 7.90771 1.44784 7.57421 1.63392L6.81991 1.31226C6.59387 1.21496 6.33239 1.25226 6.1426 1.40893C6.00296 1.52291 5.87593 1.64224 5.75461 1.76126C5.64262 1.87625 5.52329 2.00226 5.41361 2.1369C5.25233 2.32861 5.21358 2.59516 5.31362 2.82488L5.63427 3.57484C5.44775 3.90861 5.30014 4.2627 5.19429 4.63014L4.44468 4.93212C4.21102 5.02332 4.04755 5.23702 4.02071 5.48642C4.00704 5.65575 4.00072 5.82141 4.00036 5.99038L1.57584 6.67968C1.49483 6.70386 1.42612 6.75812 1.38385 6.83136L1.38085 6.82936L0.225905 8.76259C-0.223252 9.50962 0.0182201 10.4793 0.765253 10.9284C0.886575 11.0014 1.01719 11.0577 1.15355 11.0958V11.0945ZM2.24283 17.1998C2.09956 17.1593 2.0005 17.0287 2.00019 16.8798V11.3318L6.99662 12.7317C7.68119 12.9223 8.40881 12.6327 8.7752 12.0238L9.66648 10.5375V19.2777L2.24283 17.1998ZM8.41518 8.54361C7.53253 8.00036 6.99635 7.03681 6.9999 6.00042C6.9999 5.94578 7.00791 5.88277 7.01158 5.8241L9.82077 5.02414C9.93764 4.99078 10.0615 4.99078 10.1784 5.02414L12.9879 5.8241C12.9916 5.88277 12.9996 5.94542 12.9996 6.00042C13.0032 7.03685 12.467 8.0004 11.5843 8.54361L9.99971 8.98726L8.41518 8.54361ZM7.14091 5.0941C7.64288 3.51519 9.32974 2.64215 10.9086 3.14412C11.8366 3.43914 12.5636 4.16618 12.8586 5.0941L10.3604 4.38312C10.1245 4.31629 9.87472 4.31629 9.63879 4.38312L7.14091 5.0941ZM17.9993 16.8798C17.9985 17.0285 17.8994 17.1585 17.7564 17.1988L10.3331 19.2774V10.5375L11.2244 12.0231C11.5102 12.4987 12.0244 12.7896 12.5793 12.7897C12.7225 12.7899 12.8651 12.7703 13.003 12.7314L17.9994 11.3318V16.8798H17.9993ZM19.266 9.91354C19.1616 10.1774 18.9394 10.3769 18.666 10.4525L12.823 12.0898C12.4274 12.2002 12.0069 12.0326 11.7957 11.6804L10.5101 9.53688L18.1764 7.39L19.201 9.10491C19.3483 9.34885 19.3723 9.64785 19.266 9.91222V9.91354ZM15.9401 6.66703L17.1047 6.99803L14.6995 7.671C14.7351 7.57101 14.7741 7.47335 14.8035 7.37102L15.5534 7.06904C15.7349 6.99795 15.8762 6.85108 15.9401 6.66703ZM4.68802 5.5531L5.59798 5.18644C5.69758 5.14671 5.77203 5.06152 5.79797 4.95747C5.90265 4.53885 6.06952 4.13833 6.29294 3.7692C6.3481 3.67741 6.35579 3.56468 6.31361 3.46621L5.92597 2.56626C6.02296 2.44728 6.12596 2.3376 6.22596 2.23295C6.33529 2.12628 6.44493 2.02261 6.56227 1.92695L7.46656 2.31361C7.56518 2.35541 7.67783 2.34775 7.76986 2.29295C8.13894 2.06933 8.53951 1.90238 8.95812 1.79762C9.06198 1.77134 9.1471 1.69704 9.1871 1.59763L9.54141 0.685337C9.84316 0.658385 10.1468 0.659166 10.4484 0.68768L10.815 1.59763C10.8547 1.69724 10.9399 1.77169 11.044 1.79762C11.4626 1.90235 11.8632 2.06933 12.2323 2.29295C12.3243 2.34779 12.437 2.35549 12.5356 2.31361L13.4355 1.92563C13.5542 2.02261 13.6638 2.12562 13.7668 2.22561C13.8735 2.33494 13.9772 2.44458 14.0728 2.56192L13.6868 3.46723C13.6446 3.56566 13.6523 3.67839 13.7075 3.77022C13.9309 4.13934 14.0978 4.53991 14.2025 4.95848C14.2284 5.06254 14.3029 5.14777 14.4025 5.18745L15.3148 5.54208C15.3274 5.69606 15.3337 5.84707 15.3337 6.0014C15.337 6.1508 15.3298 6.30029 15.3124 6.44872L14.4025 6.81538C14.303 6.85495 14.2286 6.9399 14.2025 7.04369C14.1265 7.3409 14.0179 7.62874 13.8785 7.90197L12.9559 8.16027C13.4151 7.53355 13.6638 6.77733 13.6662 6.00038C13.6657 5.85105 13.6561 5.70188 13.6372 5.55372C13.3913 3.54488 11.5634 2.11581 9.55454 2.36178C7.88372 2.56637 6.56719 3.88291 6.36259 5.55372C6.34357 5.70184 6.33376 5.85101 6.33325 6.00038C6.33579 6.77694 6.58434 7.53276 7.04322 8.15926L6.12061 7.90029C5.9812 7.62706 5.87254 7.33918 5.79664 7.04201C5.77051 6.93819 5.6961 6.85327 5.59665 6.8137L4.68404 6.45938C4.64236 6.44106 4.6667 6.04206 4.6667 6.00042C4.66603 5.85101 4.67314 5.70172 4.68802 5.5531ZM4.05872 6.66703C4.12114 6.84928 4.25988 6.99533 4.4387 7.06701L5.19468 7.37133C5.22401 7.47398 5.263 7.57132 5.29866 7.67131L2.89479 6.99803L4.05872 6.66703ZM0.797907 9.10456L1.82219 7.39L9.48849 9.53688L8.20253 11.6808C7.99137 12.033 7.57073 12.2005 7.17524 12.0897L1.33354 10.4525C0.848725 10.3168 0.565732 9.8137 0.701467 9.32885C0.723536 9.25006 0.756074 9.17464 0.798259 9.10456H0.797907Z" fill="#043752"/>
</svg>
