<svg width="24" height="19" viewBox="0 0 24 19" fill="none" xmlns="http://www.w3.org/2000/svg">
<path d="M2.49879 0.235951C2.18419 0.550552 2.18419 1.06062 2.49879 1.37522L19.6541 18.5306C19.9687 18.8452 20.4788 18.8452 20.7934 18.5306C21.108 18.216 21.108 17.7059 20.7934 17.3913L3.63806 0.235951C3.32346 -0.0786503 2.81339 -0.0786503 2.49879 0.235951Z" fill="#043752"/>
<path d="M0 9.28392C0 8.60119 1.36779 6.59924 3.5703 4.79623L4.68718 5.96472C4.62118 6.01792 4.55582 6.07145 4.49111 6.12529C3.513 6.93911 2.73479 7.78126 2.215 8.47068C1.95387 8.81703 1.77601 9.10096 1.67154 9.30321C1.65391 9.33736 1.63978 9.36642 1.62856 9.39064L1.63059 9.39919C1.64928 9.477 1.68247 9.58142 1.7374 9.71241C1.84839 9.97708 2.02956 10.3061 2.29214 10.6827C2.81758 11.4364 3.60722 12.2923 4.60649 13.0984C6.62161 14.724 9.2964 15.9972 12.0838 15.9972C12.7596 15.9972 13.4216 15.9182 14.0637 15.7746L15.3324 17.1019C14.3073 17.4216 13.2183 17.6083 12.0838 17.6083C5.55841 17.6083 0 11.7007 0 9.28392Z" fill="#043752"/>
<path d="M7.51881 9.82098C7.51881 9.54195 7.54385 9.26877 7.59179 9.00356L12.6974 14.3451C12.4967 14.3721 12.2919 14.386 12.0838 14.386C9.56263 14.386 7.51881 12.3422 7.51881 9.82098Z" fill="#043752"/>
<path d="M10.9836 5.38945L16.4612 11.1203C16.5833 10.7085 16.6488 10.2724 16.6488 9.82098C16.6488 7.2998 14.605 5.25599 12.0838 5.25599C11.7045 5.25599 11.3359 5.30225 10.9836 5.38945Z" fill="#043752"/>
<path d="M19.2431 13.0393C19.0724 13.1887 18.8964 13.3354 18.7154 13.4785L19.833 14.6478C22.1833 12.7515 23.6306 10.4372 23.6306 9.28392C23.6306 7.40422 18.3407 1.49658 11.8153 1.49658C10.4642 1.49658 9.16608 1.77286 7.95691 2.22293L9.18614 3.50896C10.0361 3.25417 10.918 3.10775 11.8153 3.10775C14.599 3.10775 17.2078 4.37771 19.163 5.94309C20.1325 6.7193 20.8956 7.53281 21.4012 8.22476C21.6545 8.57142 21.8257 8.8636 21.9273 9.08412C21.9821 9.20301 22.0055 9.27681 22.0151 9.31036C22.0065 9.35905 21.9812 9.47265 21.9065 9.65912C21.8038 9.91524 21.636 10.2391 21.3931 10.6128C20.9073 11.3602 20.1759 12.2229 19.2431 13.0393Z" fill="#043752"/>
</svg>
