<svg width="24" height="16" viewBox="0 0 24 16" fill="none" xmlns="http://www.w3.org/2000/svg">
<path d="M23.4798 7.36747C23.2687 7.07869 18.2389 0.296631 11.8149 0.296631C5.39089 0.296631 0.36082 7.07869 0.149949 7.36719C-0.0499831 7.64115 -0.0499831 8.01273 0.149949 8.28669C0.36082 8.57546 5.39089 15.3575 11.8149 15.3575C18.2389 15.3575 23.2687 8.57542 23.4798 8.28692C23.6801 8.013 23.6801 7.64115 23.4798 7.36747ZM11.8149 13.7995C7.08293 13.7995 2.98454 9.29812 1.77133 7.82655C2.98297 6.35368 7.07277 1.85465 11.8149 1.85465C16.5466 1.85465 20.6447 6.35525 21.8585 7.82761C20.6468 9.30043 16.557 13.7995 11.8149 13.7995Z" fill="black"/>
<path d="M11.8149 3.15308C9.23765 3.15308 7.14081 5.24992 7.14081 7.82717C7.14081 10.4044 9.23765 12.5013 11.8149 12.5013C14.3921 12.5013 16.489 10.4044 16.489 7.82717C16.489 5.24992 14.3921 3.15308 11.8149 3.15308ZM11.8149 10.9432C10.0966 10.9432 8.69887 9.54538 8.69887 7.82717C8.69887 6.10896 10.0967 4.71114 11.8149 4.71114C13.5331 4.71114 14.9309 6.10896 14.9309 7.82717C14.9309 9.54538 13.5332 10.9432 11.8149 10.9432Z" fill="black"/>
</svg>
