<svg width="28" height="27" viewBox="0 0 28 27" fill="none" xmlns="http://www.w3.org/2000/svg">
<path fill-rule="evenodd" clip-rule="evenodd" d="M5.39962 10.8002V6.30054C5.39962 5.47327 5.56256 4.6541 5.87915 3.8898C6.19573 3.1255 6.65975 2.43104 7.24472 1.84607C7.82969 1.26111 8.52415 0.797084 9.28844 0.480502C10.0527 0.163919 10.8719 0.000976563 11.6992 0.000976562C12.5265 0.000976563 13.3456 0.163919 14.1099 0.480502C14.8742 0.797084 15.5687 1.26111 16.1536 1.84607C16.7386 2.43104 17.2026 3.1255 17.5192 3.8898C17.8358 4.6541 17.9987 5.47327 17.9987 6.30054V10.8002H20.6986C21.4146 10.8002 22.1013 11.0847 22.6076 11.591C23.1139 12.0973 23.3984 12.784 23.3984 13.5V14.49C24.4156 14.6965 25.3301 15.2484 25.9869 16.052C26.6438 16.8557 27.0026 17.8617 27.0026 18.8997C27.0026 19.9376 26.6438 20.9436 25.9869 21.7473C25.3301 22.5509 24.4156 23.1028 23.3984 23.3093V24.2993C23.3984 25.0153 23.1139 25.702 22.6076 26.2083C22.1013 26.7146 21.4146 26.9991 20.6986 26.9991H2.69981C1.98378 26.9991 1.29707 26.7146 0.790756 26.2083C0.284444 25.702 0 25.0153 0 24.2993L0 13.5C0 12.784 0.284444 12.0973 0.790756 11.591C1.29707 11.0847 1.98378 10.8002 2.69981 10.8002H5.39962ZM7.1995 6.30054C7.1995 5.10714 7.67357 3.96263 8.51742 3.11878C9.36128 2.27492 10.5058 1.80085 11.6992 1.80085C12.8926 1.80085 14.0371 2.27492 14.8809 3.11878C15.7248 3.96263 16.1989 5.10714 16.1989 6.30054V10.8002H7.1995V6.30054ZM15.2989 16.1998C14.5829 16.1998 13.8962 16.4843 13.3899 16.9906C12.8836 17.4969 12.5991 18.1836 12.5991 18.8997C12.5991 19.6157 12.8836 20.3024 13.3899 20.8087C13.8962 21.315 14.5829 21.5995 15.2989 21.5995H22.4984C23.2145 21.5995 23.9012 21.315 24.4075 20.8087C24.9138 20.3024 25.1982 19.6157 25.1982 18.8997C25.1982 18.1836 24.9138 17.4969 24.4075 16.9906C23.9012 16.4843 23.2145 16.1998 22.4984 16.1998H15.2989Z" fill="#043752"/>
</svg>
