<svg width="20" height="20" viewBox="0 0 20 20" fill="none" xmlns="http://www.w3.org/2000/svg">
<path d="M15.8333 9.99875C15.3725 9.99875 15 10.3721 15 10.832V17.4987C15 17.9579 14.6266 18.332 14.1667 18.332H2.5C2.03995 18.332 1.66672 17.9579 1.66672 17.4987V5.83203C1.66672 5.37289 2.03995 4.99875 2.5 4.99875H9.16672C9.62753 4.99875 10 4.62537 10 4.16547C10 3.70541 9.62753 3.33203 9.16672 3.33203H2.5C1.12167 3.33203 0 4.4537 0 5.83203V17.4987C0 18.8771 1.12167 19.9987 2.5 19.9987H14.1667C15.545 19.9987 16.6667 18.8771 16.6667 17.4987V10.832C16.6667 10.3712 16.2941 9.99875 15.8333 9.99875Z" fill="#043752"/>
<path d="M7.8132 9.23981C7.75491 9.2981 7.71569 9.37225 7.69906 9.45221L7.10992 12.399C7.08245 12.5356 7.12579 12.6764 7.22405 12.7756C7.30325 12.8548 7.40991 12.8972 7.51916 12.8972C7.54571 12.8972 7.57333 12.8947 7.60079 12.8889L10.5467 12.2998C10.6283 12.283 10.7024 12.244 10.76 12.1855L17.3533 5.59219L14.4074 2.64648L7.8132 9.23981Z" fill="#043752"/>
<path d="M19.3899 0.609398C18.5775 -0.203133 17.2558 -0.203133 16.444 0.609398L15.2908 1.76266L18.2366 4.70852L19.3899 3.55511C19.7833 3.16265 19.9999 2.63927 19.9999 2.08263C19.9999 1.52599 19.7833 1.00262 19.3899 0.609398Z" fill="#043752"/>
</svg>
