<svg width="38" height="38" viewBox="0 0 38 38" fill="none" xmlns="http://www.w3.org/2000/svg">
<path d="M7.125 8.70898H30.875V11.084H7.125V8.70898Z" fill="#424242"/>
<path d="M3.16675 19.7923H34.8334V14.2507C34.8334 12.509 33.4084 11.084 31.6667 11.084H6.33341C4.59175 11.084 3.16675 12.509 3.16675 14.2507V19.7923Z" fill="#616161"/>
<path d="M6.33341 28.5H31.6667C33.4084 28.5 34.8334 27.075 34.8334 25.3333V19H3.16675V25.3333C3.16675 27.075 4.59175 28.5 6.33341 28.5Z" fill="#424242"/>
<path d="M31.6667 15.0423C32.1039 15.0423 32.4583 14.6879 32.4583 14.2507C32.4583 13.8134 32.1039 13.459 31.6667 13.459C31.2294 13.459 30.875 13.8134 30.875 14.2507C30.875 14.6879 31.2294 15.0423 31.6667 15.0423Z" fill="#00E676"/>
<path d="M8.70825 3.16602H29.2916V11.0827H8.70825V3.16602Z" fill="#90CAF9"/>
<path d="M29.6875 24.541H8.3125C7.67917 24.541 7.125 23.9868 7.125 23.3535C7.125 22.7202 7.67917 22.166 8.3125 22.166H29.6875C30.3208 22.166 30.875 22.7202 30.875 23.3535C30.875 23.9868 30.3208 24.541 29.6875 24.541Z" fill="#242424"/>
<path d="M8.70825 24.541H29.2916V33.2493H8.70825V24.541Z" fill="#90CAF9"/>
<path d="M8.70825 22.959H29.2916V24.5423H8.70825V22.959Z" fill="#42A5F5"/>
<path d="M12.6667 26.125H26.1251V27.7083H12.6667V26.125ZM12.6667 29.2917H22.9584V30.875H12.6667V29.2917Z" fill="#1976D2"/>
</svg>
