<svg width="30" height="30" viewBox="0 0 30 30" fill="none" xmlns="http://www.w3.org/2000/svg">
<g clip-path="url(#clip0_7264_13033)">
<path fill-rule="evenodd" clip-rule="evenodd" d="M15 10.3125C12.9289 10.3125 11.25 11.9914 11.25 14.0625C11.25 16.1336 12.9289 17.8125 15 17.8125C17.0711 17.8125 18.75 16.1336 18.75 14.0625C18.75 11.9914 17.0711 10.3125 15 10.3125ZM9.375 14.0625C9.375 10.9559 11.8934 8.4375 15 8.4375C18.1066 8.4375 20.625 10.9559 20.625 14.0625C20.625 17.1691 18.1066 19.6875 15 19.6875C11.8934 19.6875 9.375 17.1691 9.375 14.0625Z" fill="#043752"/>
<path fill-rule="evenodd" clip-rule="evenodd" d="M14.9997 19.6875C13.6146 19.6875 12.2567 20.071 11.0763 20.7956C9.89591 21.5201 8.9392 22.5574 8.31221 23.7924C8.07782 24.254 7.51355 24.4382 7.05187 24.2039C6.5902 23.9695 6.40595 23.4052 6.64034 22.9435C7.42407 21.3997 8.61997 20.1032 10.0955 19.1976C11.571 18.2919 13.2684 17.8125 14.9997 17.8125C16.731 17.8125 18.4285 18.2919 19.904 19.1976C21.3795 20.1032 22.5754 21.3997 23.3591 22.9435C23.5935 23.4052 23.4092 23.9695 22.9475 24.2039C22.4859 24.4382 21.9216 24.254 21.6872 23.7924C21.0602 22.5574 20.1035 21.5201 18.9231 20.7956C17.7427 20.071 16.3847 19.6875 14.9997 19.6875Z" fill="#043752"/>
<path fill-rule="evenodd" clip-rule="evenodd" d="M22.7746 14.3371C23.1407 13.971 23.7342 13.971 24.1003 14.3371L26.25 16.4866L28.3996 14.3371C28.7657 13.971 29.3592 13.971 29.7253 14.3371C30.0915 14.7032 30.0915 15.2967 29.7253 15.6628L26.9128 18.4753C26.5467 18.8415 25.9532 18.8415 25.5871 18.4753L22.7746 15.6628C22.4085 15.2967 22.4085 14.7032 22.7746 14.3371Z" fill="#043752"/>
<path fill-rule="evenodd" clip-rule="evenodd" d="M3.08709 11.5246C3.4532 11.1585 4.0468 11.1585 4.41291 11.5246L7.22541 14.3371C7.59152 14.7032 7.59152 15.2967 7.22541 15.6629C6.8593 16.029 6.2657 16.029 5.89959 15.6629L3.75 13.5134L1.60041 15.6629C1.2343 16.029 0.640704 16.029 0.274587 15.6629C-0.0915291 15.2967 -0.0915291 14.7032 0.274587 14.3371L3.08709 11.5246Z" fill="#043752"/>
<path fill-rule="evenodd" clip-rule="evenodd" d="M10.7536 3.56435C13.2218 2.64696 15.9208 2.55364 18.4464 3.29834C20.9721 4.04303 23.1886 5.58569 24.7644 7.69541C26.34 9.80513 27.19 12.3684 27.1871 15.0016V17.8131C27.1871 18.3309 26.7674 18.7506 26.2496 18.7506C25.7319 18.7506 25.3121 18.3309 25.3121 17.8131V15.0006C25.3145 12.7725 24.5954 10.6025 23.262 8.81739C21.9288 7.03225 20.0533 5.72691 17.9161 5.09679C15.779 4.46666 13.4953 4.54563 11.4068 5.32188C9.31835 6.09811 7.53744 7.52989 6.33068 9.40286C6.05025 9.83811 5.47008 9.96361 5.03483 9.68318C4.59958 9.40275 4.47408 8.82258 4.7545 8.38733C6.18068 6.17381 8.28539 4.48173 10.7536 3.56435Z" fill="#043752"/>
<path fill-rule="evenodd" clip-rule="evenodd" d="M3.75001 11.25C4.26777 11.25 4.68751 11.6697 4.68751 12.1875V15C4.68507 17.2281 5.40431 19.398 6.73757 21.1831C8.07082 22.9684 9.94638 24.2736 12.0835 24.9038C14.2206 25.5339 16.5044 25.4549 18.5927 24.6788C20.6812 23.9025 22.4622 22.4706 23.669 20.5978C23.9494 20.1625 24.5295 20.037 24.9647 20.3174C25.4 20.5979 25.5255 21.178 25.2451 21.6132C23.819 23.8267 21.7142 25.5189 19.246 26.4363C16.7779 27.3536 14.0789 27.4469 11.5532 26.7022C9.02753 25.9575 6.81097 24.4149 5.23531 22.3051C3.65974 20.1956 2.80974 17.6325 2.81251 14.9995C2.81251 14.9994 2.81251 14.9998 2.81251 14.9995V12.1875C2.81251 11.6697 3.23223 11.25 3.75001 11.25Z" fill="#043752"/>
</g>
<defs>
<clipPath id="clip0_7264_13033">
<rect width="30" height="30" fill="white"/>
</clipPath>
</defs>
</svg>
