<svg width="20" height="20" viewBox="0 0 20 20" fill="none" xmlns="http://www.w3.org/2000/svg">
<path d="M9.59188 10.0546C9.22688 10.3946 6.30156 13.2327 6.30156 13.2327L7.0825 14.0027C7.0825 14.0027 9.68156 11.604 10.0719 11.2412C10.1684 11.1518 10.3319 10.9815 10.6341 10.9815H19.4981V9.75399H10.3259C10.0578 9.7543 9.80375 9.8593 9.59188 10.0543V10.0546ZM14.8434 3.38242C15.8828 3.38242 16.45 2.66274 16.45 1.77586C16.4499 1.4582 16.3557 1.14769 16.1792 0.883593C16.0026 0.619494 15.7518 0.413666 15.4583 0.292131C15.1648 0.170597 14.8419 0.138814 14.5303 0.200801C14.2188 0.262789 13.9326 0.415763 13.708 0.640382C13.4833 0.865002 13.3304 1.15118 13.2684 1.46273C13.2064 1.77429 13.2382 2.09722 13.3597 2.39071C13.4812 2.6842 13.6871 2.93507 13.9512 3.11159C14.2153 3.28811 14.5258 3.38236 14.8434 3.38242ZM12.4616 6.14305H13.0003L12.2109 8.97898H17.4766L16.6866 6.14305H17.2253L18.0447 8.97898H19.4366L18.3178 5.21586C18.17 4.69617 17.5128 3.77555 16.375 3.77555H13.3119C12.1747 3.77555 11.5181 4.69617 11.3691 5.21586L10.2519 8.97898H11.6438L12.4616 6.14305ZM7.90719 8.83024L6.49312 6.19367C6.49312 6.19367 6.41 6.06805 6.25594 6.14274C6.1175 6.20961 6.18 6.36555 6.18 6.36555L6.64906 7.26086L6.94094 7.81867L6.60437 7.66711C6.00813 7.39836 5.67938 7.28367 5.5475 7.22461C5.52406 7.21367 5.40844 7.15024 5.35344 7.0293C5.19719 6.67992 4.53 4.99117 4.38031 4.61774C4.25375 4.3018 3.94156 3.85305 3.3 3.6943C2.56969 3.51367 1.83344 3.9743 1.65969 4.70711L0.663125 8.90742C0.574375 9.24617 0.421875 10.1624 0.421875 10.5487L0.428438 18.753C0.433438 19.4452 0.933125 20.0034 1.62469 20.0002C2.31531 19.998 2.78813 19.4352 2.78594 18.744L2.78437 11.7934L3.84719 7.30742C3.97125 7.61086 4.125 7.98055 4.17531 8.0693C4.295 8.27867 4.41312 8.42274 4.65438 8.53617C4.65438 8.53617 6.04531 9.1118 6.58375 9.35742C6.73752 9.41619 6.90608 9.42417 7.06472 9.3802C7.22335 9.33622 7.36374 9.2426 7.46531 9.11305L7.53969 8.95899L7.56531 9.00805C7.56531 9.00805 7.72375 9.28711 7.95781 9.29992C8.025 9.08711 7.9075 8.83024 7.9075 8.83024H7.90719ZM5.75719 1.76211C5.75719 1.97311 5.71563 2.18204 5.63488 2.37697C5.55414 2.57191 5.43579 2.74903 5.28659 2.89823C5.13739 3.04743 4.96027 3.16578 4.76533 3.24652C4.5704 3.32727 4.36147 3.36883 4.15047 3.36883C3.93947 3.36883 3.73054 3.32727 3.5356 3.24652C3.34067 3.16578 3.16354 3.04743 3.01435 2.89823C2.86515 2.74903 2.7468 2.57191 2.66605 2.37697C2.58531 2.18204 2.54375 1.97311 2.54375 1.76211C2.54964 1.33986 2.72151 0.936905 3.02219 0.640391C3.32286 0.343877 3.72818 0.177643 4.15047 0.177643C4.57276 0.177643 4.97807 0.343877 5.27875 0.640391C5.57943 0.936905 5.7513 1.33986 5.75719 1.76211Z" fill="#043752"/>
<path d="M6.48109 12.2458L9.61172 9.33207L9.20484 8.89551L6.07422 11.8096L6.48109 12.2458Z" fill="#043752"/>
</svg>
