<svg width="15" height="15" viewBox="0 0 25 25" fill="none" xmlns="http://www.w3.org/2000/svg">
<circle cx="12.5" cy="12.5" r="12.5" fill="#EC2020"/>
<path d="M13.4132 12.5117L17.307 8.61777C17.5604 8.36449 17.5604 7.95496 17.307 7.70168C17.0537 7.4484 16.6442 7.4484 16.3909 7.70168L12.497 11.5956L8.60321 7.70168C8.34981 7.4484 7.9404 7.4484 7.68712 7.70168C7.43372 7.95496 7.43372 8.36449 7.68712 8.61777L11.5809 12.5117L7.68712 16.4056C7.43372 16.6589 7.43372 17.0684 7.68712 17.3217C7.81335 17.448 7.97932 17.5115 8.14517 17.5115C8.31102 17.5115 8.47687 17.448 8.60321 17.3217L12.497 13.4278L16.3909 17.3217C16.5173 17.448 16.6831 17.5115 16.849 17.5115C17.0148 17.5115 17.1807 17.448 17.307 17.3217C17.5604 17.0684 17.5604 16.6589 17.307 16.4056L13.4132 12.5117Z" fill="white"/>
</svg>
