<svg width="20" height="25" viewBox="0 0 20 25" fill="none" xmlns="http://www.w3.org/2000/svg">
<path d="M20 4.69727C20 4.4306 19.7838 4.21444 19.5172 4.21444H17.2462V0.482831C17.2462 0.216163 17.03 0 16.7633 0H0.482831C0.216163 0 0 0.216163 0 0.482831V21.6801C0 21.9468 0.216163 22.1629 0.482831 22.1629H4.21439V24.2381C4.21439 24.5048 4.43055 24.7209 4.69722 24.7209H19.5172C19.7838 24.7209 20 24.5048 20 24.2381V17.2112C20 16.9446 19.7838 16.7284 19.5172 16.7284C19.2505 16.7284 19.0343 16.9446 19.0343 17.2112V23.7553H5.18005V22.1629H16.7633C17.03 22.1629 17.2462 21.9468 17.2462 21.6801V5.1801H19.0343V12.9638C19.0343 13.2304 19.2505 13.4466 19.5172 13.4466C19.7838 13.4466 20 13.2304 20 12.9638V4.69727ZM0.965661 0.965661H16.2805L16.2802 21.1971L0.965613 21.1973V0.965661H0.965661Z" fill="#043752"/>
<path d="M19.9187 14.7818C19.7734 14.5695 19.4777 14.5036 19.259 14.6423C19.1067 14.7389 19.0253 14.9138 19.0429 15.0924C19.0819 15.4894 19.574 15.6831 19.8574 15.3856C20.0119 15.2234 20.0427 14.9709 19.9187 14.7818Z" fill="#043752"/>
<path d="M8.67724 10.522C9.89421 10.522 10.8843 9.53191 10.8843 8.31493C10.8843 7.09825 9.89421 6.1084 8.67724 6.1084C7.46055 6.1084 6.4707 7.09825 6.4707 8.31493C6.4707 9.53191 7.46055 10.522 8.67724 10.522ZM8.67724 7.07406C9.36175 7.07406 9.9186 7.63072 9.9186 8.31493C9.9186 8.99944 9.36175 9.55629 8.67724 9.55629C7.99302 9.55629 7.43636 8.99939 7.43636 8.31493C7.43636 7.63072 7.99302 7.07406 8.67724 7.07406Z" fill="#043752"/>
<path d="M3.80943 7.82371L4.24731 8.07618C4.41895 8.17516 4.41866 8.45622 4.24731 8.55535L3.80933 8.80791C3.2406 9.136 3.04482 9.86623 3.37319 10.4362L4.18903 11.8487C4.51339 12.411 5.25362 12.6102 5.81684 12.2853L6.25482 12.0323C6.42859 11.932 6.66942 12.0716 6.66942 12.2718V12.7774C6.66942 13.4344 7.20421 13.969 7.86153 13.969H9.49302C10.1501 13.969 10.6846 13.4344 10.6846 12.7774V12.2718C10.6846 12.0721 10.9257 11.9319 11.0992 12.0323L11.5374 12.2855C12.1062 12.6136 12.8364 12.4179 13.1654 11.8489L13.9809 10.4362C14.3062 9.87304 14.1072 9.13252 13.5449 8.80801L13.1076 8.55554C12.9351 8.45593 12.9346 8.17555 13.1074 8.07609L13.5452 7.82337C13.8207 7.66404 14.0178 7.40698 14.1001 7.09966C14.1826 6.792 14.1402 6.47077 13.981 6.19551L13.1652 4.78188C12.8364 4.21344 12.1062 4.01804 11.5371 4.34627L11.0995 4.59908C10.9265 4.69883 10.6846 4.55963 10.6846 4.35969V3.85373C10.6846 3.19665 10.1501 2.66211 9.49302 2.66211H7.86153C7.20421 2.66211 6.66942 3.19665 6.66942 3.85373V4.35974C6.66942 4.55997 6.42844 4.69927 6.25482 4.59927L5.8166 4.34608C5.25362 4.02137 4.51315 4.2202 4.18912 4.7826L3.37304 6.19556C3.04491 6.76443 3.24041 7.49466 3.80943 7.82371ZM4.20945 6.67839L5.02568 5.26515C5.087 5.15873 5.22706 5.12088 5.33382 5.18244L5.77242 5.43587C6.57986 5.9006 7.63513 5.28934 7.63513 4.35979V3.85373C7.63513 3.72912 7.73672 3.62777 7.86158 3.62777H9.49307C9.61768 3.62777 9.71903 3.72916 9.71903 3.85373V4.35974C9.71903 5.28943 10.7752 5.90103 11.5824 5.43544L12.0201 5.18258C12.1281 5.12025 12.2669 5.15738 12.3292 5.26495L13.1449 6.67858C13.2072 6.78635 13.17 6.92492 13.0622 6.98726L12.6253 7.23949C11.8196 7.70325 11.8205 8.92717 12.6248 9.39185L13.0622 9.64437C13.1727 9.69961 13.2035 9.8517 13.1447 9.95338L12.3294 11.3658C12.2668 11.474 12.1281 11.5114 12.0203 11.4492L11.5828 11.1965C10.7756 10.7291 9.71908 11.3421 9.71908 12.2719V12.7775C9.71908 12.9021 9.61768 13.0034 9.49311 13.0034H7.86163C7.73677 13.0034 7.63518 12.902 7.63518 12.7775V12.2719C7.63518 11.3424 6.58034 10.729 5.77184 11.1962L5.33411 11.4491C5.22716 11.5108 5.08695 11.4726 5.02543 11.366L4.20974 9.95377C4.14731 9.84537 4.18415 9.70666 4.29182 9.64452L4.73043 9.39161C5.53361 8.92669 5.53429 7.70378 4.7297 7.23973L4.2923 6.9875C4.1843 6.92502 4.14717 6.78625 4.20945 6.67839Z" fill="#043752"/>
<path d="M12.56 19.467C13.5541 19.467 14.3628 18.6583 14.3628 17.6642C14.3628 16.6701 13.5541 15.8613 12.56 15.8613H4.68321C3.68911 15.8613 2.88037 16.6701 2.88037 17.6642C2.88037 18.6583 3.68911 19.467 4.68321 19.467H12.56ZM13.3971 17.6642C13.3971 18.1258 13.0216 18.5013 12.56 18.5013H11.3247V16.827H12.56C13.0216 16.827 13.3971 17.2025 13.3971 17.6642ZM3.84603 17.6641C3.84603 17.2025 4.22158 16.8269 4.68321 16.8269H10.359V18.5013H4.68321C4.22163 18.5013 3.84603 18.1258 3.84603 17.6641Z" fill="#043752"/>
</svg>
