<svg width="16" height="20" viewBox="0 0 16 20" fill="none" xmlns="http://www.w3.org/2000/svg">
<path d="M9.61625 0H3C2.33696 0 1.70107 0.263392 1.23223 0.732233C0.763392 1.20107 0.5 1.83696 0.5 2.5V17.5C0.5 18.163 0.763392 18.7989 1.23223 19.2678C1.70107 19.7366 2.33696 20 3 20H13C13.663 20 14.2989 19.7366 14.7678 19.2678C15.2366 18.7989 15.5 18.163 15.5 17.5V5.88375C15.4999 5.55226 15.3682 5.23437 15.1337 5L10.5 0.36625C10.2656 0.131813 9.94774 7.07968e-05 9.61625 0V0ZM9.875 4.375V1.875L13.625 5.625H11.125C10.7935 5.625 10.4755 5.4933 10.2411 5.25888C10.0067 5.02446 9.875 4.70652 9.875 4.375ZM5.9425 12.3175C5.88439 12.3756 5.8154 12.4217 5.73948 12.4532C5.66356 12.4846 5.58218 12.5008 5.5 12.5008C5.41782 12.5008 5.33644 12.4846 5.26052 12.4532C5.1846 12.4217 5.11561 12.3756 5.0575 12.3175C4.99939 12.2594 4.95329 12.1904 4.92185 12.1145C4.8904 12.0386 4.87421 11.9572 4.87421 11.875C4.87421 11.7928 4.8904 11.7114 4.92185 11.6355C4.95329 11.5596 4.99939 11.4906 5.0575 11.4325L7.5575 8.9325C7.61556 8.8743 7.68453 8.82812 7.76046 8.79661C7.83639 8.7651 7.91779 8.74888 8 8.74888C8.08221 8.74888 8.16361 8.7651 8.23954 8.79661C8.31547 8.82812 8.38444 8.8743 8.4425 8.9325L10.9425 11.4325C11.0006 11.4906 11.0467 11.5596 11.0782 11.6355C11.1096 11.7114 11.1258 11.7928 11.1258 11.875C11.1258 11.9572 11.1096 12.0386 11.0782 12.1145C11.0467 12.1904 11.0006 12.2594 10.9425 12.3175C10.8844 12.3756 10.8154 12.4217 10.7395 12.4532C10.6636 12.4846 10.5822 12.5008 10.5 12.5008C10.4178 12.5008 10.3364 12.4846 10.2605 12.4532C10.1846 12.4217 10.1156 12.3756 10.0575 12.3175L8.625 10.8837V15.625C8.625 15.7908 8.55915 15.9497 8.44194 16.0669C8.32473 16.1842 8.16576 16.25 8 16.25C7.83424 16.25 7.67527 16.1842 7.55806 16.0669C7.44085 15.9497 7.375 15.7908 7.375 15.625V10.8837L5.9425 12.3175Z" fill="#043752"/>
</svg>
