<svg width="25" height="25" viewBox="0 0 25 25" fill="none" xmlns="http://www.w3.org/2000/svg">
<path fill-rule="evenodd" clip-rule="evenodd" d="M12.8075 0.96875C19.2762 0.96875 24.5262 6.22063 24.5262 12.6875C24.5262 16.6494 22.5575 20.1538 19.5444 22.2744C18.9106 22.7225 18.0331 22.5688 17.585 21.935C17.1387 21.2994 17.2906 20.4219 17.9262 19.9756C20.2156 18.3631 21.7137 15.6988 21.7137 12.6875C21.7137 7.77125 17.7237 3.78125 12.8075 3.78125C12.0312 3.78125 11.4012 3.15125 11.4012 2.375C11.4012 1.59875 12.0312 0.96875 12.8075 0.96875Z" fill="white"/>
<path fill-rule="evenodd" clip-rule="evenodd" d="M12.0538 24.3819C5.9375 23.9919 1.08875 18.9012 1.08875 12.6875C1.08875 9.11749 2.69 5.91687 5.21187 3.76624C5.8025 3.26374 6.69125 3.33312 7.19375 3.92374C7.69813 4.51437 7.62688 5.40312 7.03625 5.90749C5.11813 7.54062 3.90125 9.97249 3.90125 12.6875C3.90125 17.4106 7.58563 21.2787 12.2338 21.575C13.0081 21.6256 13.5969 22.2931 13.5463 23.0675C13.4975 23.8437 12.8281 24.4325 12.0538 24.3819Z" fill="white"/>
<path fill-rule="evenodd" clip-rule="evenodd" d="M1.88 2.84375H7.18249C7.95875 2.84375 8.58875 3.47375 8.58875 4.25V9.5525C8.58875 10.3288 7.95875 10.9588 7.18249 10.9588C6.40624 10.9588 5.77624 10.3288 5.77624 9.5525V5.65625H1.88C1.10375 5.65625 0.473746 5.02625 0.473746 4.25C0.473746 3.47375 1.10375 2.84375 1.88 2.84375Z" fill="white"/>
<path fill-rule="evenodd" clip-rule="evenodd" d="M23.12 23.4685H17.8175C17.0412 23.4685 16.4112 22.8385 16.4112 22.0623V16.7598C16.4112 15.9835 17.0412 15.3535 17.8175 15.3535C18.5937 15.3535 19.2237 15.9835 19.2237 16.7598V20.656H23.12C23.8962 20.656 24.5262 21.286 24.5262 22.0623C24.5262 22.8385 23.8962 23.4685 23.12 23.4685Z" fill="white"/>
</svg>
