<svg width="41" height="41" viewBox="0 0 41 41" fill="none" xmlns="http://www.w3.org/2000/svg">
<g clip-path="url(#clip0_98_2873)">
<path d="M40.4267 10.172C40.289 9.66003 39.9531 9.22358 39.4936 8.95898C39.0337 8.69307 38.4869 8.62114 37.974 8.75881C37.4617 8.89681 37.0253 9.23237 36.7607 9.69192L36.4274 10.2719C36.1107 10.09 35.7062 10.197 35.521 10.5121L33.8279 13.398L33.2479 13.0647C33.0943 12.9759 32.9114 12.9518 32.7402 12.998C32.5687 13.0445 32.4229 13.1572 32.3347 13.3114C32.154 13.6301 32.264 14.0349 32.5814 14.2178L33.1613 14.5511L27.4956 24.3694L26.0958 28.109L25.4293 29.3552C25.039 30.0342 25.0807 30.8781 25.536 31.515L24.0363 33.3546L23.6164 32.3017C23.427 31.8324 22.9886 31.5108 22.4844 31.4714C21.98 31.4317 21.4967 31.681 21.2366 32.1149L20.9967 32.5214L20.7702 29.8552C20.7181 29.2244 20.2296 28.7173 19.6015 28.6412C18.973 28.5653 18.378 28.9419 18.1772 29.5421L16.5375 34.4611C16.423 34.8091 16.6104 35.184 16.9574 35.3012C17.0225 35.3314 17.0925 35.3497 17.1641 35.3542C17.4505 35.3552 17.7056 35.1726 17.7974 34.9012L19.4303 29.9821L19.6636 32.688C19.7118 33.2654 20.1268 33.7454 20.6911 33.8763C21.2555 34.0071 21.8394 33.7585 22.1365 33.2615L22.3832 32.8546L22.7966 33.9013C22.972 34.3423 23.3687 34.6571 23.8384 34.727C24.308 34.797 24.7793 34.6118 25.0761 34.2411L26.6292 32.275C26.8011 32.3199 26.9781 32.3424 27.1559 32.3417C27.8702 32.3472 28.5335 31.971 28.8955 31.3549L29.562 30.2418L32.1016 27.1557L37.8272 17.2173L38.4072 17.5506C38.5618 17.6391 38.6744 17.7853 38.7203 17.9574C38.7665 18.1283 38.7424 18.3106 38.6539 18.4639L35.9877 23.0832C35.8871 23.2349 35.8529 23.421 35.8933 23.5987C35.9337 23.7761 36.0446 23.9294 36.2009 24.0228C36.3545 24.112 36.5374 24.1361 36.7086 24.0899C36.8801 24.0433 37.0259 23.9307 37.1141 23.7764L39.7803 19.1571C40.0462 18.6972 40.1182 18.1504 39.9802 17.6375C39.8422 17.1252 39.5066 16.6888 39.0471 16.4242L38.4671 16.0909L40.1335 13.2047C40.3154 12.888 40.2083 12.4838 39.8936 12.2983L40.2269 11.7183C40.4999 11.2512 40.5722 10.6934 40.4267 10.172ZM37.9138 10.3585C38.002 10.2042 38.1484 10.0913 38.3206 10.0454C38.4918 10.0031 38.6728 10.0268 38.827 10.1121C38.9816 10.2003 39.0942 10.3468 39.1405 10.5186C39.1828 10.6898 39.159 10.8708 39.0737 11.025L38.7405 11.605L37.5805 10.9385L37.9138 10.3585ZM28.8287 28.9689L28.4955 28.7756L27.509 28.2021L28.4554 25.6693L30.555 26.8824L28.8287 28.9689ZM26.8291 30.895C26.5476 30.6988 26.461 30.3212 26.6292 30.0218L26.9625 29.4421L28.1222 30.1087L27.7889 30.6818C27.6955 30.8439 27.5386 30.9591 27.356 30.9998C27.1734 31.0402 26.9824 31.0024 26.8291 30.895ZM31.315 25.7894L29.0087 24.4563L34.3412 15.2177L36.6474 16.5508L31.315 25.7894ZM37.314 15.3977L35.0077 14.0646L36.3408 11.7583L38.6471 13.0914L37.314 15.3977Z" fill="#043752"/>
<path d="M11.018 30.5616L8.65875 32.9147L7.24557 31.5016C6.98553 31.2432 6.56568 31.2432 6.30563 31.5016C6.17935 31.6269 6.1084 31.7971 6.1084 31.9748C6.1084 32.1525 6.17935 32.3231 6.30563 32.448L7.7188 33.8612C7.96876 34.1092 8.30659 34.2482 8.65875 34.2479C9.01285 34.2498 9.35361 34.1108 9.6052 33.8612L11.958 31.5016C12.1845 31.237 12.1692 30.8428 11.9232 30.5968C11.6768 30.3504 11.2826 30.3351 11.018 30.5616Z" fill="#043752"/>
<path d="M3.16602 32.354C3.16602 35.4833 5.70269 38.0197 8.83172 38.0197C11.9607 38.0197 14.4974 35.4833 14.4974 32.354C14.4974 31.9859 14.199 31.6874 13.8309 31.6874C13.4628 31.6874 13.1643 31.9859 13.1643 32.354C13.1643 34.7468 11.2245 36.6866 8.83172 36.6866C6.4389 36.6866 4.49912 34.7468 4.49912 32.354C4.49912 29.9612 6.4389 28.0214 8.83172 28.0214C9.76971 28.0188 10.6826 28.3231 11.4312 28.8881C11.7258 29.1091 12.1437 29.0492 12.3643 28.7547C12.5853 28.4601 12.5257 28.0426 12.2312 27.8216C10.5144 26.534 8.21724 26.327 6.29797 27.2865C4.37837 28.2463 3.16602 30.2082 3.16602 32.354Z" fill="#043752"/>
<path d="M24.496 6.02549C24.8641 6.02549 25.1625 5.72736 25.1625 5.35894C25.1625 4.99083 24.8641 4.69238 24.496 4.69238H7.16558C6.79748 4.69238 6.49902 4.99083 6.49902 5.35894V8.02515C6.49902 8.39358 6.79748 8.6917 7.16558 8.6917H24.496C24.8641 8.6917 25.1625 8.39358 25.1625 8.02515C25.1625 7.65705 24.8641 7.3586 24.496 7.3586H7.83213V6.02549H24.496Z" fill="#043752"/>
<path d="M9.16509 10.0254C8.79699 10.0254 8.49854 10.3238 8.49854 10.6919C8.49854 11.0604 8.79699 11.3585 9.16509 11.3585H22.4962C22.8643 11.3585 23.1627 11.0604 23.1627 10.6919C23.1627 10.3238 22.8643 10.0254 22.4962 10.0254H9.16509Z" fill="#043752"/>
<path d="M26.4958 14.6904H11.8316C11.4635 14.6904 11.165 14.9889 11.165 15.357C11.165 15.7254 11.4635 16.0235 11.8316 16.0235H26.4958C26.8639 16.0235 27.1623 15.7254 27.1623 15.357C27.1623 14.9889 26.8639 14.6904 26.4958 14.6904Z" fill="#043752"/>
<path d="M19.8302 19.357C19.8302 18.9889 19.5317 18.6904 19.1636 18.6904H5.83257C5.46447 18.6904 5.16602 18.9889 5.16602 19.357C5.16602 19.7254 5.46447 20.0235 5.83257 20.0235H19.1636C19.5317 20.0235 19.8302 19.7254 19.8302 19.357Z" fill="#043752"/>
<path d="M26.4955 18.6904H21.8296C21.4615 18.6904 21.1631 18.9889 21.1631 19.357C21.1631 19.7254 21.4615 20.0235 21.8296 20.0235H26.4955C26.8636 20.0235 27.1621 19.7254 27.1621 19.357C27.1621 18.9889 26.8636 18.6904 26.4955 18.6904Z" fill="#043752"/>
<path d="M12.4981 23.3556C12.8662 23.3556 13.1647 23.0574 13.1647 22.689C13.1647 22.3209 12.8662 22.0225 12.4981 22.0225H5.83257C5.46447 22.0225 5.16602 22.3209 5.16602 22.689C5.16602 23.0574 5.46447 23.3556 5.83257 23.3556H12.4981Z" fill="#043752"/>
<path d="M15.1641 23.3556H19.83C20.1981 23.3556 20.4965 23.0574 20.4965 22.689C20.4965 22.3209 20.1981 22.0225 19.83 22.0225H15.1641C14.796 22.0225 14.4976 22.3209 14.4976 22.689C14.4976 23.0574 14.796 23.3556 15.1641 23.3556Z" fill="#043752"/>
<path d="M30.4949 31.3548C30.1268 31.3548 29.8283 31.6533 29.8283 32.0214V38.6869C29.8283 39.0553 29.5299 39.3534 29.1618 39.3534H2.49966C2.13156 39.3534 1.83311 39.0553 1.83311 38.6869V2.69302C1.83311 2.32492 2.13156 2.02647 2.49966 2.02647H29.1618C29.5299 2.02647 29.8283 2.32492 29.8283 2.69302V15.2111C29.8283 15.5792 30.1268 15.8776 30.4949 15.8776C30.863 15.8776 31.1614 15.5792 31.1614 15.2111V2.69302C31.1614 1.58871 30.2661 0.693359 29.1618 0.693359H2.49966C1.39536 0.693359 0.5 1.58871 0.5 2.69302V38.6869C0.5 39.7915 1.39536 40.6865 2.49966 40.6865H29.1618C30.2661 40.6865 31.1614 39.7915 31.1614 38.6869V32.0214C31.1614 31.6533 30.863 31.3548 30.4949 31.3548Z" fill="#043752"/>
</g>
<defs>
<clipPath id="clip0_98_2873">
<rect width="40" height="40" fill="white" transform="translate(0.5 0.686523)"/>
</clipPath>
</defs>
</svg>
