<svg width="23" height="36" viewBox="0 0 23 36" fill="none" xmlns="http://www.w3.org/2000/svg">
<path d="M20.5205 19.6702L17.3298 18.4395L15.703 16.8127C15.5985 16.7083 15.4639 16.6517 15.3264 16.6429V15.3484C16.0931 14.5309 16.6389 13.4957 16.8591 12.3294C16.9959 12.3356 17.1339 12.3246 17.2701 12.2968C18.0497 12.1372 18.6156 11.4138 18.6156 10.5769V10.1497C18.6156 9.66552 18.4192 9.22114 18.0995 8.9034C18.617 6.08933 18.1908 3.79604 16.8616 2.26111C15.5759 0.776496 13.5044 0.0668841 10.8715 0.209307C8.43903 0.340791 6.86871 1.46001 6.37121 1.86947C6.09887 1.90181 5.63496 1.99744 5.16543 2.27916C4.51464 2.66963 3.73894 3.48987 3.73894 5.17995C3.73894 6.65433 3.97456 7.88527 4.14519 8.58364C3.57331 8.86223 3.19073 9.46598 3.19073 10.1562V10.5768C3.19073 11.4137 3.75659 12.1371 4.53621 12.2967C4.67238 12.3246 4.8105 12.3355 4.94714 12.3294C5.16738 13.4956 5.71324 14.5308 6.47988 15.3484V16.6428C6.34238 16.6516 6.2077 16.7082 6.10332 16.8127L4.47652 18.4395L1.2858 19.6702C1.00979 19.7766 0.746113 19.9146 0.502206 20.0803C0.234548 20.2622 0.165017 20.6266 0.346814 20.8942C0.460174 21.0611 0.644471 21.1509 0.831972 21.1509C0.945332 21.1509 1.05986 21.1181 1.16072 21.0496C1.3308 20.9341 1.51479 20.8378 1.70752 20.7634L4.66871 19.6213L6.93278 23.0174C7.2134 23.4385 7.66325 23.7085 8.16677 23.7584C8.22278 23.7639 8.2788 23.7667 8.33442 23.7667C8.62591 23.7667 8.90872 23.69 9.15904 23.5484L8.67317 34.5694C8.65888 34.8926 8.90942 35.1663 9.23279 35.1805C9.24154 35.1809 9.25029 35.1811 9.25904 35.1811C9.57076 35.1811 9.83013 34.9354 9.84396 34.6209L10.2949 24.3911H11.5113L11.9623 34.6209C11.9761 34.9355 12.2355 35.1811 12.5472 35.1811C12.5559 35.1811 12.5647 35.1809 12.5734 35.1805C12.8967 35.1663 13.1473 34.8926 13.133 34.5694L12.6472 23.5484C12.8975 23.69 13.1802 23.7667 13.4718 23.7667C13.5274 23.7667 13.5834 23.7639 13.6394 23.7584C14.143 23.7085 14.5927 23.4385 14.8734 23.0174L17.1375 19.6213L20.0987 20.7634C20.514 20.9236 20.8715 21.1792 21.1526 21.498L19.1267 23.5238C18.3948 24.2558 17.9917 25.2289 17.9917 26.2639V34.5952C17.9917 34.9188 18.2541 35.1812 18.5777 35.1812C18.9013 35.1812 19.1636 34.9188 19.1636 34.5952V26.2639C19.1636 25.542 19.4448 24.8631 19.9553 24.3525L21.7333 22.5745C21.8047 22.8365 21.8381 23.1119 21.8268 23.3935L21.373 34.5715C21.3599 34.8948 21.6113 35.1676 21.9346 35.1808C21.9428 35.1811 21.9508 35.1812 21.9589 35.1812C22.2714 35.1812 22.5311 34.9343 22.5439 34.6191L22.9978 23.4408C23.0643 21.7827 22.0688 20.2674 20.5205 19.6702ZM6.09418 12.0878C5.99082 11.5252 5.46988 11.1163 4.90761 11.1579C4.86316 11.1611 4.81738 11.158 4.77128 11.1486C4.53831 11.101 4.36261 10.8551 4.36261 10.5769V10.1561C4.36261 9.88435 4.54425 9.6395 4.77605 9.5988C4.97168 9.56442 5.15902 9.63622 5.27754 9.79083C5.38512 9.93106 5.52863 10.0314 5.69246 10.0808C5.93246 10.1533 6.19707 10.1107 6.40051 9.96708C6.76692 9.70841 7.0902 9.39239 7.36137 9.0277C7.5545 8.76801 7.50044 8.40098 7.24083 8.20793C6.98106 8.01481 6.6141 8.06879 6.42098 8.32848C6.28574 8.51035 6.13293 8.67543 5.96473 8.82153C5.77894 8.66262 5.56191 8.54778 5.32933 8.48223C5.17879 7.90551 4.91082 6.66996 4.91082 5.17979C4.91082 4.28237 5.18746 3.65182 5.73301 3.30573C6.15871 3.03565 6.60926 3.02486 6.60895 3.02479C6.75871 3.02479 6.9045 2.9658 7.01325 2.86291C7.02754 2.84947 8.46794 1.51275 10.9347 1.37939C13.1926 1.25751 14.9358 1.82752 15.9755 3.02815C17.0235 4.23831 17.3725 6.09621 16.9939 8.42161C16.837 8.41606 16.6652 8.42793 16.4941 8.45645L15.9437 7.13441C15.8313 6.86472 15.5371 6.7191 15.2544 6.79277C15.2 6.80699 9.78896 8.17871 7.52012 5.35401C7.31754 5.10175 6.94879 5.06144 6.69637 5.26409C6.4441 5.46675 6.40379 5.8355 6.60653 6.08785C8.92341 8.97239 13.5206 8.34489 15.0509 8.03887L15.4766 9.06114C15.6597 9.50059 16.128 9.74059 16.5895 9.63177C16.779 9.58716 16.96 9.58614 17.028 9.59958C17.2649 9.64677 17.4436 9.8831 17.4436 10.1495V10.5768C17.4436 10.8551 17.2679 11.1009 17.0349 11.1486C16.9889 11.158 16.9429 11.1611 16.8986 11.1579C16.3364 11.1169 15.8155 11.5251 15.712 12.0878C15.2858 14.4084 13.2633 16.0928 10.9031 16.0928C8.54286 16.0928 6.52043 14.4084 6.09418 12.0878ZM8.69349 22.4453C8.54489 22.5939 8.37216 22.6012 8.28231 22.5923C8.19255 22.5835 8.0245 22.5424 7.90794 22.3675L5.62707 18.9463L6.54434 18.029L10.0459 21.0929L8.69349 22.4453ZM10.3465 23.2193L10.382 22.414L10.903 21.893L11.424 22.414L11.4595 23.2193H10.3465ZM10.9031 20.2857L7.65176 17.4408V16.3194C8.59708 16.9205 9.71552 17.2647 10.9031 17.2647C12.0907 17.2647 13.2092 16.9205 14.1545 16.3194V17.4408L10.9031 20.2857ZM13.8984 22.3675C13.7818 22.5424 13.6137 22.5835 13.5241 22.5923C13.4341 22.6012 13.2614 22.5939 13.1128 22.4453L11.7604 21.0928L15.262 18.0289L16.1792 18.9462L13.8984 22.3675Z" fill="#fff"/>
</svg>
