<svg width="21" height="36" viewBox="0 0 21 36" fill="none" xmlns="http://www.w3.org/2000/svg">
<path d="M18.5827 22.7412L15.7216 21.4923L14.1576 19.9284C14.0528 19.8235 13.9181 19.7673 13.781 19.7585V18.8367C15.1177 17.9583 16.0958 16.5614 16.4101 14.8968C16.564 14.9037 16.7194 14.8889 16.8725 14.8527C17.6223 14.6753 18.1664 13.9568 18.1664 13.1443V12.7171C18.1664 12.1235 17.8719 11.5895 17.4156 11.2762C17.5498 10.7445 17.6182 10.2005 17.6182 9.65293C17.6182 7.22542 16.306 5.08728 14.3281 3.85962C14.3071 1.8336 12.5777 0.191406 10.4541 0.191406C8.33039 0.191406 6.60109 1.8336 6.57999 3.85962C4.60217 5.08728 3.28998 7.2255 3.28998 9.65293C3.28998 10.1989 3.35795 10.7413 3.49139 11.2715C3.03529 11.5832 2.74177 12.1197 2.74177 12.7235V13.1443C2.74177 13.9568 3.28592 14.6753 4.03568 14.8527C4.18881 14.889 4.34412 14.9037 4.49811 14.8968C4.81241 16.5614 5.79061 17.9583 7.12726 18.8367V19.7585C6.99015 19.7673 6.85546 19.8235 6.7507 19.9284L5.1867 21.4923L2.32568 22.7412C0.869969 23.3767 -0.0628472 24.8698 0.0044187 26.4567L0.350436 34.6203C0.363795 34.9351 0.623249 35.1815 0.935438 35.1815C0.943797 35.1815 0.952235 35.1813 0.960672 35.1809C1.28403 35.1672 1.53497 34.894 1.5213 34.5707L1.1752 26.4071C1.15294 25.881 1.28966 25.3706 1.54669 24.9313L3.08459 26.7768C3.5706 27.36 3.83818 28.0992 3.83818 28.8583V34.5955C3.83818 34.9191 4.10053 35.1815 4.42412 35.1815C4.74772 35.1815 5.01006 34.9191 5.01006 34.5955V28.8583C5.01006 27.8257 4.64592 26.82 3.98482 26.0267L2.3499 24.0647C2.48888 23.9689 2.63662 23.8841 2.79451 23.8152L5.28795 22.7267L7.04999 25.5868C7.22398 25.8692 7.51164 26.0607 7.83929 26.1123C7.8982 26.1216 7.95726 26.1261 8.01609 26.1261C8.28398 26.1261 8.54492 26.0312 8.7518 25.8546L9.86836 24.9019V34.5954C9.86836 34.919 10.1307 35.1814 10.4543 35.1814C10.7779 35.1814 11.0402 34.919 11.0402 34.5954V24.9021L12.1567 25.8548C12.3636 26.0314 12.6245 26.1263 12.8924 26.1263C12.9512 26.1263 13.0103 26.1217 13.0692 26.1124C13.3969 26.0609 13.6846 25.8694 13.8585 25.587L15.6206 22.7268L18.114 23.8152C18.2718 23.8842 18.4196 23.969 18.5586 24.0648L16.9237 26.0267C16.2626 26.82 15.8985 27.8257 15.8985 28.8584V34.5956C15.8985 34.9192 16.1608 35.1815 16.4844 35.1815C16.808 35.1815 17.0703 34.9192 17.0703 34.5956V28.8584C17.0703 28.0993 17.338 27.3601 17.8239 26.7769L19.3618 24.9314C19.6189 25.3707 19.7556 25.8811 19.7333 26.4071L19.3873 34.5708C19.3736 34.894 19.6246 35.1672 19.9479 35.181C19.9564 35.1814 19.9647 35.1815 19.9732 35.1815C20.2854 35.1815 20.5448 34.9353 20.5582 34.6204L20.9042 26.4568C20.9714 24.8699 20.0385 23.3767 18.5827 22.7412ZM10.4542 1.36329C11.7008 1.36329 12.7525 2.15852 13.0635 3.23603C12.2546 2.93071 11.3745 2.76282 10.4542 2.76282C9.53399 2.76282 8.65383 2.93071 7.84492 3.23603C8.15594 2.15852 9.20758 1.36329 10.4542 1.36329ZM5.64522 14.6553C5.54194 14.0926 5.02014 13.6838 4.45873 13.7254C4.40897 13.7289 4.35756 13.7247 4.30569 13.7123C4.08225 13.6594 3.91373 13.4152 3.91373 13.1443V12.7235C3.91373 12.4517 4.09537 12.2068 4.32717 12.1661C4.5228 12.1318 4.71006 12.2036 4.8285 12.3581C4.93608 12.4984 5.0796 12.5987 5.24358 12.6483C5.4835 12.7208 5.74827 12.6782 5.95155 12.5345C6.31241 12.2798 6.63148 11.9693 6.89991 11.6118C7.09421 11.3531 7.04195 10.9857 6.7832 10.7915C6.52437 10.5972 6.1571 10.6495 5.9628 10.9082C5.82991 11.0852 5.6803 11.2461 5.51577 11.389C5.26506 11.1746 4.95764 11.0404 4.63155 10.9997C4.51928 10.5583 4.46186 10.107 4.46186 9.65301C4.46186 6.50002 7.14999 3.93478 10.4542 3.93478C13.7584 3.93478 16.4465 6.49995 16.4465 9.65301C16.4465 10.1061 16.3894 10.5565 16.2775 10.9971C16.1233 11.0093 15.9666 11.0346 15.8215 11.0722L15.381 10.71C15.1597 10.528 14.8811 10.4369 14.5992 10.4537C13.7379 10.5046 9.32711 10.6211 7.06413 7.91276C6.85663 7.66448 6.48718 7.63136 6.23882 7.83886C5.99046 8.04636 5.95741 8.41589 6.16491 8.66417C7.28101 9.99988 8.91797 10.9031 11.0302 11.3487C12.6475 11.6899 14.0852 11.6568 14.6485 11.6247L15.3357 12.1897C15.5248 12.3453 15.79 12.3672 16.0018 12.244C16.1012 12.1898 16.434 12.1381 16.5792 12.1671C16.8162 12.2142 16.9948 12.4506 16.9948 12.7171V13.1443C16.9948 13.4153 16.8263 13.6595 16.6028 13.7123C16.551 13.7246 16.4996 13.729 16.4498 13.7253C15.8887 13.6845 15.3666 14.0926 15.2632 14.6552C14.837 16.9759 12.8145 18.6603 10.4543 18.6603C8.09398 18.6603 6.07147 16.9759 5.64522 14.6553ZM8.02461 24.9347L6.26226 22.0741L7.16507 21.1713L9.59149 23.5977L8.02461 24.9347ZM10.4542 22.8031L8.29922 20.6481V19.4359C8.97195 19.6919 9.69891 19.8322 10.4542 19.8322C11.2095 19.8322 11.9365 19.692 12.6092 19.4359V20.6481L10.4542 22.8031ZM12.8838 24.9347L11.317 23.5977L13.7434 21.1713L14.6462 22.0741L12.8838 24.9347Z" fill="#fff"/>
</svg>
