<svg width="20" height="20" viewBox="0 0 20 20" fill="none" xmlns="http://www.w3.org/2000/svg">
<path d="M9.53998 5.80103C10.5946 5.80103 11.4526 4.94267 11.4526 3.88806C11.4526 2.83344 10.5946 1.97571 9.53998 1.97571C8.48536 1.97571 7.62732 2.83344 7.62732 3.88806C7.62732 4.94268 8.48536 5.80103 9.53998 5.80103ZM9.53998 3.24771C9.89337 3.24771 10.1806 3.53528 10.1806 3.88806C10.1806 4.24146 9.89337 4.52903 9.53998 4.52903C9.18658 4.52903 8.89932 4.24146 8.89932 3.88806C8.89932 3.53528 9.18658 3.24771 9.53998 3.24771Z" fill="#043752"/>
<path d="M17.172 5.72401H14.8565C14.8658 5.59552 14.8761 5.46726 14.8761 5.33644C14.8761 2.3937 12.4824 0 9.53999 0C6.59756 0 4.20387 2.3937 4.20387 5.33645C4.20387 5.46727 4.2142 5.59552 4.22351 5.72401H1.908C0.855865 5.72401 0 6.57988 0 7.63201V17.1658C0 18.2179 0.855865 19.0738 1.908 19.0738H17.172C18.2241 19.0738 19.08 18.2179 19.08 17.1658V7.63201C19.08 6.57988 18.2241 5.72401 17.172 5.72401ZM9.54 1.27201C11.7809 1.27201 13.6041 3.09554 13.6041 5.33645C13.6041 6.16332 13.3545 6.93239 12.9287 7.57487C12.0169 6.7223 10.8215 6.23952 9.54 6.23952C8.25845 6.23952 7.06312 6.72234 6.15135 7.57487C5.72548 6.93239 5.47588 6.16332 5.47588 5.33645C5.47587 3.09554 7.29909 1.27201 9.54 1.27201ZM12.0702 8.51109C11.3752 9.06607 10.4965 9.40026 9.54 9.40026C8.58351 9.40026 7.70478 9.06608 7.00978 8.51109C7.68871 7.87299 8.58157 7.51152 9.54 7.51152C10.4984 7.51152 11.3913 7.87299 12.0702 8.51109ZM17.808 17.1658C17.808 17.5167 17.5226 17.8018 17.172 17.8018H1.908C1.55739 17.8018 1.272 17.5167 1.272 17.1658V7.63201C1.272 7.28109 1.55739 6.99601 1.908 6.99601H4.47152C5.17138 9.12745 7.17728 10.6723 9.54 10.6723C11.9027 10.6723 13.9086 9.12745 14.6085 6.99601H17.172C17.5226 6.99601 17.808 7.28109 17.808 7.63201V17.1658Z" fill="#043752"/>
<path d="M13.8249 11.2325H5.25506C4.29392 11.2325 3.51196 12.0145 3.51196 12.976C3.51196 13.9368 4.29392 14.7187 5.25506 14.7187H13.8249C14.786 14.7187 15.568 13.9368 15.568 12.976C15.568 12.0145 14.7861 11.2325 13.8249 11.2325ZM13.8249 13.4467H5.25506C4.99545 13.4467 4.78396 13.2356 4.78396 12.976C4.78396 12.7157 4.99545 12.5045 5.25506 12.5045H13.8249C14.0845 12.5045 14.296 12.7157 14.296 12.976C14.296 13.2356 14.0845 13.4467 13.8249 13.4467Z" fill="#043752"/>
<path d="M11.6864 15.4572H7.39345C7.04222 15.4572 6.75745 15.7416 6.75745 16.0932C6.75745 16.4447 7.04222 16.7292 7.39345 16.7292H11.6864C12.0377 16.7292 12.3224 16.4447 12.3224 16.0932C12.3224 15.7416 12.0377 15.4572 11.6864 15.4572Z" fill="#043752"/>
</svg>
