<svg width="20" height="12" viewBox="0 0 20 12" fill="none" xmlns="http://www.w3.org/2000/svg">
<path d="M9.95437 0.000583704C10.1431 -0.000507608 10.3302 0.0356715 10.505 0.107046C10.6797 0.178421 10.8387 0.283588 10.9727 0.416516L19.5782 9.02203C19.8483 9.2921 20 9.6584 20 10.0403C20 10.4223 19.8483 10.7886 19.5782 11.0587C19.3081 11.3287 18.9418 11.4805 18.5599 11.4805C18.1779 11.4805 17.8116 11.3287 17.5416 11.0587L9.95437 3.45713L2.36717 11.0443C2.0928 11.2793 1.73986 11.4021 1.3789 11.3881C1.01793 11.3742 0.675515 11.2245 0.420083 10.9691C0.16465 10.7137 0.0150132 10.3713 0.00107061 10.0103C-0.012872 9.64934 0.109907 9.2964 0.344875 9.02203L8.95039 0.416516C9.21753 0.151546 9.5781 0.00216801 9.95437 0.000583704Z" fill="#043752" fill-opacity="0.8"/>
</svg>
