<svg width="20" height="20" viewBox="0 0 20 20" fill="none" xmlns="http://www.w3.org/2000/svg">
<path d="M20 8.3871H19.2751L18.1948 8.95555C18.0732 8.88845 17.9467 8.83159 17.8103 8.79741L16.4513 8.45735V8.30283C17.0525 7.88322 17.4194 7.19002 17.4194 6.45161V5.88773C17.4194 4.63458 16.4374 3.58587 15.2306 3.54933C15.1693 3.54776 15.109 3.54996 15.0484 3.55296L15.4007 2.72807L13.6925 1.02035L12.6855 1.67575C12.303 1.46028 11.8983 1.29253 11.4781 1.17487L11.2294 0H8.77095L8.52224 1.17518C8.102 1.29284 7.69705 1.46059 7.31477 1.67606L6.30781 1.02067L4.60103 2.72744L4.94739 3.55296C4.93416 3.55233 4.92156 3.54996 4.90833 3.54965C4.29058 3.53169 3.70873 3.75709 3.26676 4.18615C2.82416 4.61489 2.58065 5.19027 2.58065 5.80645V6.45161C2.58065 7.19002 2.94717 7.88291 3.54839 8.30251V8.45735L2.66192 8.67896L1.05516 7.74194H0V14.4262L3.17351 15.4839H3.79158L3.86876 15.2136L4.84155 15.7975C4.85745 16.3264 5.28163 16.752 5.81007 16.7706C5.82866 17.2968 6.25158 17.7197 6.77782 17.7383C6.7964 18.2646 7.21932 18.6875 7.74556 18.7061C7.76477 19.2446 8.2058 19.6774 8.74874 19.6774C8.95035 19.6774 9.14803 19.6146 9.3142 19.5026L9.59993 19.7549C9.77901 19.9126 10.0096 20 10.249 20H10.3087C10.8455 20 11.2823 19.5661 11.2891 19.031C11.82 19.0242 12.25 18.5942 12.2568 18.0633C12.7881 18.0565 13.2184 17.6259 13.2245 17.0946C13.7607 17.082 14.1935 16.6439 14.1935 16.1048C14.1935 16.0723 14.192 16.0404 14.1887 16.0081L20 13.1026V8.3871ZM16.7742 5.88773V6.45161C16.7742 7.02416 16.4648 7.55907 15.9668 7.84747L15.8055 7.94071L15.8068 8.96154L17.4184 9.36413L13.871 11.2313V10.3623C13.871 9.92865 13.6958 9.53157 13.409 9.23812L14.5161 8.96154V7.93993L14.3552 7.84684C13.8574 7.55907 13.5484 7.02416 13.5484 6.45161V5.80645C13.5484 5.36653 13.7223 4.95511 14.0384 4.64875C14.3542 4.34255 14.7732 4.17748 15.2112 4.19449C16.073 4.22033 16.7742 4.98 16.7742 5.88773ZM10.4864 10.9777L9.02612 10.511C8.36064 10.2977 7.64034 10.2659 6.95911 10.4168L6.77419 10.4577V10.3623C6.77419 9.91747 7.07583 9.53125 7.50709 9.4232L9.35484 8.96154V7.93993L9.19386 7.84684C8.69613 7.55907 8.3871 7.02416 8.3871 6.45161V5.80645C8.3871 5.36653 8.56099 4.95511 8.87711 4.64875C9.19292 4.34255 9.61457 4.17748 10.0499 4.19449C10.9117 4.22033 11.6129 4.98 11.6129 5.88773V6.45161C11.6129 7.02416 11.3036 7.55907 10.8055 7.84747L10.6442 7.94071L10.6455 8.96154L12.4929 9.4232C12.9242 9.53125 13.2258 9.91747 13.2258 10.3623V11.571L13.1461 11.6129H12.9484L10.9652 11.0462C10.809 11.0019 10.648 10.9838 10.4864 10.9777ZM6.84649 4.828C7.45227 3.65423 8.67156 2.90323 10 2.90323C11.3158 2.90323 12.5299 3.64415 13.1403 4.80201C12.9867 5.10994 12.9032 5.45095 12.9032 5.80645V6.45161C12.9032 7.19002 13.2698 7.88291 13.871 8.30251V8.45735L12.5806 8.7804L11.29 8.45735V8.30283C11.8912 7.88322 12.2581 7.19002 12.2581 6.45161V5.88773C12.2581 4.63458 11.2761 3.58587 10.0693 3.54933C9.45187 3.53122 8.86971 3.75677 8.42774 4.18583C7.98545 4.61489 7.74194 5.19027 7.74194 5.80645V6.45161C7.74194 7.19002 8.10846 7.88291 8.70968 8.30251V8.45735L7.41936 8.7804L6.12872 8.45735V8.30283C6.72993 7.88322 7.09677 7.19002 7.09677 6.45161V5.88773C7.09677 5.50813 7.00542 5.14774 6.84649 4.828ZM5.3629 2.87708L6.39349 1.84649L7.30059 2.43684L7.47417 2.33036C7.90905 2.06385 8.37906 1.8687 8.87097 1.75104L9.06943 1.70347L9.29388 0.645161H10.7064L10.9303 1.70316L11.1287 1.75057C11.6206 1.86838 12.0906 2.06354 12.5255 2.33005L12.6991 2.43652L13.6062 1.84618L14.6355 2.87582L14.2696 3.73252C14.0206 3.83962 13.7897 3.99036 13.5887 4.1852C13.5755 4.19812 13.5641 4.21198 13.5512 4.22521C12.7912 3.01711 11.4477 2.25806 10 2.25806C8.54193 2.25806 7.19459 3.02419 6.43649 4.24458C6.23362 4.03226 5.99231 3.86026 5.72486 3.74008L5.3629 2.87708ZM4.19355 8.96154V7.93993L4.03257 7.84684C3.53484 7.55907 3.22581 7.02416 3.22581 6.45161V5.80645C3.22581 5.36653 3.3997 4.95511 3.71582 4.64875C4.03163 4.34255 4.45155 4.17748 4.88864 4.19449C5.75038 4.22033 6.45161 4.98 6.45161 5.88773V6.45161C6.45161 7.02416 6.14226 7.55907 5.64422 7.84747L5.48293 7.94071L5.48419 8.96154L6.59101 9.23812C6.30418 9.53157 6.12903 9.92865 6.12903 10.3623V10.6012L5.12286 10.8249L5.149 10.7335L5.16129 10.1373L3.46002 9.14488L4.19355 8.96154ZM0.645161 8.3871H0.880324L3.20029 9.74027L2.02968 14.4226L0.645161 13.9609V8.3871ZM3.2781 14.8387L2.64318 14.6272L3.7804 10.0788L4.51613 10.5078V10.6L3.30519 14.8387H3.2781ZM5.48387 15.7674C5.48387 15.6723 5.5223 15.579 5.58972 15.5116L6.15675 14.9446C6.22417 14.8771 6.31741 14.8387 6.41255 14.8387C6.61196 14.8387 6.77419 15.0009 6.77419 15.2004C6.77419 15.2955 6.73576 15.3887 6.66835 15.4562L6.10131 16.0232C6.0339 16.0906 5.94065 16.129 5.84551 16.129C5.64611 16.129 5.48387 15.9668 5.48387 15.7674ZM6.45161 16.7351C6.45161 16.64 6.49005 16.5467 6.55746 16.4793L7.1245 15.9123C7.19191 15.8449 7.28516 15.8065 7.38029 15.8065C7.5797 15.8065 7.74194 15.9687 7.74194 16.1681C7.74194 16.2632 7.7035 16.3565 7.63609 16.4239L7.06905 16.9909C7.00164 17.0583 6.90839 17.0968 6.81326 17.0968C6.61385 17.0968 6.45161 16.9345 6.45161 16.7351ZM7.41936 17.7029C7.41936 17.6077 7.45779 17.5145 7.5252 17.4471L8.09224 16.88C8.15965 16.8126 8.2529 16.7742 8.34803 16.7742C8.54744 16.7742 8.70968 16.9364 8.70968 17.1358C8.70968 17.231 8.67125 17.3242 8.60383 17.3916L8.03679 17.9587C7.96938 18.0261 7.87613 18.0645 7.781 18.0645C7.58159 18.0645 7.41936 17.9023 7.41936 17.7029ZM8.74874 19.0323C8.54933 19.0323 8.3871 18.87 8.3871 18.6706C8.3871 18.5755 8.42553 18.4822 8.49294 18.4148L9.05998 17.8478C9.12739 17.7804 9.22064 17.7419 9.31578 17.7419C9.51518 17.7419 9.67742 17.9042 9.67742 18.1036C9.67742 18.1987 9.63899 18.292 9.57157 18.3594L9.00454 18.9264C8.93712 18.9938 8.84388 19.0323 8.74874 19.0323ZM10.3087 19.3548H10.249C10.1668 19.3548 10.088 19.3249 10.0268 19.2706L9.78547 19.0578L10.0277 18.8155C10.1142 18.7291 10.1813 18.6262 10.2309 18.5158L10.5242 18.7599C10.6009 18.8239 10.6452 18.9181 10.6452 19.0184C10.6452 19.2039 10.4943 19.3548 10.3087 19.3548ZM13.2016 16.4516H13.1458C13.0648 16.4516 12.9858 16.4229 12.9239 16.371L11.1746 14.9132L10.7612 15.4091L12.46 16.8244C12.5364 16.8884 12.5806 16.9826 12.5806 17.0829C12.5806 17.2685 12.4298 17.4194 12.2442 17.4194H12.1738C12.0955 17.4194 12.019 17.3916 11.9586 17.3412L10.2065 15.8813L9.79319 16.3771L11.4919 17.7927C11.5686 17.8561 11.6129 17.9503 11.6129 18.0507C11.6129 18.2362 11.462 18.3871 11.2765 18.3871C11.1527 18.3871 11.032 18.3432 10.937 18.2642L10.217 17.6641C10.0584 17.34 9.73255 17.1139 9.3509 17.1004C9.33232 16.5742 8.9094 16.1512 8.38316 16.1327C8.36457 15.6064 7.94166 15.1835 7.41542 15.1649C7.39652 14.6264 6.95549 14.1935 6.41255 14.1935C6.14746 14.1935 5.88804 14.301 5.70061 14.4884L5.13357 15.0554C5.0997 15.0893 5.07167 15.1277 5.04316 15.1659L4.05226 14.5713L4.92093 11.531L7.09866 11.0468C7.66995 10.9191 8.27227 10.9468 8.82939 11.1251L9.30459 11.2771L7.69358 12.0826C7.32548 12.267 7.09677 12.6373 7.09677 13.0491V13.1129C7.09677 13.7087 7.58159 14.1935 8.17745 14.1935C8.37324 14.1935 8.56587 14.1403 8.7333 14.0393L9.93448 13.3191C10.1758 13.1745 10.4996 13.2061 10.708 13.3936L13.4336 15.8465C13.5065 15.9126 13.5484 16.0065 13.5484 16.1048C13.5484 16.2962 13.3929 16.4516 13.2016 16.4516ZM19.3548 12.7038L13.9203 15.4213C13.9026 15.4026 13.8842 15.3848 13.8648 15.3675L11.1397 12.9146C10.901 12.6991 10.5922 12.5806 10.2706 12.5806C10.0354 12.5806 9.80453 12.6446 9.60229 12.7659L8.40064 13.4865C8.33323 13.5271 8.25621 13.5484 8.17745 13.5484C7.93709 13.5484 7.74194 13.3532 7.74194 13.1129V13.0491C7.74194 12.8829 7.83424 12.7339 7.98261 12.6597L9.78201 11.76C10.0899 11.6058 10.4555 11.5713 10.7874 11.6668L12.8145 12.2458L13.3055 12.2581L19.3548 9.07416V12.7038Z" fill="#043752"/>
</svg>
