<svg width="50" height="50" viewBox="0 0 50 50" fill="none" xmlns="http://www.w3.org/2000/svg">
<path d="M25 0C11.215 0 0 11.2149 0 25C0 38.7851 11.2149 50 25 50C38.7851 50 50 38.7851 50 25C50 11.2149 38.7851 0 25 0ZM40.4771 25.1884L28.0776 37.5879C25.9184 39.7471 23.0811 40.8269 20.2448 40.827C17.4078 40.8273 14.5719 39.7476 12.4121 37.5879C8.09316 33.2688 8.09316 26.2414 12.4121 21.9224L22.8854 11.4491C25.917 8.41758 30.8499 8.41758 33.8815 11.4491C35.3449 12.9125 36.1509 14.865 36.1509 16.9472C36.1509 19.0293 35.3449 20.9818 33.8814 22.4453L23.6339 32.6928C22.7618 33.5648 21.6159 34.0009 20.4705 34.001C19.3248 34.0012 18.1794 33.565 17.3072 32.6928C15.563 30.9485 15.563 28.1104 17.3072 26.3661L27.501 16.1723C27.9587 15.7146 28.7006 15.7146 29.1583 16.1723C29.6159 16.63 29.616 17.3719 29.1583 17.8296L18.9646 28.0233C18.1342 28.8538 18.1342 30.205 18.9646 31.0354C19.795 31.8658 21.1462 31.8658 21.9767 31.0354L32.2242 20.7879C33.245 19.7671 33.8071 18.4031 33.8071 16.9471C33.8071 15.4911 33.245 14.1271 32.2242 13.1063C30.1063 10.9886 26.6604 10.9886 24.5427 13.1063L14.0694 23.5797C10.6643 26.9849 10.6643 32.5254 14.0694 35.9307C17.4745 39.3355 23.0151 39.3357 26.4204 35.9307L38.8198 23.5312C39.2775 23.0735 40.0194 23.0735 40.4771 23.5312C40.9348 23.9888 40.9348 24.7308 40.4771 25.1884Z" fill="#043752"/>
</svg>
